<?xml version="1.0" standalone="no"?>
<!DOCTYPE svg PUBLIC "-//W3C//DTD SVG 20010904//EN"
 "http://www.w3.org/TR/2001/REC-SVG-20010904/DTD/svg10.dtd">
<svg version="1.0" xmlns="http://www.w3.org/2000/svg"
 width="8035.000000pt" height="8346.000000pt" viewBox="0 0 8035.000000 8346.000000"
 preserveAspectRatio="xMidYMid meet">

<g transform="translate(0.000000,8346.000000) scale(0.100000,-0.100000)"
fill="#000000" stroke="none">
<path d="M0 41840 l0 -41620 40 0 c42 0 207 -53 277 -88 48 -25 82 -65 90
-104 l6 -28 3202 0 3203 0 6 33 c3 17 40 100 81 182 78 157 90 202 73 280 -21
96 -89 215 -168 290 -62 60 -78 92 -105 214 -13 61 -29 120 -35 130 -5 11 -17
73 -26 138 -11 79 -24 134 -40 165 -14 28 -32 95 -43 162 -12 67 -32 143 -49
183 -16 37 -37 97 -46 133 -45 188 -46 193 -41 577 5 408 8 465 36 538 11 28
31 101 45 163 13 63 36 141 50 174 14 33 33 105 44 161 10 56 26 134 34 172 9
39 16 115 16 170 0 104 23 326 39 381 5 18 27 62 50 100 22 37 50 92 61 121
31 83 59 134 101 181 40 46 63 104 74 187 4 28 20 79 35 115 16 36 35 95 44
132 22 93 37 126 83 180 60 69 80 105 103 193 12 44 34 107 50 140 16 33 38
97 49 142 23 94 41 133 86 185 30 36 51 91 75 204 6 28 26 76 45 106 41 69 42
71 66 220 11 68 24 146 29 173 5 28 9 77 9 110 1 33 8 89 17 125 19 81 20 87
34 187 6 45 22 108 35 141 16 39 28 96 34 161 7 72 17 117 36 158 14 31 39
104 54 163 16 58 39 127 50 154 22 51 26 75 36 204 7 108 82 328 141 414 64
94 84 154 96 288 10 107 10 126 -12 234 -19 98 -22 135 -16 224 8 135 12 153
43 227 14 33 35 105 48 160 26 121 31 131 110 220 34 39 83 103 109 144 26 40
82 109 126 152 43 43 111 119 151 169 48 61 102 114 163 160 50 38 123 100
162 138 52 51 85 74 130 90 113 43 158 75 207 150 53 81 86 104 194 136 44 13
102 35 129 48 27 14 78 35 114 48 74 27 126 57 190 111 56 47 84 58 185 70 56
7 101 20 150 44 39 19 106 42 150 50 95 20 116 30 186 91 64 55 105 75 236
113 77 23 123 30 218 33 113 4 124 6 175 35 30 17 97 47 149 67 52 19 118 51
147 71 64 44 100 55 185 55 51 0 76 6 115 26 27 14 65 34 85 44 48 25 304 89
404 101 104 12 127 22 205 86 49 41 84 60 143 78 99 32 106 35 197 110 41 33
105 83 143 109 48 34 87 74 137 141 39 51 91 110 117 132 94 76 147 129 200
201 30 41 73 90 95 110 128 116 184 173 223 227 23 33 87 100 140 150 54 49
123 123 153 165 30 41 92 113 136 160 45 47 116 127 160 178 43 51 101 112
129 135 59 50 186 200 250 295 24 37 59 101 76 143 34 83 72 125 161 181 75
47 111 91 164 200 36 76 55 103 101 142 32 28 83 90 120 145 34 53 86 119 114
146 29 28 93 111 143 185 50 74 103 149 118 166 15 17 44 73 66 124 39 94 56
117 153 199 51 43 82 91 120 189 11 27 37 77 59 110 22 34 54 97 72 142 25 63
48 98 102 157 83 92 91 105 118 214 12 46 32 103 46 126 13 23 38 81 55 129
34 95 45 117 100 184 52 64 67 97 88 202 11 51 28 113 39 138 10 25 22 68 26
95 16 111 34 153 99 224 49 54 69 85 96 155 19 48 53 116 76 149 37 56 72 130
90 196 4 13 47 65 97 117 75 79 96 109 133 189 35 75 59 110 110 163 37 37 90
105 120 152 38 59 85 113 155 178 55 51 124 126 154 165 30 40 93 107 140 150
47 43 117 118 157 167 39 50 101 113 138 142 36 28 111 97 167 153 56 56 141
129 190 163 49 33 116 89 149 122 45 48 79 71 143 101 110 51 152 86 192 160
50 94 91 129 197 167 147 52 309 153 443 276 36 34 100 79 140 101 41 22 106
70 146 107 80 74 106 89 178 107 75 18 104 37 198 127 63 60 108 94 168 124
45 22 106 61 136 86 31 24 92 63 137 86 58 29 104 62 157 114 64 62 87 77 157
104 88 34 109 51 225 181 49 56 84 85 136 112 39 21 102 63 140 95 38 31 111
91 162 132 51 41 116 100 144 131 28 31 89 85 136 119 47 35 130 110 185 166
55 56 135 127 177 158 53 38 96 80 133 131 61 82 94 117 207 217 41 37 92 92
112 122 20 31 72 94 115 140 44 47 93 110 111 141 42 73 101 147 171 215 51
50 59 64 83 143 24 80 33 93 92 155 45 47 80 96 115 164 28 54 72 127 99 164
27 36 66 99 86 140 24 47 66 105 115 158 79 87 87 102 114 222 13 58 24 81 61
124 61 71 95 123 134 200 18 36 42 79 55 95 32 43 55 90 72 149 25 84 48 119
118 180 71 63 90 93 125 201 12 39 36 93 52 122 16 28 40 84 53 124 31 91 67
153 106 182 53 38 89 98 120 202 17 55 40 112 51 127 10 15 39 71 64 124 35
76 60 112 113 168 93 97 109 123 127 208 19 83 38 122 94 193 22 28 60 88 84
135 25 47 60 111 80 143 19 33 46 93 60 134 31 93 60 131 136 183 66 45 100
89 152 201 19 41 52 97 72 123 20 27 55 85 77 130 42 83 110 180 133 189 25
10 76 101 100 181 22 71 33 89 83 141 47 49 74 93 140 225 50 100 88 192 98
234 21 88 36 118 96 184 36 39 53 69 65 110 31 113 46 151 70 184 40 55 53 91
64 184 17 140 114 330 239 468 51 56 71 87 81 123 36 141 41 151 96 218 30 38
76 109 101 159 25 50 65 116 89 146 23 30 59 90 78 134 31 67 51 93 132 172
106 104 133 152 179 309 23 77 26 103 22 176 -3 47 -13 103 -21 124 -27 64
-175 277 -241 345 -58 60 -95 114 -95 139 0 6 -9 36 -21 67 -15 38 -43 80 -90
131 -44 49 -83 105 -111 162 -24 47 -60 115 -80 151 -20 36 -46 101 -58 145
-24 89 -47 132 -120 219 -29 34 -56 81 -66 110 -9 28 -37 96 -63 151 -27 55
-54 126 -60 159 -17 77 -33 114 -75 169 -46 61 -59 88 -87 181 -12 43 -40 106
-62 139 -28 43 -45 86 -59 147 -10 47 -30 123 -44 168 -14 46 -32 121 -39 168
-10 60 -25 105 -54 159 -24 46 -48 112 -61 169 -12 52 -36 124 -55 160 -18 36
-38 89 -43 118 -26 141 -42 263 -47 363 -4 76 -13 135 -30 190 -14 44 -36 123
-49 175 -13 52 -33 121 -45 152 -11 31 -27 101 -36 155 -8 54 -20 114 -26 133
-20 64 -33 361 -34 780 -1 228 -5 469 -10 535 -6 66 -10 217 -10 335 l0 215
48 230 c40 191 47 241 43 295 -4 36 -2 92 4 125 5 33 17 115 25 182 8 68 24
145 35 172 10 27 35 129 55 225 29 143 35 192 32 263 -2 52 3 137 14 208 22
155 32 198 64 270 16 36 32 98 40 159 8 65 23 122 40 159 15 31 33 99 41 149
9 51 29 123 45 161 24 53 32 91 39 175 8 97 21 166 67 350 8 34 33 90 55 124
28 43 46 89 63 157 16 63 39 122 65 168 30 51 44 90 52 140 6 37 17 93 24 123
8 30 23 96 35 145 34 150 37 159 84 231 25 38 53 94 61 124 33 116 46 150 76
187 44 55 55 80 83 188 14 53 33 109 44 123 10 15 45 79 77 142 36 70 78 135
110 170 64 68 82 103 100 192 18 86 28 106 97 186 30 34 71 94 93 133 21 39
65 101 96 137 32 36 87 106 123 156 35 50 87 118 114 151 28 33 70 85 93 115
23 30 84 95 134 143 51 49 112 116 136 149 70 99 95 124 171 174 78 51 362
328 414 404 17 25 47 79 67 122 42 89 69 114 180 170 70 35 100 59 227 187
135 135 149 153 194 244 56 114 83 141 203 201 104 52 165 104 236 200 29 40
81 99 116 131 74 70 97 105 134 200 16 39 43 98 62 132 19 33 41 89 50 123 22
88 47 139 89 185 61 67 85 112 106 203 11 48 28 107 39 132 10 25 24 74 30
110 24 125 39 165 84 224 34 43 53 82 75 154 20 64 45 117 75 161 43 62 47 73
61 174 8 59 22 124 30 143 8 20 22 76 30 126 16 92 41 149 95 223 19 26 38 74
54 137 17 65 37 115 61 151 32 48 37 66 51 173 8 65 21 139 29 164 8 25 19 77
25 115 14 102 27 139 63 187 40 54 52 81 78 176 11 43 35 103 54 135 39 64 50
103 60 197 3 36 14 108 25 160 10 52 22 124 25 160 4 36 20 99 35 140 15 41
35 111 44 155 9 44 32 112 51 150 33 67 65 170 65 207 0 10 16 59 35 108 39
99 50 184 64 510 11 218 34 371 72 466 16 40 36 117 44 171 8 54 23 125 33
158 11 33 22 103 26 155 4 52 16 129 26 172 11 42 27 123 35 180 8 56 19 126
24 153 5 28 10 95 10 150 1 117 14 259 43 479 17 127 20 187 15 295 -8 177
-21 241 -64 325 -19 38 -46 110 -60 160 -26 99 -32 111 -92 180 -28 32 -46 68
-62 118 -35 116 -39 125 -95 201 -29 39 -68 101 -86 137 -24 48 -61 93 -144
175 -61 61 -136 145 -167 187 -46 62 -74 89 -149 139 -51 35 -133 101 -183
149 -55 52 -124 106 -175 137 -48 28 -110 69 -140 91 -38 29 -77 47 -134 63
-101 27 -139 46 -196 99 -56 52 -69 59 -233 121 -156 60 -219 65 -357 30 -46
-12 -102 -24 -124 -27 -111 -14 -159 -28 -251 -73 -55 -28 -120 -55 -145 -62
-25 -6 -84 -26 -132 -45 -67 -26 -112 -36 -195 -43 -59 -6 -139 -15 -178 -22
-100 -17 -331 -14 -449 6 -55 9 -138 30 -185 45 -47 16 -113 31 -146 35 -33 4
-94 16 -135 27 -47 13 -112 21 -175 23 -127 3 -351 27 -555 60 -158 25 -327
29 -525 12 -246 -22 -372 -26 -861 -33 l-422 -5 -137 27 -138 28 -85 -22 c-96
-25 -181 -61 -229 -98 -18 -14 -58 -62 -88 -107 -31 -45 -69 -101 -87 -124
-26 -35 -32 -54 -40 -130 -11 -111 -18 -138 -61 -243 -19 -47 -42 -107 -52
-133 -9 -27 -39 -77 -65 -111 -62 -81 -75 -107 -100 -206 -12 -46 -32 -104
-45 -130 -13 -26 -33 -84 -45 -130 -26 -102 -38 -126 -95 -190 -55 -62 -69
-88 -94 -179 -11 -39 -35 -104 -54 -144 -19 -40 -40 -99 -47 -132 -18 -89 -34
-120 -93 -183 -63 -66 -75 -88 -115 -203 -16 -46 -39 -100 -51 -120 -12 -20
-34 -74 -50 -120 -37 -111 -54 -143 -106 -198 -104 -111 -148 -216 -126 -298
15 -53 53 -99 94 -112 18 -5 149 -13 292 -16 222 -5 287 -3 440 15 141 15 245
20 480 20 300 0 472 9 683 36 62 7 208 17 325 20 190 6 227 5 357 -15 80 -13
188 -36 240 -51 52 -16 131 -32 175 -35 74 -5 240 -38 362 -71 38 -11 68 -29
110 -68 70 -64 98 -79 197 -106 41 -12 140 -52 218 -89 141 -67 144 -70 229
-162 86 -94 101 -104 214 -154 44 -19 80 -46 135 -103 42 -42 106 -104 144
-136 37 -33 99 -100 137 -150 38 -50 87 -106 109 -125 45 -37 67 -76 95 -161
20 -61 66 -134 97 -153 38 -23 105 -126 170 -259 55 -111 67 -147 78 -220 10
-75 18 -97 59 -162 31 -49 55 -103 70 -158 13 -46 39 -116 58 -156 31 -65 35
-84 40 -175 2 -56 10 -127 18 -157 31 -120 38 -239 39 -620 1 -212 5 -484 10
-605 5 -145 4 -246 -2 -295 -6 -41 -18 -129 -27 -195 -9 -65 -28 -153 -42
-195 -14 -43 -28 -115 -33 -172 -6 -69 -15 -112 -33 -153 -15 -30 -31 -84 -37
-118 -17 -99 -31 -148 -63 -209 -22 -42 -33 -83 -43 -165 -8 -59 -21 -130 -29
-158 -8 -27 -19 -84 -25 -125 -13 -84 -43 -155 -94 -217 -21 -26 -46 -78 -66
-138 -20 -61 -46 -114 -71 -148 -39 -51 -56 -97 -77 -210 -15 -80 -160 -371
-216 -434 -55 -62 -71 -94 -92 -183 -12 -54 -29 -90 -68 -148 -29 -43 -72
-114 -96 -160 -23 -46 -68 -111 -100 -146 -41 -45 -60 -76 -69 -112 -34 -129
-44 -148 -107 -214 -43 -45 -79 -96 -114 -165 -29 -55 -67 -118 -86 -140 -19
-22 -68 -90 -109 -152 -40 -62 -96 -141 -123 -177 -28 -36 -60 -91 -72 -123
-35 -94 -65 -136 -128 -181 -73 -51 -102 -89 -152 -196 -28 -62 -57 -105 -108
-160 -39 -41 -95 -113 -126 -158 -30 -46 -78 -105 -106 -133 -29 -27 -89 -100
-135 -161 -46 -62 -111 -138 -145 -170 -34 -33 -86 -95 -115 -139 -29 -44 -93
-121 -142 -171 -49 -50 -111 -119 -138 -155 -59 -78 -277 -298 -360 -363 -33
-26 -100 -89 -150 -140 -64 -66 -114 -106 -171 -139 -44 -26 -100 -67 -125
-92 -24 -25 -102 -84 -174 -132 -71 -47 -148 -102 -170 -123 -22 -21 -88 -61
-147 -90 -93 -44 -115 -60 -165 -116 -63 -73 -86 -87 -192 -120 -40 -12 -99
-38 -130 -57 -31 -19 -85 -45 -120 -57 -100 -33 -136 -55 -187 -115 -52 -60
-112 -94 -204 -115 -30 -7 -75 -22 -100 -32 -25 -11 -93 -32 -151 -48 -125
-33 -141 -40 -194 -91 -48 -46 -108 -74 -192 -89 -35 -6 -91 -21 -125 -34 -35
-13 -95 -29 -134 -35 -80 -12 -151 -35 -174 -56 -27 -25 -81 -43 -180 -59 -78
-14 -106 -24 -155 -56 -78 -51 -94 -56 -262 -91 -98 -20 -171 -29 -235 -29
-115 0 -343 -35 -484 -74 -29 -8 -89 -17 -135 -21 -46 -4 -120 -13 -164 -21
-44 -8 -109 -14 -145 -14 -36 0 -119 -9 -185 -19 -263 -43 -491 -52 -602 -26
-34 8 -114 24 -178 35 -63 11 -136 29 -162 39 -27 10 -95 24 -152 30 -57 6
-134 22 -170 35 -36 13 -100 27 -141 31 -41 3 -122 20 -179 36 -57 16 -111 29
-121 29 -43 0 -123 34 -171 73 -79 65 -97 75 -196 108 -50 16 -110 43 -131 59
-22 16 -82 52 -134 81 -76 43 -115 75 -213 174 -66 67 -142 137 -170 155 -27
19 -72 53 -100 76 -27 23 -73 53 -102 68 -83 41 -123 83 -160 166 -67 147
-127 257 -209 380 -68 102 -86 138 -99 194 -23 99 -38 130 -95 198 -54 65 -79
108 -100 173 -7 22 -30 78 -51 125 -21 49 -45 124 -54 175 -12 63 -28 110 -53
155 -25 46 -43 97 -58 172 -19 89 -29 116 -63 165 -34 48 -47 82 -77 197 -19
77 -37 143 -39 147 -3 3 -7 55 -11 115 -3 60 -14 141 -24 179 -11 39 -28 120
-40 180 -11 61 -27 132 -35 159 -8 27 -15 81 -15 120 0 39 -6 118 -15 176 -8
58 -19 150 -24 205 -6 55 -17 143 -25 195 -36 245 -43 562 -35 1760 1 91 0
266 -2 390 -3 204 -2 233 18 310 12 47 26 121 33 165 6 44 18 112 26 152 8 40
14 125 14 190 0 65 5 136 10 158 5 22 14 84 20 137 6 53 22 128 35 165 13 37
28 113 35 168 6 55 17 134 25 175 8 41 19 117 25 168 6 51 19 115 30 142 11
27 24 89 30 137 12 99 26 155 46 196 8 15 19 67 25 115 5 48 23 125 39 173 18
51 36 131 44 200 18 146 61 347 91 424 12 33 25 68 28 77 3 9 7 59 8 110 1 64
8 116 24 168 13 41 31 113 40 160 9 47 27 109 41 139 13 29 33 106 44 171 11
65 27 135 36 156 11 27 17 79 19 183 4 190 27 319 80 456 31 78 45 132 50 187
5 57 15 95 40 147 20 42 41 107 51 163 9 51 29 121 45 155 16 34 35 100 43
146 9 47 25 114 37 149 15 43 25 101 30 183 4 66 19 179 34 250 24 121 38 160
99 275 13 25 31 85 41 135 9 49 30 115 45 146 19 36 35 92 45 153 8 53 24 119
35 148 11 29 27 100 35 158 9 66 25 134 44 180 16 41 37 106 47 144 12 47 33
93 66 142 61 91 73 121 87 211 6 40 20 97 31 126 11 29 29 95 40 146 23 105
36 134 90 202 27 34 44 71 60 131 24 89 40 125 75 173 39 52 54 91 66 167 6
40 26 107 44 148 18 41 43 104 55 140 30 87 32 91 97 163 65 72 87 116 108
216 8 39 26 93 39 119 13 26 32 76 42 112 28 103 41 127 104 195 71 76 83 98
110 205 12 46 32 105 46 131 13 27 31 79 40 115 22 97 51 150 106 197 59 50
89 98 123 197 14 41 43 101 64 134 21 34 56 94 77 135 25 48 67 104 125 166
76 81 90 101 104 152 30 109 47 144 96 201 28 31 72 101 100 159 28 58 71 125
97 155 173 194 268 318 317 418 55 109 69 126 159 184 79 51 169 135 221 206
49 67 255 260 325 306 83 54 106 75 182 170 80 100 107 125 176 162 34 18 85
52 114 75 29 24 98 73 153 109 55 37 130 93 167 125 36 32 108 81 160 108 62
34 113 70 154 112 70 70 90 82 190 112 61 18 81 30 130 79 64 63 124 106 194
142 25 12 76 43 114 68 49 32 91 51 145 63 96 23 141 48 216 119 65 61 108 87
195 115 30 10 77 29 103 42 27 13 83 31 125 39 106 20 128 28 186 74 34 26 80
48 136 65 110 34 146 50 191 86 46 36 92 53 206 74 48 8 101 20 118 26 16 5
50 11 75 14 25 2 74 7 110 10 38 4 93 19 132 36 36 16 77 29 90 29 13 1 57 7
99 14 62 11 90 23 141 58 72 49 106 63 264 107 75 21 134 31 180 31 86 0 129
12 202 55 31 18 86 41 121 50 89 23 128 45 183 104 56 59 79 72 188 107 45 14
111 45 148 68 37 24 94 57 127 74 54 27 108 69 190 144 16 15 61 39 99 53 101
37 142 64 219 144 58 60 80 75 157 107 50 20 114 52 142 70 28 19 81 43 117
55 99 33 151 62 201 114 71 73 84 78 360 140 36 8 96 15 133 15 46 0 92 8 140
24 40 14 114 32 166 41 57 10 123 29 165 49 39 18 109 43 156 56 47 12 112 33
145 46 62 26 155 36 470 54 83 5 178 15 212 24 96 24 327 45 438 39 73 -4 119
-1 165 11 36 9 107 20 158 26 58 6 117 20 154 36 34 14 102 34 151 45 96 21
102 24 187 75 38 22 82 38 140 49 47 9 113 22 147 30 33 8 113 19 176 25 62 5
134 17 158 25 24 9 96 22 159 30 63 7 142 23 175 34 33 11 93 25 134 31 40 6
99 20 130 31 223 81 355 97 846 104 499 8 716 19 835 41 132 25 473 26 615 2
231 -40 398 -59 456 -52 88 10 369 -14 484 -41 55 -13 137 -28 182 -35 46 -6
109 -20 140 -31 99 -34 392 -72 508 -65 164 9 333 26 450 46 61 10 150 21 200
25 49 4 112 11 140 16 57 11 467 15 483 5 6 -3 89 -2 184 4 l173 9 90 45 c51
26 128 54 178 66 48 11 115 31 148 46 34 14 98 39 144 55 100 36 124 53 203
146 34 40 107 109 162 153 55 44 110 95 124 113 32 43 162 303 175 353 6 21
13 57 16 79 7 52 33 123 57 157 32 46 47 93 63 195 8 54 22 123 30 153 18 66
20 249 5 435 -6 70 -11 202 -11 294 0 91 1 447 1 791 0 500 3 645 15 725 63
428 74 602 49 813 -5 50 20 244 41 317 8 28 26 68 39 90 52 85 65 114 85 193
15 61 33 100 70 155 39 57 54 90 66 148 9 41 29 115 45 164 16 50 36 121 45
159 18 81 44 126 92 163 46 35 83 92 123 188 18 44 52 108 76 143 24 34 59 96
79 137 26 54 59 99 120 164 66 68 96 110 129 178 43 86 57 104 130 172 20 18
57 63 83 100 66 93 107 138 181 197 35 28 84 78 110 110 54 69 56 71 184 169
53 41 113 94 133 119 41 50 72 71 160 106 49 20 79 43 165 130 90 92 118 113
195 152 50 24 113 56 140 70 28 15 79 34 115 43 86 22 103 32 187 107 58 53
83 68 135 82 35 10 106 31 158 46 52 16 135 33 184 40 49 6 115 22 147 35 38
17 101 30 188 40 71 8 142 20 156 25 15 6 77 15 138 20 62 6 141 18 177 26
100 24 437 30 569 10 186 -28 366 -38 501 -27 199 16 404 -7 534 -59 41 -16
98 -35 127 -41 30 -6 83 -20 119 -31 52 -16 91 -20 199 -19 215 2 409 -39 489
-103 46 -37 87 -54 195 -81 37 -10 84 -29 105 -43 59 -40 111 -59 197 -72 44
-6 98 -20 121 -30 22 -9 87 -32 143 -49 95 -30 108 -37 170 -94 82 -78 115
-98 217 -131 60 -20 101 -42 160 -87 43 -34 115 -85 159 -114 44 -29 94 -67
110 -85 17 -18 65 -59 107 -91 68 -52 233 -203 353 -324 87 -87 213 -236 275
-324 36 -50 86 -119 112 -152 26 -33 54 -81 64 -107 47 -129 67 -163 131 -219
75 -66 85 -82 113 -193 12 -46 29 -99 39 -119 10 -20 29 -79 41 -131 26 -109
48 -156 100 -220 45 -55 66 -105 81 -190 6 -36 17 -81 26 -100 8 -19 21 -96
28 -170 8 -75 21 -151 28 -170 8 -19 22 -82 32 -140 9 -58 26 -125 37 -150 28
-62 35 -89 53 -192 8 -49 26 -115 40 -147 23 -55 35 -113 50 -236 4 -27 13
-76 21 -107 10 -42 17 -173 24 -475 6 -229 8 -438 6 -463 -3 -25 -8 -88 -11
-140 -4 -52 -15 -138 -25 -190 -10 -52 -22 -126 -25 -165 -4 -38 -18 -98 -32
-133 -13 -34 -33 -111 -44 -170 -10 -59 -31 -133 -45 -165 -14 -32 -34 -104
-44 -160 -10 -56 -25 -122 -34 -146 -9 -24 -20 -98 -26 -165 -8 -105 -23 -183
-72 -374 -6 -24 -33 -73 -59 -108 -52 -71 -74 -122 -115 -266 -34 -121 -31
-227 10 -338 16 -41 50 -156 77 -255 54 -200 60 -269 34 -390 -8 -38 -22 -114
-31 -167 -8 -54 -30 -134 -49 -181 -19 -48 -41 -127 -50 -183 -8 -55 -30 -148
-47 -209 -56 -198 -39 -283 79 -396 66 -64 90 -77 188 -109 92 -30 119 -44
169 -90 55 -50 85 -64 191 -89 49 -12 108 -32 130 -45 22 -13 72 -33 110 -46
96 -31 133 -51 196 -106 65 -56 98 -71 197 -90 41 -8 100 -25 131 -39 31 -13
94 -36 140 -51 74 -23 92 -33 151 -89 83 -78 109 -92 202 -105 40 -6 114 -24
163 -40 50 -16 123 -39 164 -50 62 -18 83 -30 130 -75 64 -60 106 -83 206
-113 44 -13 85 -34 110 -55 55 -47 91 -63 155 -72 91 -12 134 -30 201 -82 70
-54 335 -189 439 -222 89 -29 122 -51 168 -114 54 -73 91 -102 187 -148 63
-29 97 -54 150 -109 39 -40 115 -105 170 -145 55 -41 122 -96 149 -124 26 -28
104 -96 172 -152 68 -56 124 -105 124 -109 0 -6 192 -188 465 -440 53 -49 126
-129 202 -220 34 -41 112 -118 172 -170 61 -52 146 -138 188 -190 43 -52 118
-138 169 -190 50 -52 125 -138 166 -190 42 -52 99 -114 127 -138 28 -23 84
-84 125 -135 41 -51 113 -130 161 -176 47 -46 108 -116 135 -155 26 -39 90
-111 142 -161 69 -66 109 -114 149 -180 33 -54 81 -116 121 -155 48 -46 75
-82 93 -125 45 -102 57 -120 147 -213 63 -65 98 -111 127 -168 22 -44 67 -110
101 -149 34 -38 77 -100 96 -136 19 -36 68 -103 109 -149 57 -65 81 -101 107
-164 28 -69 44 -93 111 -160 97 -99 109 -115 137 -196 28 -80 34 -92 75 -146
18 -23 43 -74 55 -111 34 -104 64 -148 129 -193 91 -61 92 -62 159 -265 81
-243 112 -306 184 -380 41 -42 70 -96 83 -155 13 -61 41 -103 123 -186 60 -60
91 -102 122 -163 24 -48 65 -108 98 -144 32 -34 71 -80 87 -102 59 -81 138
-166 195 -211 35 -27 92 -90 139 -154 44 -59 109 -133 145 -165 42 -37 92 -97
140 -169 44 -65 98 -131 131 -159 45 -40 64 -66 99 -141 39 -84 51 -99 141
-181 88 -82 102 -98 140 -180 24 -49 59 -116 78 -149 20 -32 44 -82 53 -110
26 -80 53 -126 103 -179 62 -65 69 -80 87 -194 8 -54 19 -118 25 -143 22 -110
-3 -492 -50 -756 -22 -124 -21 -182 9 -311 27 -113 39 -138 102 -213 31 -36
77 -108 103 -160 26 -52 60 -111 75 -130 43 -55 60 -95 76 -176 17 -94 20 -98
104 -191 45 -49 85 -107 116 -167 26 -50 57 -104 69 -121 32 -43 43 -68 76
-158 31 -86 76 -149 138 -194 51 -36 74 -71 115 -175 18 -48 49 -106 69 -130
19 -24 51 -70 70 -103 37 -63 101 -151 161 -220 25 -29 41 -63 56 -119 24 -90
49 -143 80 -171 47 -41 104 -131 137 -214 19 -47 45 -106 58 -131 12 -25 28
-72 35 -105 6 -33 16 -81 22 -107 5 -25 25 -70 44 -100 35 -54 54 -105 54
-146 0 -46 31 -131 61 -169 49 -61 75 -121 99 -228 22 -96 23 -122 26 -715 4
-760 -2 -844 -70 -985 -24 -50 -52 -118 -61 -150 -22 -74 -53 -138 -95 -190
-37 -47 -52 -80 -70 -155 -17 -75 -34 -105 -95 -175 -29 -33 -77 -98 -107
-145 -37 -58 -84 -112 -143 -165 -48 -44 -121 -119 -162 -168 -43 -50 -101
-105 -136 -129 -70 -47 -130 -94 -200 -155 -34 -30 -70 -49 -130 -68 -95 -31
-142 -59 -204 -121 -58 -59 -106 -88 -178 -108 -33 -10 -86 -31 -117 -46 -31
-16 -95 -38 -143 -49 -102 -25 -112 -29 -188 -88 -54 -42 -174 -102 -205 -103
-8 0 -50 -16 -95 -35 -62 -26 -106 -37 -179 -44 -93 -9 -138 -24 -186 -62 -13
-10 -60 -30 -105 -45 -104 -34 -141 -54 -197 -104 -42 -38 -141 -80 -190 -80
-10 0 -60 -13 -111 -29 -52 -16 -119 -32 -149 -36 -71 -10 -112 -25 -183 -68
-39 -24 -90 -43 -153 -57 -69 -16 -106 -30 -137 -54 -77 -57 -97 -67 -198 -92
-56 -14 -122 -35 -148 -48 -25 -13 -91 -37 -147 -55 -60 -19 -123 -47 -157
-71 -68 -46 -99 -56 -190 -65 -52 -5 -86 -16 -143 -46 -42 -22 -112 -48 -162
-60 -48 -11 -116 -29 -152 -39 -36 -11 -110 -24 -165 -29 -71 -7 -116 -17
-157 -36 -31 -14 -96 -33 -145 -41 -84 -14 -104 -22 -198 -72 -23 -12 -77 -26
-125 -32 -62 -8 -107 -21 -168 -50 -131 -62 -203 -74 -452 -75 -200 -1 -417
-20 -505 -44 -16 -4 -66 -9 -110 -10 -102 -2 -159 -9 -215 -27 -25 -7 -90 -23
-145 -34 -54 -11 -123 -31 -151 -44 -56 -26 -121 -41 -219 -51 -33 -3 -82 -12
-110 -20 -27 -8 -77 -16 -110 -20 -33 -3 -80 -8 -105 -11 -25 -2 -71 -18 -103
-34 -32 -17 -103 -43 -158 -59 -56 -16 -117 -41 -137 -56 -21 -14 -55 -39 -77
-55 -22 -16 -69 -36 -105 -46 -36 -9 -105 -29 -155 -44 -51 -16 -127 -30 -175
-33 -71 -5 -98 -13 -165 -45 -44 -21 -119 -49 -168 -62 -60 -16 -108 -36 -154
-67 -36 -23 -82 -47 -102 -52 -91 -22 -201 -50 -251 -64 -30 -9 -84 -19 -120
-22 -36 -4 -96 -18 -135 -32 -38 -14 -115 -34 -170 -44 -55 -10 -129 -28 -165
-38 -69 -21 -214 -38 -445 -51 -126 -7 -250 -22 -536 -65 -131 -20 -235 -19
-378 5 -140 24 -135 22 -226 66 -38 19 -108 42 -155 52 -47 11 -116 33 -155
50 -83 36 -96 39 -198 47 -54 4 -121 20 -213 50 -161 53 -161 54 -228 114 -77
70 -131 104 -226 141 -47 19 -107 48 -135 66 -97 61 -158 87 -221 92 -57 4
-63 3 -97 -27 -20 -18 -55 -60 -78 -94 -23 -34 -79 -98 -124 -142 -81 -77 -84
-83 -109 -165 -14 -47 -37 -103 -51 -125 -51 -82 -64 -120 -70 -205 -5 -67
-15 -103 -44 -170 -21 -47 -46 -105 -56 -130 -23 -56 -73 -135 -112 -181 -45
-51 -59 -85 -77 -181 -9 -47 -27 -111 -41 -141 -13 -31 -31 -84 -40 -118 -22
-82 -45 -126 -89 -169 -54 -51 -82 -104 -109 -205 -14 -50 -33 -109 -45 -130
-11 -22 -30 -74 -42 -115 -30 -102 -50 -137 -110 -195 -68 -65 -96 -111 -126
-203 -14 -41 -40 -103 -59 -136 -18 -34 -41 -90 -50 -125 -22 -87 -45 -128
-100 -181 -55 -53 -84 -107 -116 -210 -12 -41 -34 -97 -49 -125 -15 -27 -37
-82 -48 -120 -23 -77 -69 -154 -107 -179 -42 -28 -82 -98 -114 -204 -18 -56
-41 -117 -51 -135 -10 -18 -29 -68 -41 -112 -28 -104 -41 -129 -104 -195 -61
-65 -84 -106 -115 -210 -12 -41 -33 -96 -46 -122 -14 -27 -33 -90 -43 -142
-20 -100 -32 -127 -86 -194 -22 -27 -43 -71 -56 -115 -31 -106 -39 -126 -80
-190 -30 -48 -39 -72 -44 -125 -11 -118 -16 -156 -25 -192 -13 -51 -18 -83
-26 -163 -4 -45 -19 -104 -40 -157 -18 -47 -41 -121 -49 -165 -10 -49 -30
-105 -52 -143 -20 -36 -45 -106 -59 -163 -14 -56 -37 -126 -51 -157 -19 -43
-27 -83 -35 -171 -5 -64 -17 -143 -27 -176 -10 -33 -22 -82 -25 -108 -12 -77
-33 -128 -83 -190 -36 -46 -53 -82 -79 -163 -18 -58 -46 -126 -62 -152 -34
-53 -46 -93 -61 -206 -6 -43 -20 -99 -32 -125 -11 -25 -33 -88 -48 -139 -23
-74 -39 -106 -84 -165 -60 -78 -77 -115 -103 -222 -9 -38 -25 -87 -35 -107
-11 -21 -26 -68 -35 -105 -28 -124 -42 -157 -90 -204 -52 -50 -81 -103 -113
-203 -12 -38 -40 -101 -61 -140 -21 -39 -44 -96 -50 -126 -21 -87 -36 -116
-104 -189 -55 -61 -67 -80 -91 -158 -16 -48 -45 -122 -65 -163 -21 -41 -45
-102 -55 -135 -21 -75 -37 -107 -85 -170 -65 -84 -75 -122 -75 -270 0 -157 15
-231 68 -333 51 -100 65 -139 73 -209 3 -32 15 -92 26 -133 10 -41 21 -109 24
-150 8 -100 20 -146 55 -202 15 -26 36 -78 45 -115 24 -99 42 -148 69 -185 45
-62 55 -88 76 -189 11 -55 26 -117 34 -137 8 -21 22 -84 30 -142 12 -80 25
-125 55 -190 22 -47 47 -118 55 -157 15 -76 31 -116 66 -170 13 -20 25 -67 33
-126 13 -88 32 -143 61 -177 55 -63 96 -210 96 -344 1 -90 -6 -131 -38 -253
-14 -57 -15 -94 -4 -380 7 -175 16 -356 22 -403 13 -109 12 -399 -1 -470 -6
-30 -17 -120 -25 -200 -15 -157 -68 -387 -101 -438 -10 -16 -40 -57 -65 -90
-36 -47 -51 -80 -68 -144 -12 -46 -38 -114 -56 -153 -19 -38 -42 -99 -51 -135
-23 -91 -37 -115 -115 -197 -55 -56 -79 -92 -114 -168 -32 -68 -63 -116 -103
-160 -31 -34 -84 -100 -117 -146 -32 -46 -113 -138 -180 -204 -66 -66 -138
-144 -160 -174 -23 -30 -93 -94 -161 -147 -66 -51 -141 -119 -167 -151 -25
-32 -85 -93 -132 -137 -48 -43 -122 -125 -166 -181 -43 -56 -89 -109 -101
-117 -13 -8 -70 -64 -128 -124 -140 -145 -208 -212 -315 -315 -50 -48 -106
-104 -126 -125 -21 -22 -80 -79 -133 -127 -53 -48 -117 -116 -143 -150 -52
-68 -408 -442 -653 -687 -86 -86 -177 -187 -203 -226 -26 -39 -86 -109 -133
-155 -67 -66 -94 -103 -131 -174 -32 -63 -68 -113 -119 -166 -52 -54 -85 -101
-117 -166 -25 -49 -62 -111 -83 -139 -21 -27 -54 -85 -74 -130 -45 -103 -57
-120 -140 -209 -62 -67 -70 -82 -96 -166 -26 -83 -35 -99 -96 -166 -36 -40
-85 -108 -108 -151 -23 -42 -65 -106 -94 -142 -29 -36 -70 -96 -91 -135 -27
-49 -74 -107 -155 -190 -65 -66 -131 -142 -148 -168 -17 -27 -68 -88 -114
-136 -46 -48 -119 -128 -163 -177 -44 -50 -99 -106 -123 -125 -24 -19 -73 -70
-109 -114 -36 -44 -132 -146 -213 -226 -111 -109 -167 -157 -226 -191 -61 -35
-102 -70 -179 -154 -64 -69 -125 -124 -170 -152 -38 -25 -95 -68 -125 -97 -30
-29 -86 -75 -125 -104 -85 -62 -414 -374 -556 -527 -25 -27 -75 -75 -112 -107
-36 -32 -97 -99 -136 -150 -38 -51 -98 -115 -133 -143 -35 -28 -99 -96 -143
-150 -44 -55 -122 -144 -175 -199 -52 -55 -136 -146 -185 -203 -50 -57 -117
-134 -150 -172 -33 -38 -107 -113 -164 -167 -58 -54 -206 -197 -330 -319 -124
-121 -293 -283 -376 -360 -82 -76 -199 -186 -260 -244 -60 -58 -150 -141 -199
-185 -49 -44 -110 -102 -135 -129 -25 -27 -86 -79 -136 -117 -112 -85 -116
-88 -195 -178 -36 -41 -87 -92 -115 -114 -103 -80 -138 -114 -193 -182 -66
-81 -77 -91 -157 -147 -33 -23 -112 -94 -175 -158 -63 -65 -143 -136 -177
-158 -59 -40 -85 -66 -176 -182 -23 -30 -67 -74 -97 -97 -115 -91 -144 -119
-195 -187 -55 -75 -107 -126 -193 -191 -30 -22 -85 -81 -122 -131 -38 -51 -99
-118 -137 -150 -97 -85 -124 -113 -186 -202 -30 -43 -82 -101 -114 -128 -92
-78 -107 -94 -183 -194 -40 -52 -97 -117 -127 -144 -30 -27 -88 -98 -130 -158
-41 -60 -95 -132 -120 -161 -24 -29 -65 -91 -90 -140 -33 -64 -59 -99 -96
-130 -91 -76 -146 -141 -189 -221 -30 -55 -65 -101 -115 -149 -48 -47 -90
-100 -124 -159 -28 -48 -71 -112 -96 -141 -25 -28 -63 -88 -84 -133 -43 -89
-75 -136 -139 -204 -53 -55 -76 -104 -90 -194 -6 -37 -22 -90 -35 -116 -13
-27 -34 -83 -45 -127 -28 -103 -42 -131 -101 -198 -60 -68 -70 -89 -99 -185
-12 -41 -37 -104 -56 -140 -18 -36 -45 -103 -59 -148 -24 -75 -34 -92 -96
-159 -69 -74 -104 -131 -129 -208 -15 -47 -33 -77 -74 -125 -16 -19 -63 -86
-103 -148 -41 -62 -91 -132 -112 -155 -59 -64 -68 -91 -75 -212 -4 -60 -11
-139 -16 -175 -4 -36 -9 -94 -9 -130 -1 -36 -5 -140 -10 -231 -9 -147 -13
-174 -39 -240 -16 -41 -35 -98 -41 -128 -13 -62 -43 -126 -95 -200 -19 -29
-43 -78 -52 -109 -8 -31 -31 -106 -50 -167 -19 -60 -43 -148 -54 -195 -14 -55
-34 -108 -61 -152 -50 -82 -63 -123 -84 -271 -18 -126 -14 -176 26 -337 10
-41 23 -126 28 -187 6 -69 18 -129 29 -155 11 -24 22 -79 26 -123 9 -105 20
-143 56 -196 16 -24 39 -71 50 -104 25 -75 49 -244 44 -310 -2 -27 -6 -210 -9
-405 -4 -353 -9 -407 -50 -644 -9 -50 -27 -100 -49 -141 -19 -35 -46 -103 -61
-152 -21 -70 -39 -106 -85 -168 -54 -73 -71 -110 -100 -220 -12 -46 -22 -64
-148 -252 -88 -131 -98 -142 -195 -214 -206 -154 -228 -165 -367 -185 -52 -8
-120 -21 -150 -29 -36 -9 -89 -13 -155 -11 -115 4 -377 38 -462 60 -32 8 -101
18 -153 21 -52 4 -122 14 -155 22 -32 8 -101 21 -152 29 -97 14 -154 37 -187
73 -32 35 -75 57 -172 89 -50 16 -121 48 -158 70 -38 23 -91 49 -120 58 -73
24 -91 37 -182 129 -69 70 -95 89 -185 133 -86 42 -116 63 -173 121 -37 38
-100 89 -138 112 -38 23 -98 68 -133 100 -35 31 -100 76 -144 99 -53 27 -111
70 -165 120 -99 92 -100 93 -195 114 -93 21 -119 35 -190 100 -32 29 -91 76
-132 104 -83 56 -106 79 -171 172 -26 36 -83 101 -128 145 -46 45 -108 120
-141 170 -42 65 -82 110 -141 161 -54 46 -108 104 -154 170 -45 62 -94 116
-130 144 -33 26 -91 89 -132 142 -40 53 -110 131 -157 173 -81 74 -85 80 -121
173 -20 53 -48 111 -61 127 -13 17 -49 68 -80 114 -30 46 -76 112 -102 145
-88 114 -94 134 -108 356 -11 195 -9 304 9 455 21 167 22 169 90 315 76 162
83 174 133 230 53 59 79 109 96 176 18 73 35 103 103 174 35 36 82 99 107 140
25 43 85 118 139 175 53 55 116 127 140 160 24 33 78 96 121 140 42 44 114
130 159 190 46 61 97 128 115 150 18 22 43 60 56 85 41 77 77 118 163 179 104
75 146 122 190 210 24 46 57 90 101 132 37 35 92 100 122 144 77 110 89 124
171 194 42 36 94 94 124 139 28 42 93 120 143 172 57 59 106 121 130 165 21
39 57 100 80 137 23 37 51 100 64 145 32 115 56 156 119 206 58 45 65 55 126
190 22 50 55 100 88 136 29 31 87 102 128 157 41 54 122 146 180 204 176 174
283 302 336 402 33 63 62 101 93 127 127 103 151 136 185 252 9 31 32 79 51
105 19 27 51 78 72 114 58 102 107 172 153 215 48 45 74 97 84 170 11 74 31
113 85 170 31 33 70 93 105 163 30 60 68 131 85 156 16 26 42 84 57 129 27 77
35 88 120 172 90 90 90 90 122 190 18 55 43 116 56 136 14 20 39 78 57 129 28
81 41 103 94 159 85 92 99 114 131 215 15 49 38 105 51 124 13 19 48 82 78
141 35 71 73 129 113 173 76 83 79 91 108 204 14 59 34 110 53 137 17 25 52
91 79 148 33 71 66 124 104 167 47 52 59 73 73 130 9 37 21 84 26 104 5 20 29
63 53 95 24 32 65 99 91 148 27 50 72 118 101 153 55 65 68 96 79 192 8 61 32
115 65 145 36 32 76 96 104 165 15 36 44 94 66 130 24 40 49 104 66 165 27 99
28 100 100 170 76 74 89 93 128 198 13 35 40 89 60 118 19 30 50 95 67 144 34
95 67 151 119 200 46 43 81 98 124 195 20 47 52 108 70 135 18 28 57 96 85
152 29 56 66 119 83 140 58 73 72 112 69 196 -1 43 -38 89 -68 84 -30 -5 -76
-34 -128 -81 -49 -45 -159 -127 -305 -229 -55 -38 -97 -80 -160 -160 -55 -69
-109 -125 -155 -159 -73 -55 -149 -128 -211 -203 -20 -26 -78 -77 -128 -115
-50 -37 -131 -109 -180 -160 -49 -50 -121 -113 -160 -138 -39 -26 -107 -83
-151 -127 -88 -89 -132 -124 -218 -175 -32 -19 -87 -65 -122 -102 -49 -50 -88
-79 -157 -115 -72 -37 -112 -66 -178 -131 -62 -62 -105 -94 -162 -123 -47 -24
-104 -64 -145 -102 -38 -35 -95 -81 -128 -102 -77 -49 -139 -96 -195 -149 -25
-23 -91 -66 -148 -96 -79 -41 -116 -68 -160 -116 -61 -65 -108 -94 -182 -114
-59 -15 -117 -50 -160 -95 -19 -20 -79 -64 -133 -98 -54 -33 -129 -88 -165
-120 -37 -32 -111 -83 -165 -114 -67 -37 -117 -74 -158 -117 -33 -35 -70 -68
-82 -74 -12 -6 -52 -25 -89 -42 -52 -24 -89 -53 -165 -128 -63 -63 -128 -116
-183 -149 -47 -28 -105 -72 -129 -98 -25 -25 -76 -67 -115 -93 -39 -26 -116
-90 -171 -143 -55 -53 -138 -121 -185 -151 -47 -31 -116 -88 -155 -128 -42
-44 -115 -103 -182 -147 -61 -41 -118 -84 -126 -96 -33 -50 -87 -96 -160 -137
-89 -51 -136 -94 -219 -203 -47 -61 -80 -91 -155 -141 -126 -85 -369 -308
-468 -432 -44 -54 -134 -153 -201 -219 -94 -93 -130 -138 -164 -199 -56 -102
-86 -135 -166 -186 -58 -37 -301 -259 -361 -331 -12 -14 -41 -62 -64 -105 -55
-106 -77 -127 -189 -181 -87 -43 -106 -58 -226 -178 -173 -173 -276 -263 -376
-329 -46 -29 -103 -75 -128 -101 -25 -26 -90 -77 -145 -112 -54 -36 -137 -102
-185 -147 -48 -47 -121 -103 -169 -132 -56 -33 -102 -70 -142 -115 -46 -52
-78 -76 -151 -115 -73 -39 -110 -67 -178 -136 -63 -65 -107 -99 -170 -133 -47
-26 -110 -71 -140 -100 -30 -29 -107 -91 -170 -137 -63 -47 -135 -107 -160
-133 -25 -26 -88 -76 -140 -110 -52 -34 -125 -94 -161 -132 -37 -39 -111 -99
-165 -135 -95 -63 -126 -90 -192 -168 -17 -20 -61 -53 -98 -75 -97 -57 -158
-107 -195 -162 -53 -79 -100 -122 -180 -165 -42 -22 -116 -74 -165 -116 -49
-41 -114 -93 -144 -115 -30 -23 -89 -73 -130 -112 -42 -38 -120 -102 -175
-142 -55 -40 -128 -103 -162 -141 -34 -39 -97 -94 -140 -124 -43 -30 -120
-100 -171 -156 -62 -67 -119 -117 -172 -151 -47 -31 -100 -76 -132 -113 -76
-89 -123 -132 -208 -193 -42 -29 -103 -84 -137 -123 -45 -50 -81 -79 -134
-107 -81 -43 -160 -117 -228 -213 -34 -48 -65 -76 -130 -119 -105 -68 -127
-88 -204 -183 -73 -91 -87 -105 -157 -154 -82 -58 -282 -228 -390 -331 -53
-49 -141 -123 -196 -163 -55 -40 -124 -99 -152 -131 -28 -32 -88 -84 -134
-114 -100 -67 -127 -92 -201 -183 -31 -39 -83 -92 -117 -119 -64 -51 -111
-108 -182 -220 -25 -38 -61 -89 -81 -113 -20 -23 -45 -68 -57 -100 -11 -31
-27 -75 -35 -98 -10 -26 -40 -64 -84 -106 -68 -65 -104 -124 -146 -241 -9 -27
-32 -68 -51 -92 -18 -25 -48 -73 -65 -107 -41 -82 -106 -172 -164 -228 -45
-43 -85 -105 -85 -132 0 -37 -57 -129 -113 -184 -42 -41 -78 -90 -111 -153
-28 -51 -74 -117 -104 -149 -29 -31 -88 -109 -129 -172 -42 -63 -101 -142
-133 -175 -31 -33 -71 -87 -90 -120 -20 -35 -77 -103 -136 -164 -57 -57 -115
-121 -129 -142 -14 -22 -37 -58 -52 -81 -16 -22 -54 -64 -86 -92 -37 -32 -84
-92 -129 -161 -44 -68 -102 -140 -152 -190 -55 -55 -94 -104 -121 -154 -25
-48 -71 -108 -126 -165 -47 -50 -118 -134 -156 -186 -39 -52 -90 -112 -112
-134 -23 -21 -63 -75 -88 -120 -31 -54 -74 -108 -129 -163 -98 -96 -109 -113
-130 -184 -24 -80 -48 -121 -104 -179 -32 -33 -68 -87 -97 -144 -25 -50 -63
-120 -84 -156 -20 -36 -49 -105 -63 -154 -27 -94 -30 -99 -117 -185 -49 -50
-58 -65 -78 -136 -12 -44 -35 -111 -51 -150 -16 -38 -39 -110 -50 -158 -22
-98 -39 -137 -81 -185 -38 -43 -61 -91 -87 -178 -12 -38 -33 -86 -46 -105 -58
-79 -75 -117 -90 -199 -9 -47 -27 -105 -41 -130 -13 -25 -50 -97 -82 -160 -61
-122 -80 -145 -256 -303 -71 -65 -93 -91 -124 -155 -34 -68 -38 -83 -36 -147
1 -38 8 -96 17 -127 8 -32 18 -90 21 -130 11 -128 2 -118 108 -118 l93 0 14
35 c18 46 39 51 118 26 37 -11 86 -25 109 -31 23 -6 45 -15 48 -20 4 -7 5747
-10 16286 -10 l16279 0 37 41 c50 55 76 67 184 80 52 6 128 22 170 35 41 13
111 28 155 34 43 6 124 24 179 39 55 16 156 37 225 47 116 16 177 21 480 38
63 3 178 11 255 16 77 6 169 12 205 14 123 7 295 27 410 47 131 22 339 39 481
39 53 0 121 5 150 10 30 6 77 13 104 16 131 13 190 26 253 58 37 19 126 53
197 76 123 39 139 42 305 50 96 5 220 14 275 19 55 6 154 13 220 16 186 8 227
13 275 30 25 9 97 27 160 40 63 14 137 31 164 40 30 9 87 15 146 15 55 0 118
6 146 15 27 8 88 19 135 25 104 12 138 23 206 66 54 35 156 68 251 81 57 8 99
8 282 3 87 -3 103 0 195 32 55 20 139 55 187 78 79 37 98 42 195 50 59 4 128
16 153 25 25 10 86 21 137 25 79 7 105 14 191 54 143 67 291 95 463 89 l126
-5 74 35 c41 19 106 45 144 57 39 12 97 39 129 58 54 32 69 36 163 43 98 7
109 10 171 47 116 70 287 112 465 116 103 2 117 4 177 33 36 18 97 40 135 49
70 17 156 54 185 80 25 22 93 42 180 54 44 6 99 18 121 25 23 8 87 22 143 31
80 12 116 24 173 55 52 28 92 42 145 49 107 15 141 27 184 61 60 48 99 64 244
102 87 22 170 37 232 40 88 6 105 10 175 46 43 21 103 44 133 51 70 16 142 51
183 90 44 43 95 67 174 86 38 8 95 23 128 34 33 10 107 23 163 29 95 9 110 13
170 50 37 22 103 50 147 61 87 24 104 33 181 96 45 36 66 45 151 64 54 12 117
30 140 40 23 10 87 26 143 36 105 18 108 20 237 111 32 22 98 55 145 72 48 16
105 39 128 51 26 13 74 24 138 30 114 11 128 15 200 63 30 19 92 47 140 62 73
23 93 34 142 80 54 53 126 94 163 95 9 0 70 18 135 39 64 22 149 47 187 56 78
18 115 39 194 114 47 44 67 55 152 81 53 17 121 41 151 54 29 13 89 31 132 39
81 17 126 40 194 101 40 36 113 76 177 96 22 7 71 28 110 47 39 20 102 41 145
48 99 18 118 26 174 74 69 59 120 92 226 144 52 26 109 56 125 66 17 11 68 27
115 37 104 20 118 27 200 99 42 38 104 76 175 111 61 30 130 66 155 79 25 14
74 30 110 36 78 14 123 35 170 81 62 61 113 94 220 147 58 28 119 60 135 70
17 11 65 29 108 41 94 25 111 35 205 122 60 55 87 72 159 99 47 18 111 49 142
69 32 21 84 47 117 59 100 38 150 71 209 137 65 73 86 87 179 110 47 12 93 34
149 71 45 30 103 66 129 79 26 13 83 53 126 88 94 77 121 91 194 105 79 14
104 29 193 115 57 56 100 87 165 120 48 24 110 60 138 79 27 18 85 48 129 66
95 38 140 74 193 151 46 67 76 89 185 127 98 35 327 183 440 283 22 19 90 61
151 93 83 43 124 72 170 119 60 61 98 83 189 108 41 12 65 29 142 106 59 59
123 111 178 144 46 28 108 72 137 96 29 25 91 69 137 97 46 28 117 84 157 123
61 59 87 77 146 100 103 38 150 76 223 175 60 83 67 89 156 134 52 25 108 57
124 70 17 12 85 59 152 104 78 52 140 103 174 141 28 33 92 87 141 121 50 34
122 95 162 137 44 46 113 102 181 147 69 46 129 94 158 129 39 45 66 64 140
100 102 48 132 75 218 187 38 50 78 89 116 114 32 21 72 47 89 59 28 19 187
160 363 322 36 33 115 98 175 144 59 47 134 113 165 149 31 35 89 89 129 118
77 58 171 146 212 201 14 18 59 58 100 89 95 71 160 132 217 206 25 32 88 90
141 130 65 49 119 100 162 155 76 94 79 97 185 180 44 34 96 83 115 109 58 78
138 159 211 214 43 33 91 83 130 136 34 47 87 105 117 131 115 98 166 149 220
220 30 40 87 99 126 130 87 69 114 97 181 188 29 39 77 91 105 115 112 94 133
115 200 204 41 56 99 118 144 154 46 38 102 98 147 159 40 53 107 133 148 177
42 44 108 118 146 165 39 46 85 100 104 119 46 47 235 260 289 325 23 28 58
82 78 121 45 87 71 116 159 173 104 68 147 118 185 213 28 69 43 91 102 148
42 40 88 98 116 145 33 55 77 109 145 175 54 53 119 127 144 165 26 38 72 98
104 135 32 36 75 98 96 136 26 49 67 99 135 166 95 94 115 123 158 223 14 33
46 74 93 120 56 55 84 93 121 165 33 64 71 118 119 170 39 42 99 120 133 173
35 53 78 114 98 135 19 21 55 82 80 135 38 79 58 106 114 159 91 86 116 120
148 208 21 58 42 91 96 150 37 41 82 103 99 136 38 72 75 126 123 180 19 22
52 80 72 128 31 75 49 102 119 177 71 76 87 100 114 170 17 45 31 85 31 89 0
4 25 36 55 71 30 36 74 100 97 143 24 43 63 106 88 139 72 95 79 108 106 197
24 76 32 90 95 154 56 58 80 93 123 182 29 60 67 126 83 146 16 20 37 56 47
80 54 126 80 170 139 238 53 58 70 86 87 140 11 36 26 81 32 100 6 19 28 60
50 90 22 31 64 99 95 151 31 52 79 120 108 150 54 57 69 90 80 175 10 81 25
117 73 175 25 30 57 82 72 115 80 173 118 265 130 310 22 83 49 127 125 200
69 67 74 74 99 157 19 62 40 105 72 147 33 45 48 76 60 128 8 37 19 88 25 113
5 25 28 71 50 103 22 31 61 100 85 153 25 52 63 115 84 138 50 54 65 91 79
191 8 51 23 104 45 150 18 38 45 104 60 145 15 42 44 97 66 125 69 88 93 136
112 224 11 46 32 114 47 150 16 36 34 91 41 121 16 71 40 115 90 168 54 57 75
102 94 197 9 44 23 98 31 120 8 22 26 89 40 149 29 124 32 129 94 211 35 45
53 83 74 152 19 65 39 106 66 140 53 68 59 80 75 174 8 46 26 119 40 161 14
42 30 103 35 136 12 75 30 117 74 175 20 26 44 73 53 105 40 137 56 180 77
212 34 52 45 86 56 181 5 47 19 108 29 135 11 27 30 92 43 144 18 72 34 110
65 156 58 85 70 111 95 201 12 43 32 98 44 123 32 62 35 73 40 190 8 165 87
435 135 465 22 14 49 86 64 167 9 56 27 111 51 158 29 58 38 90 46 163 5 51
14 112 20 137 6 24 19 92 29 150 15 82 29 124 64 190 31 61 49 111 61 175 9
49 27 114 40 144 26 64 32 87 45 191 5 42 21 101 36 133 16 36 35 111 49 192
13 74 25 138 28 142 3 4 10 60 16 123 10 101 16 125 50 195 22 44 54 125 72
180 17 55 41 118 52 140 14 29 22 72 28 155 4 63 15 135 24 160 9 25 21 97 26
160 5 63 14 131 19 150 5 19 18 87 29 150 11 64 28 136 36 160 11 30 17 86 19
165 2 97 6 130 24 170 12 28 37 102 56 166 20 64 44 132 55 150 48 85 75 258
77 494 1 206 17 297 78 454 29 73 39 115 46 200 6 58 15 122 21 141 5 19 14
96 19 170 17 265 31 386 50 445 11 33 31 107 44 165 14 58 36 137 50 176 38
107 51 277 51 669 1 384 9 448 80 605 26 59 38 102 45 167 6 48 17 126 25 173
8 47 19 213 25 370 12 329 24 502 40 559 6 23 15 92 21 153 5 62 14 130 20
152 30 113 59 658 39 741 -5 22 -13 85 -16 140 -11 174 28 330 105 417 60 68
71 101 71 203 0 51 6 122 14 157 12 51 15 198 16 803 1 407 3 767 4 800 2 33
7 308 10 610 4 303 9 606 11 675 25 745 26 1762 1 2000 -12 113 -15 149 -23
325 -8 181 -9 371 -4 630 3 120 1 148 -17 195 -11 30 -23 89 -27 129 -6 73
-28 130 -67 180 -74 96 -107 305 -81 516 14 115 10 484 -7 670 -5 50 -13 144
-20 210 -6 66 -19 158 -30 205 -10 47 -24 132 -30 188 -5 57 -13 109 -17 114
-3 6 -12 153 -20 327 -21 496 -27 575 -56 661 -13 41 -27 107 -31 145 -5 52
-18 94 -51 165 -62 133 -78 203 -79 340 0 85 5 133 19 185 30 106 28 335 -3
470 -13 55 -30 132 -39 170 -9 39 -24 90 -35 114 -11 24 -26 83 -34 130 -8 47
-23 129 -34 181 -11 52 -20 129 -20 171 0 42 -5 101 -10 130 -6 30 -15 110
-20 179 -5 69 -16 145 -25 170 -19 55 -64 301 -77 425 -5 50 -15 133 -24 185
-8 52 -14 139 -14 192 0 75 -5 109 -20 149 -12 29 -34 102 -51 163 -17 61 -45
143 -64 181 -23 47 -40 102 -50 165 -9 52 -23 116 -31 141 -8 25 -18 112 -23
192 -5 80 -11 149 -14 154 -2 4 -8 44 -11 88 -9 103 -14 135 -36 217 -10 37
-24 102 -30 144 -6 42 -23 112 -36 157 -13 44 -24 104 -24 132 0 76 -16 146
-48 217 -16 35 -41 103 -56 152 -15 49 -38 113 -52 142 -17 38 -28 90 -39 190
-9 75 -18 141 -21 146 -3 5 -17 63 -30 129 -15 75 -36 144 -55 181 -26 51 -32
78 -39 167 -6 75 -15 121 -31 156 -12 28 -31 91 -41 140 -11 55 -34 121 -58
170 -22 44 -45 107 -50 140 -6 33 -19 103 -30 155 -10 52 -21 133 -25 179 -7
86 -25 147 -57 191 -10 14 -27 66 -38 117 -24 111 -34 138 -67 182 -28 37 -59
111 -68 163 -3 18 -17 78 -30 133 -13 55 -25 132 -26 170 -2 79 -20 154 -44
191 -8 13 -26 66 -40 117 -31 118 -39 139 -75 193 -36 52 -55 103 -76 201 -8
39 -24 93 -35 118 -12 26 -27 88 -35 139 -11 65 -26 114 -54 171 -23 47 -46
115 -55 165 -19 94 -31 121 -79 184 -18 23 -39 67 -48 97 -9 30 -32 107 -52
173 -20 65 -36 133 -36 152 0 65 -23 140 -61 201 -23 37 -46 91 -55 130 -20
89 -38 128 -78 177 -48 59 -63 94 -86 192 -11 48 -29 107 -40 132 -11 24 -26
81 -34 127 -16 90 -38 141 -91 211 -21 27 -46 82 -65 142 -17 53 -45 121 -62
151 -21 38 -36 86 -48 157 -19 108 -24 122 -77 197 -18 27 -42 77 -52 112 -25
81 -51 131 -91 174 -50 54 -57 70 -89 193 -16 64 -36 129 -45 145 -8 16 -24
66 -35 111 -25 100 -48 147 -106 212 -52 59 -65 81 -95 175 -13 39 -35 95 -50
125 -15 30 -35 87 -45 125 -22 93 -45 141 -89 194 -51 61 -82 117 -110 197
-13 38 -37 96 -54 129 -17 33 -41 95 -52 139 -25 93 -40 125 -84 174 -49 55
-83 114 -116 199 -16 42 -40 92 -53 112 -29 44 -40 74 -67 175 -22 83 -33 104
-107 188 -35 42 -133 221 -133 245 0 3 -14 24 -30 47 -18 25 -41 79 -54 128
-30 108 -36 118 -110 200 -66 73 -81 97 -122 203 -15 39 -39 88 -54 110 -15
22 -42 81 -59 130 -35 99 -58 134 -141 215 -51 49 -60 65 -88 150 -18 52 -46
115 -62 140 -17 25 -58 97 -90 161 -43 82 -73 128 -105 157 -52 47 -67 78 -91
183 -15 68 -22 79 -79 139 -52 54 -155 205 -155 226 0 3 -23 38 -51 77 -51 69
-68 103 -104 201 -13 37 -40 72 -105 137 -65 64 -92 100 -105 136 -34 94 -65
154 -99 196 -18 23 -57 82 -86 131 -29 49 -79 118 -111 152 -62 67 -81 98
-110 180 -22 67 -65 130 -122 180 -58 53 -89 96 -122 176 -15 37 -50 93 -77
125 -27 32 -73 99 -103 149 -29 49 -83 121 -119 159 -45 47 -82 101 -118 169
-42 79 -69 116 -134 180 -69 69 -85 92 -110 155 -22 56 -44 91 -97 150 -77 85
-141 166 -177 226 -14 22 -52 70 -85 106 -33 36 -73 90 -89 120 -42 77 -87
134 -157 197 -33 30 -88 96 -121 146 -33 50 -95 125 -137 166 -57 57 -86 95
-115 155 -32 65 -58 98 -136 175 -70 69 -108 116 -139 173 -24 43 -73 111
-109 151 -37 40 -96 107 -131 150 -35 43 -97 107 -138 144 -41 37 -89 90 -108
117 -44 66 -136 170 -208 236 -32 29 -77 84 -100 122 -38 65 -68 98 -199 222
-29 28 -79 90 -112 138 -37 56 -79 103 -115 131 -73 57 -126 113 -195 208 -31
43 -87 103 -125 133 -72 58 -152 145 -211 228 -18 26 -59 66 -89 89 -72 54
-167 150 -219 220 -22 30 -60 70 -84 89 -106 83 -177 153 -240 236 -22 28 -79
83 -128 122 -87 70 -157 141 -208 211 -14 20 -64 66 -111 101 -99 75 -168 141
-210 203 -17 25 -65 68 -110 100 -107 75 -144 108 -207 188 -39 48 -84 87
-157 137 -66 45 -128 98 -176 151 -41 46 -106 103 -150 132 -42 28 -123 99
-181 158 -58 58 -141 134 -185 167 -44 34 -96 82 -115 106 -19 25 -86 88 -149
139 -63 51 -137 112 -165 136 -28 24 -91 64 -139 89 -64 33 -98 58 -125 92
-76 95 -139 148 -228 195 -72 37 -102 60 -153 117 -39 43 -96 92 -147 124 -46
30 -116 86 -156 125 -40 40 -120 103 -178 142 -58 39 -123 89 -146 112 -38 40
-125 106 -139 106 -14 0 -84 58 -166 137 -83 80 -119 102 -219 133 -32 10 -66
35 -119 87 -40 39 -108 92 -150 116 -42 24 -111 76 -154 116 -43 39 -123 98
-178 131 -55 33 -126 82 -158 109 -35 29 -89 60 -132 77 -72 28 -133 76 -185
145 -31 41 -98 84 -183 119 -60 24 -99 49 -158 100 -42 38 -113 90 -158 117
-44 26 -103 66 -130 88 -28 23 -80 51 -115 64 -110 38 -147 61 -190 116 -55
71 -113 109 -239 156 -19 7 -62 31 -95 54 -34 23 -99 61 -145 85 -55 29 -112
70 -168 121 -61 57 -95 81 -126 89 -135 35 -147 41 -214 101 -42 38 -104 79
-163 108 -52 26 -117 63 -144 81 -26 18 -81 43 -121 55 -99 31 -142 57 -190
116 -45 55 -107 95 -209 133 -37 14 -89 42 -115 61 -26 19 -81 46 -122 61 -87
32 -122 54 -192 121 -61 59 -105 83 -205 112 -40 12 -100 39 -132 60 -32 21
-85 49 -117 61 -76 31 -117 57 -189 120 -73 64 -94 75 -182 95 -42 10 -97 32
-137 56 -36 22 -98 54 -137 71 -88 37 -139 69 -200 123 -46 41 -79 55 -203 84
-27 7 -70 25 -95 41 -25 16 -92 51 -150 79 -58 27 -129 71 -159 96 -71 61 -98
74 -189 90 -89 16 -104 21 -152 50 -19 12 -61 32 -93 43 -94 35 -148 67 -212
122 -68 60 -93 73 -196 96 -41 9 -99 29 -129 45 -30 16 -94 42 -143 58 -67 22
-102 41 -155 84 -77 63 -107 77 -217 102 -44 9 -96 26 -116 36 -20 10 -78 30
-129 44 -116 32 -122 36 -191 100 -37 34 -81 61 -125 79 -38 16 -114 50 -169
77 -87 42 -113 49 -199 59 -81 8 -109 16 -160 44 -33 19 -86 42 -116 51 -74
24 -158 67 -195 100 -41 37 -99 62 -186 80 -41 9 -108 29 -149 45 -41 16 -107
38 -147 50 -45 13 -87 33 -115 55 -60 49 -131 82 -216 99 -39 9 -102 31 -140
51 -51 26 -88 37 -157 46 -66 8 -113 21 -175 49 -47 21 -103 44 -125 50 -55
18 -133 57 -175 90 -57 44 -95 59 -177 71 -43 6 -104 19 -136 30 -33 11 -100
28 -150 39 -113 23 -120 25 -183 66 -27 19 -79 40 -115 49 -126 30 -145 37
-211 79 -49 32 -88 47 -150 60 -46 10 -126 31 -178 46 -52 16 -126 36 -165 44
-40 10 -96 33 -135 55 -53 33 -80 42 -150 51 -66 8 -105 21 -175 55 -60 30
-118 50 -175 61 -47 8 -116 24 -155 34 -38 10 -99 22 -135 25 -74 8 -144 29
-180 55 -14 10 -73 34 -130 54 -58 20 -130 52 -160 70 -86 52 -93 55 -189 71
-50 9 -116 27 -146 40 -39 18 -87 28 -163 35 -59 5 -123 14 -142 20 -19 6 -86
17 -147 25 -111 14 -142 25 -213 71 -19 13 -75 34 -125 49 -49 14 -121 41
-158 61 -62 32 -79 36 -185 43 -143 10 -366 61 -442 100 -60 31 -145 51 -219
51 -32 0 -68 11 -117 34 -39 19 -111 45 -160 57 -49 11 -111 32 -139 46 -69
35 -98 43 -185 49 -41 3 -102 12 -136 19 -33 8 -109 17 -170 20 -60 3 -139 15
-175 25 -36 11 -99 26 -139 35 -40 8 -109 33 -154 55 -69 33 -97 41 -184 49
-83 9 -117 18 -177 46 -41 19 -136 51 -212 71 -128 33 -146 36 -243 31 -92 -4
-269 9 -380 29 -19 3 -71 21 -116 39 -45 18 -117 40 -160 50 -44 10 -101 27
-129 38 -35 14 -87 22 -175 28 -70 4 -145 15 -170 24 -24 8 -84 22 -133 30
-48 8 -122 26 -164 40 -77 27 -220 47 -468 66 -71 5 -155 17 -185 25 -30 9
-97 22 -149 30 -55 9 -122 27 -161 44 -37 16 -101 35 -141 41 -41 6 -119 22
-174 34 -55 13 -138 26 -185 30 -47 4 -123 13 -169 21 -46 8 -107 14 -135 14
-28 0 -89 6 -136 14 -47 8 -130 17 -185 20 -114 7 -379 49 -451 72 -27 8 -116
20 -199 25 -359 21 -432 28 -473 43 -23 9 -86 25 -140 37 -53 12 -126 32 -161
45 -35 13 -118 31 -185 40 -67 8 -137 19 -156 24 -19 6 -78 10 -130 10 -52 0
-147 5 -210 10 -63 5 -245 14 -405 20 -159 6 -342 17 -405 25 -63 8 -160 20
-215 25 -55 6 -138 15 -185 21 -243 32 -437 47 -825 67 -83 5 -155 11 -160 14
-6 3 -64 12 -130 18 -66 7 -133 18 -150 24 -49 21 -135 95 -152 132 l-17 34
-19303 0 -19303 0 0 -41620z"/>
<path d="M51086 52376 c-54 -20 -85 -45 -120 -94 -25 -36 -30 -55 -41 -159 -9
-89 -18 -130 -37 -168 -22 -42 -33 -77 -44 -130 -12 -64 -38 -142 -57 -172
-31 -49 -43 -87 -62 -201 -9 -52 -24 -115 -35 -141 -10 -26 -21 -69 -25 -97
-12 -87 -34 -146 -74 -198 -51 -68 -63 -94 -91 -201 -12 -49 -31 -107 -42
-128 -10 -21 -30 -81 -44 -135 -26 -100 -56 -162 -94 -197 -32 -29 -55 -78
-80 -174 -15 -56 -34 -98 -58 -129 -46 -60 -61 -98 -78 -200 -9 -47 -26 -106
-39 -131 -13 -26 -31 -74 -41 -106 -27 -96 -49 -139 -98 -194 -59 -66 -79
-108 -101 -206 -9 -44 -28 -105 -40 -135 -13 -30 -29 -84 -36 -120 -19 -98
-34 -127 -104 -194 -103 -100 -125 -166 -125 -380 0 -152 12 -231 45 -296 42
-82 94 -110 209 -110 42 0 95 -7 119 -15 23 -8 89 -21 146 -30 100 -15 129
-25 221 -78 25 -14 79 -33 120 -43 82 -18 113 -31 172 -74 38 -28 61 -34 212
-59 38 -7 85 -20 105 -30 20 -10 68 -28 106 -40 80 -26 134 -55 195 -106 85
-71 141 -90 345 -120 147 -22 200 -11 322 70 200 131 352 213 426 231 97 23
120 36 207 116 57 52 100 81 179 119 57 27 116 58 130 69 15 10 66 30 114 44
107 31 135 47 212 126 67 69 89 82 188 116 38 13 92 39 121 57 28 18 87 48
131 67 92 39 153 79 184 121 31 41 72 59 173 74 68 10 100 21 130 42 80 55
118 128 118 227 0 126 -64 230 -203 329 -34 25 -100 86 -146 137 -46 50 -118
116 -161 145 -94 66 -122 94 -168 165 -52 82 -238 315 -314 395 -37 38 -97
113 -134 165 -37 52 -89 120 -115 151 -30 35 -60 86 -80 135 -44 110 -70 146
-142 200 -72 54 -94 84 -126 167 -31 85 -42 103 -136 234 -115 160 -427 501
-526 575 -20 15 -63 62 -95 105 -55 73 -81 101 -218 231 -30 30 -77 90 -103
135 -114 194 -270 290 -397 243z"/>
</g>
</svg>
