<svg width="10697" height="11129" viewBox="0 0 10697 11129" fill="none" xmlns="http://www.w3.org/2000/svg">
<path d="M0 5549.33V11098.7H5.33333C10.9333 11098.7 32.9333 11105.7 42.2667 11110.4C48.6667 11113.7 53.2 11119.1 54.2667 11124.3L55.0667 11128H482H909.067L909.867 11123.6C910.267 11121.3 915.2 11110.3 920.667 11099.3C931.067 11078.4 932.667 11072.4 930.4 11062C927.6 11049.2 918.533 11033.3 908 11023.3C899.733 11015.3 897.6 11011.1 894 10994.8C892.267 10986.7 890.133 10978.8 889.333 10977.5C888.667 10976 887.067 10967.7 885.867 10959.1C884.4 10948.5 882.667 10941.2 880.533 10937.1C878.667 10933.3 876.267 10924.4 874.8 10915.5C873.2 10906.5 870.533 10896.4 868.267 10891.1C866.133 10886.1 863.333 10878.1 862.133 10873.3C856.133 10848.3 856 10847.6 856.667 10796.4C857.333 10742 857.733 10734.4 861.467 10724.7C862.933 10720.9 865.6 10711.2 867.467 10702.9C869.2 10694.5 872.267 10684.1 874.133 10679.7C876 10675.3 878.533 10665.7 880 10658.3C881.333 10650.8 883.467 10640.4 884.533 10635.3C885.733 10630.1 886.667 10620 886.667 10612.7C886.667 10598.8 889.733 10569.2 891.867 10561.9C892.533 10559.5 895.467 10553.6 898.533 10548.5C901.467 10543.6 905.2 10536.3 906.667 10532.4C910.8 10521.3 914.533 10514.5 920.133 10508.3C925.467 10502.1 928.533 10494.4 930 10483.3C930.533 10479.6 932.667 10472.8 934.667 10468C936.8 10463.2 939.333 10455.3 940.533 10450.4C943.467 10438 945.467 10433.6 951.6 10426.4C959.6 10417.2 962.267 10412.4 965.333 10400.7C966.933 10394.8 969.867 10386.4 972 10382C974.133 10377.6 977.067 10369.1 978.533 10363.1C981.6 10350.5 984 10345.3 990 10338.4C994 10333.6 996.8 10326.3 1000 10311.2C1000.8 10307.5 1003.47 10301.1 1006 10297.1C1011.47 10287.9 1011.6 10287.6 1014.8 10267.7C1016.27 10258.7 1018 10248.3 1018.67 10244.7C1019.33 10240.9 1019.87 10234.4 1019.87 10230C1020 10225.6 1020.93 10218.1 1022.13 10213.3C1024.67 10202.5 1024.8 10201.7 1026.67 10188.4C1027.47 10182.4 1029.6 10174 1031.33 10169.6C1033.47 10164.4 1035.07 10156.8 1035.87 10148.1C1036.8 10138.5 1038.13 10132.5 1040.67 10127.1C1042.53 10122.9 1045.87 10113.2 1047.87 10105.3C1050 10097.6 1053.07 10088.4 1054.53 10084.8C1057.47 10078 1058 10074.8 1059.33 10057.6C1060.27 10043.2 1070.27 10013.9 1078.13 10002.4C1086.67 9989.87 1089.33 9981.87 1090.93 9964C1092.27 9949.73 1092.27 9947.2 1089.33 9932.8C1086.8 9919.73 1086.4 9914.8 1087.2 9902.93C1088.27 9884.93 1088.8 9882.53 1092.93 9872.67C1094.8 9868.27 1097.6 9858.67 1099.33 9851.33C1102.8 9835.2 1103.47 9833.87 1114 9822C1118.53 9816.8 1125.07 9808.27 1128.53 9802.8C1132 9797.47 1139.47 9788.27 1145.33 9782.53C1151.07 9776.8 1160.13 9766.67 1165.47 9760C1171.87 9751.87 1179.07 9744.8 1187.2 9738.67C1193.87 9733.6 1203.6 9725.33 1208.8 9720.27C1215.73 9713.47 1220.13 9710.4 1226.13 9708.27C1241.2 9702.53 1247.2 9698.27 1253.73 9688.27C1260.8 9677.47 1265.2 9674.4 1279.6 9670.13C1285.47 9668.4 1293.2 9665.47 1296.8 9663.73C1300.4 9661.87 1307.2 9659.07 1312 9657.33C1321.87 9653.73 1328.8 9649.73 1337.33 9642.53C1344.8 9636.27 1348.53 9634.8 1362 9633.2C1369.47 9632.27 1375.47 9630.53 1382 9627.33C1387.2 9624.8 1396.13 9621.73 1402 9620.67C1414.67 9618 1417.47 9616.67 1426.8 9608.53C1435.33 9601.2 1440.8 9598.53 1458.27 9593.47C1468.53 9590.4 1474.67 9589.47 1487.33 9589.07C1502.4 9588.53 1503.87 9588.27 1510.67 9584.4C1514.67 9582.13 1523.6 9578.13 1530.53 9575.47C1537.47 9572.93 1546.27 9568.67 1550.13 9566C1558.67 9560.13 1563.47 9558.67 1574.8 9558.67C1581.6 9558.67 1584.93 9557.87 1590.13 9555.2C1593.73 9553.33 1598.8 9550.67 1601.47 9549.33C1607.87 9546 1642 9537.47 1655.33 9535.87C1669.2 9534.27 1672.27 9532.93 1682.67 9524.4C1689.2 9518.93 1693.87 9516.4 1701.73 9514C1714.93 9509.73 1715.87 9509.33 1728 9499.33C1733.47 9494.93 1742 9488.27 1747.07 9484.8C1753.47 9480.27 1758.67 9474.93 1765.33 9466C1770.53 9459.2 1777.47 9451.33 1780.93 9448.4C1793.47 9438.27 1800.53 9431.2 1807.6 9421.6C1811.6 9416.13 1817.33 9409.6 1820.27 9406.93C1837.33 9391.47 1844.8 9383.87 1850 9376.67C1853.07 9372.27 1861.6 9363.33 1868.67 9356.67C1875.87 9350.13 1885.07 9340.27 1889.07 9334.67C1893.07 9329.2 1901.33 9319.6 1907.2 9313.33C1913.2 9307.07 1922.67 9296.4 1928.53 9289.6C1934.27 9282.8 1942 9274.67 1945.73 9271.6C1953.6 9264.93 1970.53 9244.93 1979.07 9232.27C1982.27 9227.33 1986.93 9218.8 1989.2 9213.2C1993.73 9202.13 1998.8 9196.53 2010.67 9189.07C2020.67 9182.8 2025.47 9176.93 2032.53 9162.4C2037.33 9152.27 2039.87 9148.67 2046 9143.47C2050.27 9139.73 2057.07 9131.47 2062 9124.13C2066.53 9117.07 2073.47 9108.27 2077.2 9104.67C2081.07 9100.93 2089.6 9089.87 2096.27 9080C2102.93 9070.13 2110 9060.13 2112 9057.87C2114 9055.6 2117.87 9048.13 2120.8 9041.33C2126 9028.8 2128.27 9025.73 2141.2 9014.8C2148 9009.07 2152.13 9002.67 2157.2 8989.6C2158.67 8986 2162.13 8979.33 2165.07 8974.93C2168 8970.4 2172.27 8962 2174.67 8956C2178 8947.6 2181.07 8942.93 2188.27 8935.07C2199.33 8922.8 2200.4 8921.07 2204 8906.53C2205.6 8900.4 2208.27 8892.8 2210.13 8889.73C2211.87 8886.67 2215.2 8878.93 2217.47 8872.53C2222 8859.87 2223.47 8856.93 2230.8 8848C2237.73 8839.47 2239.73 8835.07 2242.53 8821.07C2244 8814.27 2246.27 8806 2247.73 8802.67C2249.07 8799.33 2250.67 8793.6 2251.2 8790C2253.33 8775.2 2255.73 8769.6 2264.4 8760.13C2270.93 8752.93 2273.6 8748.8 2277.2 8739.47C2279.73 8733.07 2284.27 8724 2287.33 8719.6C2292.27 8712.13 2296.93 8702.27 2299.33 8693.47C2299.87 8691.73 2305.6 8684.8 2312.27 8677.87C2322.27 8667.33 2325.07 8663.33 2330 8652.67C2334.67 8642.67 2337.87 8638 2344.67 8630.93C2349.6 8626 2356.67 8616.93 2360.67 8610.67C2365.73 8602.8 2372 8595.6 2381.33 8586.93C2388.67 8580.13 2397.87 8570.13 2401.87 8564.93C2405.87 8559.6 2414.27 8550.67 2420.53 8544.93C2426.8 8539.2 2436.13 8529.2 2441.47 8522.67C2446.67 8516 2454.93 8507.6 2459.87 8503.73C2464.67 8500 2474.67 8490.8 2482.13 8483.33C2489.6 8475.87 2500.93 8466.13 2507.47 8461.6C2514 8457.2 2522.93 8449.73 2527.33 8445.33C2533.33 8438.93 2537.87 8435.87 2546.4 8431.87C2561.07 8425.07 2566.67 8420.4 2572 8410.53C2578.67 8398 2584.13 8393.33 2598.27 8388.27C2617.87 8381.33 2639.47 8367.87 2657.33 8351.47C2662.13 8346.93 2670.67 8340.93 2676 8338C2681.47 8335.07 2690.13 8328.67 2695.47 8323.73C2706.13 8313.87 2709.6 8311.87 2719.2 8309.47C2729.2 8307.07 2733.07 8304.53 2745.6 8292.53C2754 8284.53 2760 8280 2768 8276C2774 8273.07 2782.13 8267.87 2786.13 8264.53C2790.27 8261.33 2798.4 8256.13 2804.4 8253.07C2812.13 8249.2 2818.27 8244.8 2825.33 8237.87C2833.87 8229.6 2836.93 8227.6 2846.27 8224C2858 8219.47 2860.8 8217.2 2876.27 8199.87C2882.8 8192.4 2887.47 8188.53 2894.4 8184.93C2899.6 8182.13 2908 8176.53 2913.07 8172.27C2918.13 8168.13 2927.87 8160.13 2934.67 8154.67C2941.47 8149.2 2950.13 8141.33 2953.87 8137.2C2957.6 8133.07 2965.73 8125.87 2972 8121.33C2978.27 8116.67 2989.33 8106.67 2996.67 8099.2C3004 8091.73 3014.67 8082.27 3020.27 8078.13C3027.33 8073.07 3033.07 8067.47 3038 8060.67C3046.13 8049.73 3050.53 8045.07 3065.6 8031.73C3071.07 8026.8 3077.87 8019.47 3080.53 8015.47C3083.2 8011.33 3090.13 8002.93 3095.87 7996.8C3101.73 7990.53 3108.27 7982.13 3110.67 7978C3116.27 7968.27 3124.13 7958.4 3133.47 7949.33C3140.27 7942.67 3141.33 7940.8 3144.53 7930.27C3147.73 7919.6 3148.93 7917.87 3156.8 7909.6C3162.8 7903.33 3167.47 7896.8 3172.13 7887.73C3175.87 7880.53 3181.73 7870.8 3185.33 7865.87C3188.93 7861.07 3194.13 7852.67 3196.8 7847.2C3200 7840.93 3205.6 7833.2 3212.13 7826.13C3222.67 7814.53 3223.73 7812.53 3227.33 7796.53C3229.07 7788.8 3230.53 7785.73 3235.47 7780C3243.6 7770.53 3248.13 7763.6 3253.33 7753.33C3255.73 7748.53 3258.93 7742.8 3260.67 7740.67C3264.93 7734.93 3268 7728.67 3270.27 7720.8C3273.6 7709.6 3276.67 7704.93 3286 7696.8C3295.47 7688.4 3298 7684.4 3302.67 7670C3304.27 7664.8 3307.47 7657.6 3309.6 7653.73C3311.73 7650 3314.93 7642.53 3316.67 7637.2C3320.8 7625.07 3325.6 7616.8 3330.8 7612.93C3337.87 7607.87 3342.67 7599.87 3346.8 7586C3349.07 7578.67 3352.13 7571.07 3353.6 7569.07C3354.93 7567.07 3358.8 7559.6 3362.13 7552.53C3366.8 7542.4 3370.13 7537.6 3377.2 7530.13C3389.6 7517.2 3391.73 7513.73 3394.13 7502.4C3396.67 7491.33 3399.2 7486.13 3406.67 7476.67C3409.6 7472.93 3414.67 7464.93 3417.87 7458.67C3421.2 7452.4 3425.87 7443.87 3428.53 7439.6C3431.07 7435.2 3434.67 7427.2 3436.53 7421.73C3440.67 7409.33 3444.53 7404.27 3454.67 7397.33C3463.47 7391.33 3468 7385.47 3474.93 7370.53C3477.47 7365.07 3481.87 7357.6 3484.53 7354.13C3487.2 7350.53 3491.87 7342.8 3494.8 7336.8C3500.4 7325.73 3509.47 7312.8 3512.53 7311.6C3515.87 7310.27 3522.67 7298.13 3525.87 7287.47C3528.8 7278 3530.27 7275.6 3536.93 7268.67C3543.2 7262.13 3546.8 7256.27 3555.6 7238.67C3562.27 7225.33 3567.33 7213.07 3568.67 7207.47C3571.47 7195.73 3573.47 7191.73 3581.47 7182.93C3586.27 7177.73 3588.53 7173.73 3590.13 7168.27C3594.27 7153.2 3596.27 7148.13 3599.47 7143.73C3604.8 7136.4 3606.53 7131.6 3608 7119.2C3610.27 7100.53 3623.2 7075.2 3639.87 7056.8C3646.67 7049.33 3649.33 7045.2 3650.67 7040.4C3655.47 7021.6 3656.13 7020.27 3663.47 7011.33C3667.47 7006.27 3673.6 6996.8 3676.93 6990.13C3680.27 6983.47 3685.6 6974.67 3688.8 6970.67C3691.87 6966.67 3696.67 6958.67 3699.2 6952.8C3703.33 6943.87 3706 6940.4 3716.8 6929.87C3730.93 6916 3734.53 6909.6 3740.67 6888.67C3743.73 6878.4 3744.13 6874.93 3743.6 6865.2C3743.2 6858.93 3741.87 6851.47 3740.8 6848.67C3737.2 6840.13 3717.47 6811.73 3708.67 6802.67C3700.93 6794.67 3696 6787.47 3696 6784.13C3696 6783.33 3694.8 6779.33 3693.2 6775.2C3691.2 6770.13 3687.47 6764.53 3681.2 6757.73C3675.33 6751.2 3670.13 6743.73 3666.4 6736.13C3663.2 6729.87 3658.4 6720.8 3655.73 6716C3653.07 6711.2 3649.6 6702.53 3648 6696.67C3644.8 6684.8 3641.73 6679.07 3632 6667.47C3628.13 6662.93 3624.53 6656.67 3623.2 6652.8C3622 6649.07 3618.27 6640 3614.8 6632.67C3611.2 6625.33 3607.6 6615.87 3606.8 6611.47C3604.53 6601.2 3602.4 6596.27 3596.8 6588.93C3590.67 6580.8 3588.93 6577.2 3585.2 6564.8C3583.6 6559.07 3579.87 6550.67 3576.93 6546.27C3573.2 6540.53 3570.93 6534.8 3569.07 6526.67C3567.73 6520.4 3565.07 6510.27 3563.2 6504.27C3561.33 6498.13 3558.93 6488.13 3558 6481.87C3556.67 6473.87 3554.67 6467.87 3550.8 6460.67C3547.6 6454.53 3544.4 6445.73 3542.67 6438.13C3541.07 6431.2 3537.87 6421.6 3535.33 6416.8C3532.93 6412 3530.27 6404.93 3529.6 6401.07C3526.13 6382.27 3524 6366 3523.33 6352.67C3522.8 6342.53 3521.6 6334.67 3519.33 6327.33C3517.47 6321.47 3514.53 6310.93 3512.8 6304C3511.07 6297.07 3508.4 6287.87 3506.8 6283.73C3505.33 6279.6 3503.2 6270.27 3502 6263.07C3500.93 6255.87 3499.33 6247.87 3498.53 6245.33C3495.87 6236.8 3494.13 6197.2 3494 6141.33C3493.87 6110.93 3493.33 6078.8 3492.67 6070C3491.87 6061.2 3491.33 6041.07 3491.33 6025.33V5996.67L3497.73 5966C3503.07 5940.53 3504 5933.87 3503.47 5926.67C3502.93 5921.87 3503.2 5914.4 3504 5910C3504.67 5905.6 3506.27 5894.67 3507.33 5885.73C3508.4 5876.67 3510.53 5866.4 3512 5862.8C3513.33 5859.2 3516.67 5845.6 3519.33 5832.8C3523.2 5813.73 3524 5807.2 3523.6 5797.73C3523.33 5790.8 3524 5779.47 3525.47 5770C3528.4 5749.33 3529.73 5743.6 3534 5734C3536.13 5729.2 3538.27 5720.93 3539.33 5712.8C3540.4 5704.13 3542.4 5696.53 3544.67 5691.6C3546.67 5687.47 3549.07 5678.4 3550.13 5671.73C3551.33 5664.93 3554 5655.33 3556.13 5650.27C3559.33 5643.2 3560.4 5638.13 3561.33 5626.93C3562.4 5614 3564.13 5604.8 3570.27 5580.27C3571.33 5575.73 3574.67 5568.27 3577.6 5563.73C3581.33 5558 3583.73 5551.87 3586 5542.8C3588.13 5534.4 3591.2 5526.53 3594.67 5520.4C3598.67 5513.6 3600.53 5508.4 3601.6 5501.73C3602.4 5496.8 3603.87 5489.33 3604.8 5485.33C3605.87 5481.33 3607.87 5472.53 3609.47 5466C3614 5446 3614.4 5444.8 3620.67 5435.2C3624 5430.13 3627.73 5422.67 3628.8 5418.67C3633.2 5403.2 3634.93 5398.67 3638.93 5393.73C3644.8 5386.4 3646.27 5383.07 3650 5368.67C3651.87 5361.6 3654.4 5354.13 3655.87 5352.27C3657.2 5350.27 3661.87 5341.73 3666.13 5333.33C3670.93 5324 3676.53 5315.33 3680.8 5310.67C3689.33 5301.6 3691.73 5296.93 3694.13 5285.07C3696.53 5273.6 3697.87 5270.93 3707.07 5260.27C3711.07 5255.73 3716.53 5247.73 3719.47 5242.53C3722.27 5237.33 3728.13 5229.07 3732.27 5224.27C3736.53 5219.47 3743.87 5210.13 3748.67 5203.47C3753.33 5196.8 3760.27 5187.73 3763.87 5183.33C3767.6 5178.93 3773.2 5172 3776.27 5168C3779.33 5164 3787.47 5155.33 3794.13 5148.93C3800.93 5142.4 3809.07 5133.47 3812.27 5129.07C3821.6 5115.87 3824.93 5112.53 3835.07 5105.87C3845.47 5099.07 3883.33 5062.13 3890.27 5052C3892.53 5048.67 3896.53 5041.47 3899.2 5035.73C3904.8 5023.87 3908.4 5020.53 3923.2 5013.07C3932.53 5008.4 3936.53 5005.2 3953.47 4988.13C3971.47 4970.13 3973.33 4967.73 3979.33 4955.6C3986.8 4940.4 3990.4 4936.8 4006.4 4928.8C4020.27 4921.87 4028.4 4914.93 4037.87 4902.13C4041.73 4896.8 4048.67 4888.93 4053.33 4884.67C4063.2 4875.33 4066.27 4870.67 4071.2 4858C4073.33 4852.8 4076.93 4844.93 4079.47 4840.4C4082 4836 4084.93 4828.53 4086.13 4824C4089.07 4812.27 4092.4 4805.47 4098 4799.33C4106.13 4790.4 4109.33 4784.4 4112.13 4772.27C4113.6 4765.87 4115.87 4758 4117.33 4754.67C4118.67 4751.33 4120.53 4744.8 4121.33 4740C4124.53 4723.33 4126.53 4718 4132.53 4710.13C4137.07 4704.4 4139.6 4699.2 4142.53 4689.6C4145.2 4681.07 4148.53 4674 4152.53 4668.13C4158.27 4659.87 4158.8 4658.4 4160.67 4644.93C4161.73 4637.07 4163.6 4628.4 4164.67 4625.87C4165.73 4623.2 4167.6 4615.73 4168.67 4609.07C4170.8 4596.8 4174.13 4589.2 4181.33 4579.33C4183.87 4575.87 4186.4 4569.47 4188.53 4561.07C4190.8 4552.4 4193.47 4545.73 4196.67 4540.93C4200.93 4534.53 4201.6 4532.13 4203.47 4517.87C4204.53 4509.2 4206.27 4499.33 4207.33 4496C4208.4 4492.67 4209.87 4485.73 4210.67 4480.67C4212.53 4467.07 4214.27 4462.13 4219.07 4455.73C4224.4 4448.53 4226 4444.93 4229.47 4432.27C4230.93 4426.53 4234.13 4418.53 4236.67 4414.27C4241.87 4405.73 4243.33 4400.53 4244.67 4388C4245.07 4383.2 4246.53 4373.6 4248 4366.67C4249.33 4359.73 4250.93 4350.13 4251.33 4345.33C4251.87 4340.53 4254 4332.13 4256 4326.67C4258 4321.2 4260.67 4311.87 4261.87 4306C4263.07 4300.13 4266.13 4291.07 4268.67 4286C4273.07 4277.07 4277.33 4263.33 4277.33 4258.4C4277.33 4257.07 4279.47 4250.53 4282 4244C4287.2 4230.8 4288.67 4219.47 4290.53 4176C4292 4146.93 4295.07 4126.53 4300.13 4113.87C4302.27 4108.53 4304.93 4098.27 4306 4091.07C4307.07 4083.87 4309.07 4074.4 4310.4 4070C4311.87 4065.6 4313.33 4056.27 4313.87 4049.33C4314.4 4042.4 4316 4032.13 4317.33 4026.4C4318.8 4020.8 4320.93 4010 4322 4002.4C4323.07 3994.93 4324.53 3985.6 4325.2 3982C4325.87 3978.27 4326.53 3969.33 4326.53 3962C4326.67 3946.4 4328.4 3927.47 4332.27 3898.13C4334.53 3881.2 4334.93 3873.2 4334.27 3858.8C4333.2 3835.2 4331.47 3826.67 4325.73 3815.47C4323.2 3810.4 4319.6 3800.8 4317.73 3794.13C4314.27 3780.93 4313.47 3779.33 4305.47 3770.13C4301.73 3765.87 4299.33 3761.07 4297.2 3754.4C4292.53 3738.93 4292 3737.73 4284.53 3727.6C4280.67 3722.4 4275.47 3714.13 4273.07 3709.33C4269.87 3702.93 4264.93 3696.93 4253.87 3686C4245.73 3677.87 4235.73 3666.67 4231.6 3661.07C4225.47 3652.8 4221.73 3649.2 4211.73 3642.53C4204.93 3637.87 4194 3629.07 4187.33 3622.67C4180 3615.73 4170.8 3608.53 4164 3604.4C4157.6 3600.67 4149.33 3595.2 4145.33 3592.27C4140.27 3588.4 4135.07 3586 4127.47 3583.87C4114 3580.27 4108.93 3577.73 4101.33 3570.67C4093.87 3563.73 4092.13 3562.8 4070.27 3554.53C4049.47 3546.53 4041.07 3545.87 4022.67 3550.53C4016.53 3552.13 4009.07 3553.73 4006.13 3554.13C3991.33 3556 3984.93 3557.87 3972.67 3563.87C3965.33 3567.6 3956.67 3571.2 3953.33 3572.13C3950 3572.93 3942.13 3575.6 3935.73 3578.13C3926.8 3581.6 3920.8 3582.93 3909.73 3583.87C3901.87 3584.67 3891.2 3585.87 3886 3586.8C3872.67 3589.07 3841.87 3588.67 3826.13 3586C3818.8 3584.8 3807.73 3582 3801.47 3580C3795.2 3577.87 3786.4 3575.87 3782 3575.33C3777.6 3574.8 3769.47 3573.2 3764 3571.73C3757.73 3570 3749.07 3568.93 3740.67 3568.67C3723.73 3568.27 3693.87 3565.07 3666.67 3560.67C3645.6 3557.33 3623.07 3556.8 3596.67 3559.07C3563.87 3562 3547.07 3562.53 3481.87 3563.47L3425.6 3564.13L3407.33 3560.53L3388.93 3556.8L3377.6 3559.73C3364.8 3563.07 3353.47 3567.87 3347.07 3572.8C3344.67 3574.67 3339.33 3581.07 3335.33 3587.07C3331.2 3593.07 3326.13 3600.53 3323.73 3603.6C3320.27 3608.27 3319.47 3610.8 3318.4 3620.93C3316.93 3635.73 3316 3639.33 3310.27 3653.33C3307.73 3659.6 3304.67 3667.6 3303.33 3671.07C3302.13 3674.67 3298.13 3681.33 3294.67 3685.87C3286.4 3696.67 3284.67 3700.13 3281.33 3713.33C3279.73 3719.47 3277.07 3727.2 3275.33 3730.67C3273.6 3734.13 3270.93 3741.87 3269.33 3748C3265.87 3761.6 3264.27 3764.8 3256.67 3773.33C3249.33 3781.6 3247.47 3785.07 3244.13 3797.2C3242.67 3802.4 3239.47 3811.07 3236.93 3816.4C3234.4 3821.73 3231.6 3829.6 3230.67 3834C3228.27 3845.87 3226.13 3850 3218.27 3858.4C3209.87 3867.2 3208.27 3870.13 3202.93 3885.47C3200.8 3891.6 3197.73 3898.8 3196.13 3901.47C3194.53 3904.13 3191.6 3911.33 3189.47 3917.47C3184.53 3932.27 3182.27 3936.53 3175.33 3943.87C3161.47 3958.67 3155.6 3972.67 3158.53 3983.6C3160.53 3990.67 3165.6 3996.8 3171.07 3998.53C3173.47 3999.2 3190.93 4000.27 3210 4000.67C3239.6 4001.33 3248.27 4001.07 3268.67 3998.67C3287.47 3996.67 3301.33 3996 3332.67 3996C3372.67 3996 3395.6 3994.8 3423.73 3991.2C3432 3990.27 3451.47 3988.93 3467.07 3988.53C3492.4 3987.73 3497.33 3987.87 3514.67 3990.53C3525.33 3992.27 3539.73 3995.33 3546.67 3997.33C3553.6 3999.47 3564.13 4001.6 3570 4002C3579.87 4002.67 3602 4007.07 3618.27 4011.47C3623.33 4012.93 3627.33 4015.33 3632.93 4020.53C3642.27 4029.07 3646 4031.07 3659.2 4034.67C3664.67 4036.27 3677.87 4041.6 3688.27 4046.53C3707.07 4055.47 3707.47 4055.87 3718.8 4068.13C3730.27 4080.67 3732.27 4082 3747.33 4088.67C3753.2 4091.2 3758 4094.8 3765.33 4102.4C3770.93 4108 3779.47 4116.27 3784.53 4120.53C3789.47 4124.93 3797.73 4133.87 3802.8 4140.53C3807.87 4147.2 3814.4 4154.67 3817.33 4157.2C3823.33 4162.13 3826.27 4167.33 3830 4178.67C3832.67 4186.8 3838.8 4196.53 3842.93 4199.07C3848 4202.13 3856.93 4215.87 3865.6 4233.6C3872.93 4248.4 3874.53 4253.2 3876 4262.93C3877.33 4272.93 3878.4 4275.87 3883.87 4284.53C3888 4291.07 3891.2 4298.27 3893.2 4305.6C3894.93 4311.73 3898.4 4321.07 3900.93 4326.4C3905.07 4335.07 3905.6 4337.6 3906.27 4349.73C3906.53 4357.2 3907.6 4366.67 3908.67 4370.67C3912.8 4386.67 3913.73 4402.53 3913.87 4453.33C3914 4481.6 3914.53 4517.87 3915.2 4534C3915.87 4553.33 3915.73 4566.8 3914.93 4573.33C3914.13 4578.8 3912.53 4590.53 3911.33 4599.33C3910.13 4608 3907.6 4619.73 3905.73 4625.33C3903.87 4631.07 3902 4640.67 3901.33 4648.27C3900.53 4657.47 3899.33 4663.2 3896.93 4668.67C3894.93 4672.67 3892.8 4679.87 3892 4684.4C3889.73 4697.6 3887.87 4704.13 3883.6 4712.27C3880.67 4717.87 3879.2 4723.33 3877.87 4734.27C3876.8 4742.13 3875.07 4751.6 3874 4755.33C3872.93 4758.93 3871.47 4766.53 3870.67 4772C3868.93 4783.2 3864.93 4792.67 3858.13 4800.93C3855.33 4804.4 3852 4811.33 3849.33 4819.33C3846.67 4827.47 3843.2 4834.53 3839.87 4839.07C3834.67 4845.87 3832.4 4852 3829.6 4867.07C3827.6 4877.73 3808.27 4916.53 3800.8 4924.93C3793.47 4933.2 3791.33 4937.47 3788.53 4949.33C3786.93 4956.53 3784.67 4961.33 3779.47 4969.07C3775.6 4974.8 3769.87 4984.27 3766.67 4990.4C3763.6 4996.53 3757.6 5005.2 3753.33 5009.87C3747.87 5015.87 3745.33 5020 3744.13 5024.8C3739.6 5042 3738.27 5044.53 3729.87 5053.33C3724.13 5059.33 3719.33 5066.13 3714.67 5075.33C3710.8 5082.67 3705.73 5091.07 3703.2 5094C3700.67 5096.93 3694.13 5106 3688.67 5114.27C3683.33 5122.53 3675.87 5133.07 3672.27 5137.87C3668.53 5142.67 3664.27 5150 3662.67 5154.27C3658 5166.8 3654 5172.4 3645.6 5178.4C3635.87 5185.2 3632 5190.27 3625.33 5204.53C3621.6 5212.8 3617.73 5218.53 3610.93 5225.87C3605.73 5231.33 3598.27 5240.93 3594.13 5246.93C3590.13 5253.07 3583.73 5260.93 3580 5264.67C3576.13 5268.27 3568.13 5278 3562 5286.13C3555.87 5294.4 3547.2 5304.53 3542.67 5308.8C3538.13 5313.2 3531.2 5321.47 3527.33 5327.33C3523.47 5333.2 3514.93 5343.47 3508.4 5350.13C3501.87 5356.8 3493.6 5366 3490 5370.8C3482.13 5381.2 3453.07 5410.53 3442 5419.2C3437.6 5422.67 3428.67 5431.07 3422 5437.87C3413.47 5446.67 3406.8 5452 3399.2 5456.4C3393.33 5459.87 3385.87 5465.33 3382.53 5468.67C3379.33 5472 3368.93 5479.87 3359.33 5486.27C3349.87 5492.53 3339.6 5499.87 3336.67 5502.67C3333.73 5505.47 3324.93 5510.8 3317.07 5514.67C3304.67 5520.53 3301.73 5522.67 3295.07 5530.13C3286.67 5539.87 3283.6 5541.73 3269.47 5546.13C3264.13 5547.73 3256.27 5551.2 3252.13 5553.73C3248 5556.27 3240.8 5559.73 3236.13 5561.33C3222.8 5565.73 3218 5568.67 3211.2 5576.67C3204.27 5584.67 3196.27 5589.2 3184 5592C3180 5592.93 3174 5594.93 3170.67 5596.27C3167.33 5597.73 3158.27 5600.53 3150.53 5602.67C3133.87 5607.07 3131.73 5608 3124.67 5614.8C3118.27 5620.93 3110.27 5624.67 3099.07 5626.67C3094.4 5627.47 3086.93 5629.47 3082.4 5631.2C3077.73 5632.93 3069.73 5635.07 3064.53 5635.87C3053.87 5637.47 3044.4 5640.53 3041.33 5643.33C3037.73 5646.67 3030.53 5649.07 3017.33 5651.2C3006.93 5653.07 3003.2 5654.4 2996.67 5658.67C2986.27 5665.47 2984.13 5666.13 2961.73 5670.8C2948.67 5673.47 2938.93 5674.67 2930.4 5674.67C2915.07 5674.67 2884.67 5679.33 2865.87 5684.53C2862 5685.6 2854 5686.8 2847.87 5687.33C2841.73 5687.87 2831.87 5689.07 2826 5690.13C2820.13 5691.2 2811.47 5692 2806.67 5692C2801.87 5692 2790.8 5693.2 2782 5694.53C2746.93 5700.27 2716.53 5701.47 2701.73 5698C2697.2 5696.93 2686.53 5694.8 2678 5693.33C2669.6 5691.87 2659.87 5689.47 2656.4 5688.13C2652.8 5686.8 2643.73 5684.93 2636.13 5684.13C2628.53 5683.33 2618.27 5681.2 2613.47 5679.47C2608.67 5677.73 2600.13 5675.87 2594.67 5675.33C2589.2 5674.93 2578.4 5672.67 2570.8 5670.53C2563.2 5668.4 2556 5666.67 2554.67 5666.67C2548.93 5666.67 2538.27 5662.13 2531.87 5656.93C2521.33 5648.27 2518.93 5646.93 2505.73 5642.53C2499.07 5640.4 2491.07 5636.8 2488.27 5634.67C2485.33 5632.53 2477.33 5627.73 2470.4 5623.87C2460.27 5618.13 2455.07 5613.87 2442 5600.67C2433.2 5591.73 2423.07 5582.4 2419.33 5580C2415.73 5577.47 2409.73 5572.93 2406 5569.87C2402.4 5566.8 2396.27 5562.8 2392.4 5560.8C2381.33 5555.33 2376 5549.73 2371.07 5538.67C2362.13 5519.07 2354.13 5504.4 2343.2 5488C2334.13 5474.4 2331.73 5469.6 2330 5462.13C2326.93 5448.93 2324.93 5444.8 2317.33 5435.73C2310.13 5427.07 2306.8 5421.33 2304 5412.67C2303.07 5409.73 2300 5402.27 2297.2 5396C2294.4 5389.47 2291.2 5379.47 2290 5372.67C2288.4 5364.27 2286.27 5358 2282.93 5352C2279.6 5345.87 2277.2 5339.07 2275.2 5329.07C2272.67 5317.2 2271.33 5313.6 2266.8 5307.07C2262.27 5300.67 2260.53 5296.13 2256.53 5280.8C2254 5270.53 2251.6 5261.73 2251.33 5261.2C2250.93 5260.8 2250.4 5253.87 2249.87 5245.87C2249.47 5237.87 2248 5227.07 2246.67 5222C2245.2 5216.8 2242.93 5206 2241.33 5198C2239.87 5189.87 2237.73 5180.4 2236.67 5176.8C2235.6 5173.2 2234.67 5166 2234.67 5160.8C2234.67 5155.6 2233.87 5145.07 2232.67 5137.33C2231.6 5129.6 2230.13 5117.33 2229.47 5110C2228.67 5102.67 2227.2 5090.93 2226.13 5084C2221.33 5051.33 2220.4 5009.07 2221.47 4849.33C2221.6 4837.2 2221.47 4813.87 2221.2 4797.33C2220.8 4770.13 2220.93 4766.27 2223.6 4756C2225.2 4749.73 2227.07 4739.87 2228 4734C2228.8 4728.13 2230.4 4719.07 2231.47 4713.73C2232.53 4708.4 2233.33 4697.07 2233.33 4688.4C2233.33 4679.73 2234 4670.27 2234.67 4667.33C2235.33 4664.4 2236.53 4656.13 2237.33 4649.07C2238.13 4642 2240.27 4632 2242 4627.07C2243.73 4622.13 2245.73 4612 2246.67 4604.67C2247.47 4597.33 2248.93 4586.8 2250 4581.33C2251.07 4575.87 2252.53 4565.73 2253.33 4558.93C2254.13 4552.13 2255.87 4543.6 2257.33 4540C2258.8 4536.4 2260.53 4528.13 2261.33 4521.73C2262.93 4508.53 2264.8 4501.07 2267.47 4495.6C2268.53 4493.6 2270 4486.67 2270.8 4480.27C2271.47 4473.87 2273.87 4463.6 2276 4457.2C2278.4 4450.4 2280.8 4439.73 2281.87 4430.53C2284.27 4411.07 2290 4384.27 2294 4374C2295.6 4369.6 2297.33 4364.93 2297.73 4363.73C2298.13 4362.53 2298.67 4355.87 2298.8 4349.07C2298.93 4340.53 2299.87 4333.6 2302 4326.67C2303.73 4321.2 2306.13 4311.6 2307.33 4305.33C2308.53 4299.07 2310.93 4290.8 2312.8 4286.8C2314.53 4282.93 2317.2 4272.67 2318.67 4264C2320.13 4255.33 2322.27 4246 2323.47 4243.2C2324.93 4239.6 2325.73 4232.67 2326 4218.8C2326.53 4193.47 2329.6 4176.27 2336.67 4158C2340.8 4147.6 2342.67 4140.4 2343.33 4133.07C2344 4125.47 2345.33 4120.4 2348.67 4113.47C2351.33 4107.87 2354.13 4099.2 2355.47 4091.73C2356.67 4084.93 2359.33 4075.6 2361.47 4071.07C2363.6 4066.53 2366.13 4057.73 2367.2 4051.6C2368.4 4045.33 2370.53 4036.4 2372.13 4031.73C2374.13 4026 2375.47 4018.27 2376.13 4007.33C2376.67 3998.53 2378.67 3983.47 2380.67 3974C2383.87 3957.87 2385.73 3952.67 2393.87 3937.33C2395.6 3934 2398 3926 2399.33 3919.33C2400.53 3912.8 2403.33 3904 2405.33 3899.87C2407.87 3895.07 2410 3887.6 2411.33 3879.47C2412.4 3872.4 2414.53 3863.6 2416 3859.73C2417.47 3855.87 2419.6 3846.4 2420.67 3838.67C2421.87 3829.87 2424 3820.8 2426.53 3814.67C2428.67 3809.2 2431.47 3800.53 2432.8 3795.47C2434.4 3789.2 2437.2 3783.07 2441.6 3776.53C2449.73 3764.4 2451.33 3760.4 2453.2 3748.4C2454 3743.07 2455.87 3735.47 2457.33 3731.6C2458.8 3727.73 2461.2 3718.93 2462.67 3712.13C2465.73 3698.13 2467.47 3694.27 2474.67 3685.2C2478.27 3680.67 2480.53 3675.73 2482.67 3667.73C2485.87 3655.87 2488 3651.07 2492.67 3644.67C2497.87 3637.73 2499.87 3632.53 2501.47 3622.4C2502.27 3617.07 2504.93 3608.13 2507.33 3602.67C2509.73 3597.2 2513.07 3588.8 2514.67 3584C2518.67 3572.4 2518.93 3571.87 2527.6 3562.27C2536.27 3552.67 2539.2 3546.8 2542 3533.47C2543.07 3528.27 2545.47 3521.07 2547.2 3517.6C2548.93 3514.13 2551.47 3507.47 2552.8 3502.67C2556.53 3488.93 2558.27 3485.73 2566.67 3476.67C2576.13 3466.53 2577.73 3463.6 2581.33 3449.33C2582.93 3443.2 2585.6 3435.33 2587.47 3431.87C2589.2 3428.27 2591.6 3421.33 2592.8 3416.53C2595.73 3403.6 2599.6 3396.53 2606.93 3390.27C2614.8 3383.6 2618.8 3377.2 2623.33 3364C2625.2 3358.53 2629.07 3350.53 2631.87 3346.13C2634.67 3341.6 2639.33 3333.6 2642.13 3328.13C2645.47 3321.73 2651.07 3314.27 2658.8 3306C2668.93 3295.2 2670.8 3292.53 2672.67 3285.73C2676.67 3271.2 2678.93 3266.53 2685.47 3258.93C2689.2 3254.8 2695.07 3245.47 2698.8 3237.73C2702.53 3230 2708.27 3221.07 2711.73 3217.07C2734.8 3191.2 2747.47 3174.67 2754 3161.33C2761.33 3146.8 2763.2 3144.53 2775.2 3136.8C2785.73 3130 2797.73 3118.8 2804.67 3109.33C2811.2 3100.4 2838.67 3074.67 2848 3068.53C2859.07 3061.33 2862.13 3058.53 2872.27 3045.87C2882.93 3032.53 2886.53 3029.2 2895.73 3024.27C2900.27 3021.87 2907.07 3017.33 2910.93 3014.27C2914.8 3011.07 2924 3004.53 2931.33 2999.73C2938.67 2994.8 2948.67 2987.33 2953.6 2983.07C2958.4 2978.8 2968 2972.27 2974.93 2968.67C2983.2 2964.13 2990 2959.33 2995.47 2953.73C3004.8 2944.4 3007.47 2942.8 3020.8 2938.8C3028.93 2936.4 3031.6 2934.8 3038.13 2928.27C3046.67 2919.87 3054.67 2914.13 3064 2909.33C3067.33 2907.73 3074.13 2903.6 3079.2 2900.27C3085.73 2896 3091.33 2893.47 3098.53 2891.87C3111.33 2888.8 3117.33 2885.47 3127.33 2876C3136 2867.87 3141.73 2864.4 3153.33 2860.67C3157.33 2859.33 3163.6 2856.8 3167.07 2855.07C3170.67 2853.33 3178.13 2850.93 3183.73 2849.87C3197.87 2847.2 3200.8 2846.13 3208.53 2840C3213.07 2836.53 3219.2 2833.6 3226.67 2831.33C3241.33 2826.8 3246.13 2824.67 3252.13 2819.87C3258.27 2815.07 3264.4 2812.8 3279.6 2810C3286 2808.93 3293.07 2807.33 3295.33 2806.53C3297.47 2805.87 3302 2805.07 3305.33 2804.67C3308.67 2804.4 3315.2 2803.73 3320 2803.33C3325.07 2802.8 3332.4 2800.8 3337.6 2798.53C3342.4 2796.4 3347.87 2794.67 3349.6 2794.67C3351.33 2794.53 3357.2 2793.73 3362.8 2792.8C3371.07 2791.33 3374.8 2789.73 3381.6 2785.07C3391.2 2778.53 3395.73 2776.67 3416.8 2770.8C3426.8 2768 3434.67 2766.67 3440.8 2766.67C3452.27 2766.67 3458 2765.07 3467.73 2759.33C3471.87 2756.93 3479.2 2753.87 3483.87 2752.67C3495.73 2749.6 3500.93 2746.67 3508.27 2738.8C3515.73 2730.93 3518.8 2729.2 3533.33 2724.53C3539.33 2722.67 3548.13 2718.53 3553.07 2715.47C3558 2712.27 3565.6 2707.87 3570 2705.6C3577.2 2702 3584.4 2696.4 3595.33 2686.4C3597.47 2684.4 3603.47 2681.2 3608.53 2679.33C3622 2674.4 3627.47 2670.8 3637.73 2660.13C3645.47 2652.13 3648.4 2650.13 3658.67 2645.87C3665.33 2643.2 3673.87 2638.93 3677.6 2636.53C3681.33 2634 3688.4 2630.8 3693.2 2629.2C3706.4 2624.8 3713.33 2620.93 3720 2614C3729.47 2604.27 3731.2 2603.6 3768 2595.33C3772.8 2594.27 3780.8 2593.33 3785.73 2593.33C3791.87 2593.33 3798 2592.27 3804.4 2590.13C3809.73 2588.27 3819.6 2585.87 3826.53 2584.67C3834.13 2583.33 3842.93 2580.8 3848.53 2578.13C3853.73 2575.73 3863.07 2572.4 3869.33 2570.67C3875.6 2569.07 3884.27 2566.27 3888.67 2564.53C3896.93 2561.07 3909.33 2559.73 3951.33 2557.33C3962.4 2556.67 3975.07 2555.33 3979.6 2554.13C3992.4 2550.93 4023.2 2548.13 4038 2548.93C4047.73 2549.47 4053.87 2549.07 4060 2547.47C4064.8 2546.27 4074.27 2544.8 4081.07 2544C4088.8 2543.2 4096.67 2541.33 4101.6 2539.2C4106.13 2537.33 4115.2 2534.67 4121.73 2533.2C4134.53 2530.4 4135.33 2530 4146.67 2523.2C4151.73 2520.27 4157.6 2518.13 4165.33 2516.67C4171.6 2515.47 4180.4 2513.73 4184.93 2512.67C4189.33 2511.6 4200 2510.13 4208.4 2509.33C4216.67 2508.67 4226.27 2507.07 4229.47 2506C4232.67 2504.8 4242.27 2503.07 4250.67 2502C4259.07 2501.07 4269.6 2498.93 4274 2497.47C4278.4 2496 4286.4 2494.13 4291.87 2493.33C4297.2 2492.53 4305.07 2490.67 4309.2 2489.2C4338.93 2478.4 4356.53 2476.27 4422 2475.33C4488.53 2474.27 4517.47 2472.8 4533.33 2469.87C4550.93 2466.53 4596.4 2466.4 4615.33 2469.6C4646.13 2474.93 4668.4 2477.47 4676.13 2476.53C4687.87 2475.2 4725.33 2478.4 4740.67 2482C4748 2483.73 4758.93 2485.73 4764.93 2486.67C4771.07 2487.47 4779.47 2489.33 4783.6 2490.8C4796.8 2495.33 4835.87 2500.4 4851.33 2499.47C4873.2 2498.27 4895.73 2496 4911.33 2493.33C4919.47 2492 4931.33 2490.53 4938 2490C4944.53 2489.47 4952.93 2488.53 4956.67 2487.87C4964.27 2486.4 5018.93 2485.87 5021.07 2487.2C5021.87 2487.6 5032.93 2487.47 5045.6 2486.67L5068.67 2485.47L5080.67 2479.47C5087.47 2476 5097.73 2472.27 5104.4 2470.67C5110.8 2469.2 5119.73 2466.53 5124.13 2464.53C5128.67 2462.67 5137.2 2459.33 5143.33 2457.2C5156.67 2452.4 5159.87 2450.13 5170.4 2437.73C5174.93 2432.4 5184.67 2423.2 5192 2417.33C5199.33 2411.47 5206.67 2404.67 5208.53 2402.27C5212.8 2396.53 5230.13 2361.87 5231.87 2355.2C5232.67 2352.4 5233.6 2347.6 5234 2344.67C5234.93 2337.73 5238.4 2328.27 5241.6 2323.73C5245.87 2317.6 5247.87 2311.33 5250 2297.73C5251.07 2290.53 5252.93 2281.33 5254 2277.33C5256.4 2268.53 5256.67 2244.13 5254.67 2219.33C5253.87 2210 5253.2 2192.4 5253.2 2180.13C5253.2 2168 5253.33 2120.53 5253.33 2074.67C5253.33 2008 5253.73 1988.67 5255.33 1978C5263.73 1920.93 5265.2 1897.73 5261.87 1869.6C5261.2 1862.93 5264.53 1837.07 5267.33 1827.33C5268.4 1823.6 5270.8 1818.27 5272.53 1815.33C5279.47 1804 5281.2 1800.13 5283.87 1789.6C5285.87 1781.47 5288.27 1776.27 5293.2 1768.93C5298.4 1761.33 5300.4 1756.93 5302 1749.2C5303.2 1743.73 5305.87 1733.87 5308 1727.33C5310.13 1720.67 5312.8 1711.2 5314 1706.13C5316.4 1695.33 5319.87 1689.33 5326.27 1684.4C5332.4 1679.73 5337.33 1672.13 5342.67 1659.33C5345.07 1653.47 5349.6 1644.93 5352.8 1640.27C5356 1635.73 5360.67 1627.47 5363.33 1622C5366.8 1614.8 5371.2 1608.8 5379.33 1600.13C5388.13 1591.07 5392.13 1585.47 5396.53 1576.4C5402.27 1564.93 5404.13 1562.53 5413.87 1553.47C5416.53 1551.07 5421.47 1545.07 5424.93 1540.13C5433.73 1527.73 5439.2 1521.73 5449.07 1513.87C5453.73 1510.13 5460.27 1503.47 5463.73 1499.2C5470.93 1490 5471.2 1489.73 5488.27 1476.67C5495.33 1471.2 5503.33 1464.13 5506 1460.8C5511.47 1454.13 5515.6 1451.33 5527.33 1446.67C5533.87 1444 5537.87 1440.93 5549.33 1429.33C5561.33 1417.07 5565.07 1414.27 5575.33 1409.07C5582 1405.87 5590.4 1401.6 5594 1399.73C5597.73 1397.73 5604.53 1395.2 5609.33 1394C5620.8 1391.07 5623.07 1389.73 5634.27 1379.73C5642 1372.67 5645.33 1370.67 5652.27 1368.8C5656.93 1367.47 5666.4 1364.67 5673.33 1362.67C5680.27 1360.53 5691.33 1358.27 5697.87 1357.33C5704.4 1356.53 5713.2 1354.4 5717.47 1352.67C5722.53 1350.4 5730.93 1348.67 5742.53 1347.33C5752 1346.27 5761.47 1344.67 5763.33 1344C5765.33 1343.2 5773.6 1342 5781.73 1341.33C5790 1340.53 5800.53 1338.93 5805.33 1337.87C5818.67 1334.67 5863.6 1333.87 5881.2 1336.53C5906 1340.27 5930 1341.6 5948 1340.13C5974.53 1338 6001.87 1341.07 6019.2 1348C6024.67 1350.13 6032.27 1352.67 6036.13 1353.47C6040.13 1354.27 6047.2 1356.13 6052 1357.6C6058.93 1359.73 6064.13 1360.27 6078.53 1360.13C6107.2 1359.87 6133.07 1365.33 6143.73 1373.87C6149.87 1378.8 6155.33 1381.07 6169.73 1384.67C6174.67 1386 6180.93 1388.53 6183.73 1390.4C6191.6 1395.73 6198.53 1398.27 6210 1400C6215.87 1400.8 6223.07 1402.67 6226.13 1404C6229.07 1405.2 6237.73 1408.27 6245.2 1410.53C6257.87 1414.53 6259.6 1415.47 6267.87 1423.07C6278.8 1433.47 6283.2 1436.13 6296.8 1440.53C6304.8 1443.2 6310.27 1446.13 6318.13 1452.13C6323.87 1456.67 6333.47 1463.47 6339.33 1467.33C6345.2 1471.2 6351.87 1476.27 6354 1478.67C6356.27 1481.07 6362.67 1486.53 6368.27 1490.8C6377.33 1497.73 6399.33 1517.87 6415.33 1534C6426.93 1545.6 6443.73 1565.47 6452 1577.2C6456.8 1583.87 6463.47 1593.07 6466.93 1597.47C6470.4 1601.87 6474.13 1608.27 6475.47 1611.73C6481.73 1628.93 6484.4 1633.47 6492.93 1640.93C6502.93 1649.73 6504.27 1651.87 6508 1666.67C6509.6 1672.8 6511.87 1679.87 6513.2 1682.53C6514.53 1685.2 6517.07 1693.07 6518.67 1700C6522.13 1714.53 6525.07 1720.8 6532 1729.33C6538 1736.67 6540.8 1743.33 6542.8 1754.67C6543.6 1759.47 6545.07 1765.47 6546.27 1768C6547.33 1770.53 6549.07 1780.8 6550 1790.67C6551.07 1800.67 6552.8 1810.8 6553.73 1813.33C6554.8 1815.87 6556.67 1824.27 6558 1832C6559.2 1839.73 6561.47 1848.67 6562.93 1852C6566.67 1860.27 6567.6 1863.87 6570 1877.6C6571.07 1884.13 6573.47 1892.93 6575.33 1897.2C6578.4 1904.53 6580 1912.27 6582 1928.67C6582.53 1932.27 6583.73 1938.8 6584.8 1942.93C6586.13 1948.53 6587.07 1966 6588 2006.27C6588.8 2036.8 6589.07 2064.67 6588.8 2068C6588.4 2071.33 6587.73 2079.73 6587.33 2086.67C6586.8 2093.6 6585.33 2105.07 6584 2112C6582.67 2118.93 6581.07 2128.8 6580.67 2134C6580.13 2139.07 6578.27 2147.07 6576.4 2151.73C6574.67 2156.27 6572 2166.53 6570.53 2174.4C6569.2 2182.27 6566.4 2192.13 6564.53 2196.4C6562.67 2200.67 6560 2210.27 6558.67 2217.73C6557.33 2225.2 6555.33 2234 6554.13 2237.2C6552.93 2240.4 6551.47 2250.27 6550.67 2259.2C6549.6 2273.2 6547.6 2283.6 6541.07 2309.07C6540.27 2312.27 6536.67 2318.8 6533.2 2323.47C6526.27 2332.93 6523.33 2339.73 6517.87 2358.93C6513.33 2375.07 6513.73 2389.2 6519.2 2404C6521.33 2409.47 6525.87 2424.8 6529.47 2438C6536.67 2464.67 6537.47 2473.87 6534 2490C6532.93 2495.07 6531.07 2505.2 6529.87 2512.27C6528.8 2519.47 6525.87 2530.13 6523.33 2536.4C6520.8 2542.8 6517.87 2553.33 6516.67 2560.8C6515.6 2568.13 6512.67 2580.53 6510.4 2588.67C6502.93 2615.07 6505.2 2626.4 6520.93 2641.47C6529.73 2650 6532.93 2651.73 6546 2656C6558.27 2660 6561.87 2661.87 6568.53 2668C6575.87 2674.67 6579.87 2676.53 6594 2679.87C6600.53 2681.47 6608.4 2684.13 6611.33 2685.87C6614.27 2687.6 6620.93 2690.27 6626 2692C6638.8 2696.13 6643.73 2698.8 6652.13 2706.13C6660.8 2713.6 6665.2 2715.6 6678.4 2718.13C6683.87 2719.2 6691.73 2721.47 6695.87 2723.33C6700 2725.07 6708.4 2728.13 6714.53 2730.13C6724.4 2733.2 6726.8 2734.53 6734.67 2742C6745.73 2752.4 6749.2 2754.27 6761.6 2756C6766.93 2756.8 6776.8 2759.2 6783.33 2761.33C6790 2763.47 6799.73 2766.53 6805.2 2768C6813.47 2770.4 6816.27 2772 6822.53 2778C6831.07 2786 6836.67 2789.07 6850 2793.07C6855.87 2794.8 6861.33 2797.6 6864.67 2800.4C6872 2806.67 6876.8 2808.8 6885.33 2810C6897.47 2811.6 6903.2 2814 6912.13 2820.93C6921.47 2828.13 6956.8 2846.13 6970.67 2850.53C6982.53 2854.4 6986.93 2857.33 6993.07 2865.73C7000.27 2875.47 7005.2 2879.33 7018 2885.47C7026.4 2889.33 7030.93 2892.67 7038 2900C7043.2 2905.33 7053.33 2914 7060.67 2919.33C7068 2924.8 7076.93 2932.13 7080.53 2935.87C7084 2939.6 7094.4 2948.67 7103.47 2956.13C7112.53 2963.6 7120 2970.13 7120 2970.67C7120 2971.47 7145.6 2995.73 7182 3029.33C7189.07 3035.87 7198.8 3046.53 7208.93 3058.67C7213.47 3064.13 7223.87 3074.4 7231.87 3081.33C7240 3088.27 7251.33 3099.73 7256.93 3106.67C7262.67 3113.6 7272.67 3125.07 7279.47 3132C7286.13 3138.93 7296.13 3150.4 7301.6 3157.33C7307.2 3164.27 7314.8 3172.53 7318.53 3175.73C7322.27 3178.8 7329.73 3186.93 7335.2 3193.73C7340.67 3200.53 7350.27 3211.07 7356.67 3217.2C7362.93 3223.33 7371.07 3232.67 7374.67 3237.87C7378.13 3243.07 7386.67 3252.67 7393.6 3259.33C7402.8 3268.13 7408.13 3274.53 7413.47 3283.33C7417.87 3290.53 7424.27 3298.8 7429.6 3304C7436 3310.13 7439.6 3314.93 7442 3320.67C7448 3334.27 7449.6 3336.67 7461.6 3349.07C7470 3357.73 7474.67 3363.87 7478.53 3371.47C7481.47 3377.33 7487.47 3386.13 7492 3391.33C7496.53 3396.4 7502.27 3404.67 7504.8 3409.47C7507.33 3414.27 7513.87 3423.2 7519.33 3429.33C7526.93 3438 7530.13 3442.8 7533.6 3451.2C7537.33 3460.4 7539.47 3463.6 7548.4 3472.53C7561.33 3485.73 7562.93 3487.87 7566.67 3498.67C7570.4 3509.33 7571.2 3510.93 7576.67 3518.13C7579.07 3521.2 7582.4 3528 7584 3532.93C7588.53 3546.8 7592.53 3552.67 7601.2 3558.67C7613.33 3566.8 7613.47 3566.93 7622.4 3594C7633.2 3626.4 7637.33 3634.8 7646.93 3644.67C7652.4 3650.27 7656.27 3657.47 7658 3665.33C7659.73 3673.47 7663.47 3679.07 7674.4 3690.13C7682.4 3698.13 7686.53 3703.73 7690.67 3711.87C7693.87 3718.27 7699.33 3726.27 7703.73 3731.07C7708 3735.6 7713.2 3741.73 7715.33 3744.67C7723.2 3755.47 7733.73 3766.8 7741.33 3772.8C7746 3776.4 7753.6 3784.8 7759.87 3793.33C7765.73 3801.2 7774.4 3811.07 7779.2 3815.33C7784.8 3820.27 7791.47 3828.27 7797.87 3837.87C7803.73 3846.53 7810.93 3855.33 7815.33 3859.07C7821.33 3864.4 7823.87 3867.87 7828.53 3877.87C7833.73 3889.07 7835.33 3891.07 7847.33 3902C7859.07 3912.93 7860.93 3915.07 7866 3926C7869.2 3932.53 7873.87 3941.47 7876.4 3945.87C7879.07 3950.13 7882.27 3956.8 7883.47 3960.53C7886.93 3971.2 7890.53 3977.33 7897.2 3984.4C7905.47 3993.07 7906.4 3995.07 7908.8 4010.27C7909.87 4017.47 7911.33 4026 7912.13 4029.33C7915.07 4044 7911.73 4094.93 7905.47 4130.13C7902.53 4146.67 7902.67 4154.4 7906.67 4171.6C7910.27 4186.67 7911.87 4190 7920.27 4200C7924.4 4204.8 7930.53 4214.4 7934 4221.33C7937.47 4228.27 7942 4236.13 7944 4238.67C7949.73 4246 7952 4251.33 7954.13 4262.13C7956.4 4274.67 7956.8 4275.2 7968 4287.6C7974 4294.13 7979.33 4301.87 7983.47 4309.87C7986.93 4316.53 7991.07 4323.73 7992.67 4326C7996.93 4331.73 7998.4 4335.07 8002.8 4347.07C8006.93 4358.53 8012.93 4366.93 8021.2 4372.93C8028 4377.73 8031.07 4382.4 8036.53 4396.27C8038.93 4402.67 8043.07 4410.4 8045.73 4413.6C8048.27 4416.8 8052.53 4422.93 8055.07 4427.33C8060 4435.73 8068.53 4447.47 8076.53 4456.67C8079.87 4460.53 8082 4465.07 8084 4472.53C8087.2 4484.53 8090.53 4491.6 8094.67 4495.33C8100.93 4500.8 8108.53 4512.8 8112.93 4523.87C8115.47 4530.13 8118.93 4538 8120.67 4541.33C8122.27 4544.67 8124.4 4550.93 8125.33 4555.33C8126.13 4559.73 8127.47 4566.13 8128.27 4569.6C8128.93 4572.93 8131.6 4578.93 8134.13 4582.93C8138.8 4590.13 8141.33 4596.93 8141.33 4602.4C8141.33 4608.53 8145.47 4619.87 8149.47 4624.93C8156 4633.07 8159.47 4641.07 8162.67 4655.33C8165.6 4668.13 8165.73 4671.6 8166.13 4750.67C8166.67 4852 8165.87 4863.2 8156.8 4882C8153.6 4888.67 8149.87 4897.73 8148.67 4902C8145.73 4911.87 8141.6 4920.4 8136 4927.33C8131.07 4933.6 8129.07 4938 8126.67 4948C8124.4 4958 8122.13 4962 8114 4971.33C8110.13 4975.73 8103.73 4984.4 8099.73 4990.67C8094.8 4998.4 8088.53 5005.6 8080.67 5012.67C8074.27 5018.53 8064.53 5028.53 8059.07 5035.07C8053.33 5041.73 8045.6 5049.07 8040.93 5052.27C8031.6 5058.53 8023.6 5064.8 8014.27 5072.93C8009.73 5076.93 8004.93 5079.47 7996.93 5082C7984.27 5086.13 7978 5089.87 7969.73 5098.13C7962 5106 7955.6 5109.87 7946 5112.53C7941.6 5113.87 7934.53 5116.67 7930.4 5118.67C7926.27 5120.8 7917.73 5123.73 7911.33 5125.2C7897.73 5128.53 7896.4 5129.07 7886.27 5136.93C7879.07 5142.53 7863.07 5150.53 7858.93 5150.67C7857.87 5150.67 7852.27 5152.8 7846.27 5155.33C7838 5158.8 7832.13 5160.27 7822.4 5161.2C7810 5162.4 7804 5164.4 7797.6 5169.47C7795.87 5170.8 7789.6 5173.47 7783.6 5175.47C7769.73 5180 7764.8 5182.67 7757.33 5189.33C7751.73 5194.4 7738.53 5200 7732 5200C7730.67 5200 7724 5201.73 7717.2 5203.87C7710.27 5206 7701.33 5208.13 7697.33 5208.67C7687.87 5210 7682.4 5212 7672.93 5217.73C7667.73 5220.93 7660.93 5223.47 7652.53 5225.33C7643.33 5227.47 7638.4 5229.33 7634.27 5232.53C7624 5240.13 7621.33 5241.47 7607.87 5244.8C7600.4 5246.67 7591.6 5249.47 7588.13 5251.2C7584.8 5252.93 7576 5256.13 7568.53 5258.53C7560.53 5261.07 7552.13 5264.8 7547.6 5268C7538.53 5274.13 7534.4 5275.47 7522.27 5276.67C7515.33 5277.33 7510.8 5278.8 7503.2 5282.8C7497.6 5285.73 7488.27 5289.2 7481.6 5290.8C7475.2 5292.27 7466.13 5294.67 7461.33 5296C7456.53 5297.47 7446.67 5299.2 7439.33 5299.87C7429.87 5300.8 7423.87 5302.13 7418.4 5304.67C7414.27 5306.53 7405.6 5309.07 7399.07 5310.13C7387.87 5312 7385.2 5313.07 7372.67 5319.73C7369.6 5321.33 7362.4 5323.2 7356 5324C7347.73 5325.07 7341.73 5326.8 7333.6 5330.67C7316.13 5338.93 7306.53 5340.53 7273.33 5340.67C7246.67 5340.8 7217.73 5343.33 7206 5346.53C7203.87 5347.07 7197.2 5347.73 7191.33 5347.87C7177.73 5348.13 7170.13 5349.07 7162.67 5351.47C7159.33 5352.4 7150.67 5354.53 7143.33 5356C7136.13 5357.47 7126.93 5360.13 7123.2 5361.87C7115.73 5365.33 7107.07 5367.33 7094 5368.67C7089.6 5369.07 7083.07 5370.27 7079.33 5371.33C7075.73 5372.4 7069.07 5373.47 7064.67 5374C7060.27 5374.4 7054 5375.07 7050.67 5375.47C7047.33 5375.73 7041.2 5377.87 7036.93 5380C7032.67 5382.27 7023.2 5385.73 7015.87 5387.87C7008.4 5390 7000.27 5393.33 6997.6 5395.33C6994.8 5397.2 6990.27 5400.53 6987.33 5402.67C6984.4 5404.8 6978.13 5407.47 6973.33 5408.8C6968.53 5410 6959.33 5412.67 6952.67 5414.67C6945.87 5416.8 6935.73 5418.67 6929.33 5419.07C6919.87 5419.73 6916.27 5420.8 6907.33 5425.07C6901.47 5427.87 6891.47 5431.6 6884.93 5433.33C6876.93 5435.47 6870.53 5438.13 6864.4 5442.27C6859.6 5445.33 6853.47 5448.53 6850.8 5449.2C6838.67 5452.13 6824 5455.87 6817.33 5457.73C6813.33 5458.93 6806.13 5460.27 6801.33 5460.67C6796.53 5461.2 6788.53 5463.07 6783.33 5464.93C6778.27 5466.8 6768 5469.47 6760.67 5470.8C6753.33 5472.13 6743.47 5474.53 6738.67 5475.87C6729.47 5478.67 6710.13 5480.93 6679.33 5482.67C6662.53 5483.6 6646 5485.6 6607.87 5491.33C6590.4 5494 6576.53 5493.87 6557.47 5490.67C6538.8 5487.47 6539.47 5487.73 6527.33 5481.87C6522.27 5479.33 6512.93 5476.27 6506.67 5474.93C6500.4 5473.47 6491.2 5470.53 6486 5468.27C6474.93 5463.47 6473.2 5463.07 6459.6 5462C6452.4 5461.47 6443.47 5459.33 6431.2 5455.33C6409.73 5448.27 6409.73 5448.13 6400.8 5440.13C6390.53 5430.8 6383.33 5426.27 6370.67 5421.33C6364.4 5418.8 6356.4 5414.93 6352.67 5412.53C6339.73 5404.4 6331.6 5400.93 6323.2 5400.27C6315.6 5399.73 6314.8 5399.87 6310.27 5403.87C6307.6 5406.27 6302.93 5411.87 6299.87 5416.4C6296.8 5420.93 6289.33 5429.47 6283.33 5435.33C6272.53 5445.6 6272.13 5446.4 6268.8 5457.33C6266.93 5463.6 6263.87 5471.07 6262 5474C6255.2 5484.93 6253.47 5490 6252.67 5501.33C6252 5510.27 6250.67 5515.07 6246.8 5524C6244 5530.27 6240.67 5538 6239.33 5541.33C6236.27 5548.8 6229.6 5559.33 6224.4 5565.47C6218.4 5572.27 6216.53 5576.8 6214.13 5589.6C6212.93 5595.87 6210.53 5604.4 6208.67 5608.4C6206.93 5612.53 6204.53 5619.6 6203.33 5624.13C6200.4 5635.07 6197.33 5640.93 6191.47 5646.67C6184.27 5653.47 6180.53 5660.53 6176.93 5674C6175.07 5680.67 6172.53 5688.53 6170.93 5691.33C6169.47 5694.27 6166.93 5701.2 6165.33 5706.67C6161.33 5720.27 6158.67 5724.93 6150.67 5732.67C6141.6 5741.33 6137.87 5747.47 6133.87 5759.73C6132 5765.2 6128.53 5773.47 6126 5777.87C6123.6 5782.4 6120.53 5789.87 6119.33 5794.53C6116.4 5806.13 6113.33 5811.6 6106 5818.67C6098.67 5825.73 6094.8 5832.93 6090.53 5846.67C6088.93 5852.13 6086 5859.6 6084 5863.33C6082 5866.93 6079.07 5874.27 6077.6 5879.33C6074.53 5889.6 6068.4 5899.87 6063.33 5903.2C6057.73 5906.93 6052.4 5916.27 6048.13 5930.4C6045.73 5937.87 6042.67 5946 6041.33 5948.4C6040 5950.8 6037.47 5957.47 6035.87 5963.33C6032.13 5977.2 6030.4 5980.53 6022 5989.33C6013.87 5998 6010.8 6003.47 6006.67 6017.33C6005.07 6022.8 6002.27 6030.13 6000.53 6033.6C5998.67 6037.2 5996.13 6045.6 5994.8 6052.53C5992.13 6065.87 5990.53 6069.47 5983.33 6078.4C5980.4 6082 5977.6 6087.87 5975.87 6093.73C5971.73 6107.87 5970.67 6110.53 5965.2 6119.07C5961.2 6125.47 5960 6128.67 5959.33 6135.73C5957.87 6151.47 5957.2 6156.53 5956 6161.33C5954.27 6168.13 5953.6 6172.4 5952.53 6183.07C5952 6189.07 5950 6196.93 5947.2 6204C5944.8 6210.27 5941.73 6220.13 5940.67 6226C5939.33 6232.53 5936.67 6240 5933.73 6245.07C5931.07 6249.87 5927.73 6259.2 5925.87 6266.8C5924 6274.27 5920.93 6283.6 5919.07 6287.73C5916.53 6293.47 5915.47 6298.8 5914.4 6310.53C5913.73 6319.07 5912.13 6329.6 5910.8 6334C5909.47 6338.4 5907.87 6344.93 5907.47 6348.4C5905.87 6358.67 5903.07 6365.47 5896.4 6373.73C5891.6 6379.87 5889.33 6384.67 5885.87 6395.47C5883.47 6403.2 5879.73 6412.27 5877.6 6415.73C5873.07 6422.8 5871.47 6428.13 5869.47 6443.2C5868.67 6448.93 5866.8 6456.4 5865.2 6459.87C5863.73 6463.2 5860.8 6471.6 5858.8 6478.4C5855.73 6488.27 5853.6 6492.53 5847.6 6500.4C5839.6 6510.8 5837.33 6515.73 5833.87 6530C5832.67 6535.07 5830.53 6541.6 5829.2 6544.27C5827.73 6547.07 5825.73 6553.33 5824.53 6558.27C5820.8 6574.8 5818.93 6579.2 5812.53 6585.47C5805.6 6592.13 5801.73 6599.2 5797.47 6612.53C5795.87 6617.6 5792.13 6626 5789.33 6631.2C5786.53 6636.4 5783.47 6644 5782.67 6648C5779.87 6659.6 5777.87 6663.47 5768.8 6673.2C5761.47 6681.33 5759.87 6683.87 5756.67 6694.27C5754.53 6700.67 5750.67 6710.53 5748 6716C5745.2 6721.47 5742 6729.6 5740.67 6734C5737.87 6744 5735.73 6748.27 5729.33 6756.67C5720.67 6767.87 5719.33 6772.93 5719.33 6792.67C5719.33 6813.6 5721.33 6823.47 5728.4 6837.07C5735.2 6850.4 5737.07 6855.6 5738.13 6864.93C5738.53 6869.2 5740.13 6877.2 5741.6 6882.67C5742.93 6888.13 5744.4 6897.2 5744.8 6902.67C5745.87 6916 5747.47 6922.13 5752.13 6929.6C5754.13 6933.07 5756.93 6940 5758.13 6944.93C5761.33 6958.13 5763.73 6964.67 5767.33 6969.6C5773.33 6977.87 5774.67 6981.33 5777.47 6994.8C5778.93 7002.13 5780.93 7010.4 5782 7013.07C5783.07 7015.87 5784.93 7024.27 5786 7032C5787.6 7042.67 5789.33 7048.67 5793.33 7057.33C5796.27 7063.6 5799.6 7073.07 5800.67 7078.27C5802.67 7088.4 5804.8 7093.73 5809.47 7100.93C5811.2 7103.6 5812.8 7109.87 5813.87 7117.73C5815.6 7129.47 5818.13 7136.8 5822 7141.33C5829.33 7149.73 5834.8 7169.33 5834.8 7187.2C5834.93 7199.2 5834 7204.67 5829.73 7220.93C5827.87 7228.53 5827.73 7233.47 5829.2 7271.6C5830.13 7294.93 5831.33 7319.07 5832.13 7325.33C5833.87 7339.87 5833.73 7378.53 5832 7388C5831.2 7392 5829.73 7404 5828.67 7414.67C5826.67 7435.6 5819.6 7466.27 5815.2 7473.07C5813.87 7475.2 5809.87 7480.67 5806.53 7485.07C5801.73 7491.33 5799.73 7495.73 5797.47 7504.27C5795.87 7510.4 5792.4 7519.47 5790 7524.67C5787.47 7529.73 5784.4 7537.87 5783.2 7542.67C5780.13 7554.8 5778.27 7558 5767.87 7568.93C5760.53 7576.4 5757.33 7581.2 5752.67 7591.33C5748.4 7600.4 5744.27 7606.8 5738.93 7612.67C5734.8 7617.2 5727.73 7626 5723.33 7632.13C5719.07 7638.27 5708.27 7650.53 5699.33 7659.33C5690.53 7668.13 5680.93 7678.53 5678 7682.53C5674.93 7686.53 5665.6 7695.07 5656.53 7702.13C5647.73 7708.93 5637.73 7718 5634.27 7722.27C5630.93 7726.53 5622.93 7734.67 5616.67 7740.53C5610.27 7746.27 5600.4 7757.2 5594.53 7764.67C5588.8 7772.13 5582.67 7779.2 5581.07 7780.27C5579.33 7781.33 5571.73 7788.8 5564 7796.8C5545.33 7816.13 5536.27 7825.07 5522 7838.8C5515.33 7845.2 5507.87 7852.67 5505.2 7855.47C5502.4 7858.4 5494.53 7866 5487.47 7872.4C5480.4 7878.8 5471.87 7887.87 5468.4 7892.4C5461.47 7901.47 5414 7951.33 5381.33 7984C5369.87 7995.47 5357.73 8008.93 5354.27 8014.13C5350.8 8019.33 5342.8 8028.67 5336.53 8034.8C5327.6 8043.6 5324 8048.53 5319.07 8058C5314.8 8066.4 5310 8073.07 5303.2 8080.13C5296.27 8087.33 5291.87 8093.6 5287.6 8102.27C5284.27 8108.8 5279.33 8117.07 5276.53 8120.8C5273.73 8124.4 5269.33 8132.13 5266.67 8138.13C5260.67 8151.87 5259.07 8154.13 5248 8166C5239.73 8174.93 5238.67 8176.93 5235.2 8188.13C5231.73 8199.2 5230.53 8201.33 5222.4 8210.27C5217.6 8215.6 5211.07 8224.67 5208 8230.4C5204.93 8236 5199.33 8244.53 5195.47 8249.33C5191.6 8254.13 5186.13 8262.13 5183.33 8267.33C5179.73 8273.87 5173.47 8281.6 5162.67 8292.67C5154 8301.47 5145.2 8311.6 5142.93 8315.07C5140.67 8318.67 5133.87 8326.8 5127.73 8333.2C5121.6 8339.6 5111.87 8350.27 5106 8356.8C5100.13 8363.47 5092.8 8370.93 5089.6 8373.47C5086.4 8376 5079.87 8382.8 5075.07 8388.67C5070.27 8394.53 5057.47 8408.13 5046.67 8418.8C5031.87 8433.33 5024.4 8439.73 5016.53 8444.27C5008.4 8448.93 5002.93 8453.6 4992.67 8464.8C4984.13 8474 4976 8481.33 4970 8485.07C4964.93 8488.4 4957.33 8494.13 4953.33 8498C4949.33 8501.87 4941.87 8508 4936.67 8511.87C4925.33 8520.13 4881.47 8561.73 4862.53 8582.13C4859.2 8585.73 4852.53 8592.13 4847.6 8596.4C4842.8 8600.67 4834.67 8609.6 4829.47 8616.4C4824.4 8623.2 4816.4 8631.73 4811.73 8635.47C4807.07 8639.2 4798.53 8648.27 4792.67 8655.47C4786.8 8662.8 4776.4 8674.67 4769.33 8682C4762.4 8689.33 4751.2 8701.47 4744.67 8709.07C4738 8716.67 4729.07 8726.93 4724.67 8732C4720.27 8737.07 4710.4 8747.07 4702.8 8754.27C4695.07 8761.47 4675.33 8780.53 4658.8 8796.8C4642.27 8812.93 4619.73 8834.53 4608.67 8844.8C4597.73 8854.93 4582.13 8869.6 4574 8877.33C4566 8885.07 4554 8896.13 4547.47 8902C4540.93 8907.87 4532.8 8915.6 4529.47 8919.2C4526.13 8922.8 4518 8929.73 4511.33 8934.8C4496.4 8946.13 4495.87 8946.53 4485.33 8958.53C4480.53 8964 4473.73 8970.8 4470 8973.73C4456.27 8984.4 4451.6 8988.93 4444.27 8998C4435.47 9008.8 4434 9010.13 4423.33 9017.6C4418.93 9020.67 4408.4 9030.13 4400 9038.67C4391.6 9047.33 4380.93 9056.8 4376.4 9059.73C4368.53 9065.07 4365.07 9068.53 4352.93 9084C4349.87 9088 4344 9093.87 4340 9096.93C4324.67 9109.07 4320.8 9112.8 4314 9121.87C4306.67 9131.87 4299.73 9138.67 4288.27 9147.33C4284.27 9150.27 4276.93 9158.13 4272 9164.8C4266.93 9171.6 4258.8 9180.53 4253.73 9184.8C4240.8 9196.13 4237.2 9199.87 4228.93 9211.73C4224.93 9217.47 4218 9225.2 4213.73 9228.8C4201.47 9239.2 4199.47 9241.33 4189.33 9254.67C4184 9261.6 4176.4 9270.27 4172.4 9273.87C4168.4 9277.47 4160.67 9286.93 4155.07 9294.93C4149.6 9302.93 4142.4 9312.53 4139.07 9316.4C4135.87 9320.27 4130.4 9328.53 4127.07 9335.07C4122.67 9343.6 4119.2 9348.27 4114.27 9352.4C4102.13 9362.53 4094.8 9371.2 4089.07 9381.87C4085.07 9389.2 4080.4 9395.33 4073.73 9401.73C4067.33 9408 4061.73 9415.07 4057.2 9422.93C4053.47 9429.33 4047.73 9437.87 4044.4 9441.73C4041.07 9445.47 4036 9453.47 4033.2 9459.47C4027.47 9471.33 4023.2 9477.6 4014.67 9486.67C4007.6 9494 4004.53 9500.53 4002.67 9512.53C4001.87 9517.47 3999.73 9524.53 3998 9528C3996.27 9531.6 3993.47 9539.07 3992 9544.93C3988.27 9558.67 3986.4 9562.4 3978.53 9571.33C3970.53 9580.4 3969.2 9583.2 3965.33 9596C3963.73 9601.47 3960.4 9609.87 3957.87 9614.67C3955.47 9619.47 3951.87 9628.4 3950 9634.4C3946.8 9644.4 3945.47 9646.67 3937.2 9655.6C3928 9665.47 3923.33 9673.07 3920 9683.33C3918 9689.6 3915.6 9693.6 3910.13 9700C3908 9702.53 3901.73 9711.47 3896.4 9719.73C3890.93 9728 3884.27 9737.33 3881.47 9740.4C3873.6 9748.93 3872.4 9752.53 3871.47 9768.67C3870.93 9776.67 3870 9787.2 3869.33 9792C3868.8 9796.8 3868.13 9804.53 3868.13 9809.33C3868 9814.13 3867.47 9828 3866.8 9840.13C3865.6 9859.73 3865.07 9863.33 3861.6 9872.13C3859.47 9877.6 3856.93 9885.2 3856.13 9889.2C3854.4 9897.47 3850.4 9906 3843.47 9915.87C3840.93 9919.73 3837.73 9926.27 3836.53 9930.4C3835.47 9934.53 3832.4 9944.53 3829.87 9952.67C3827.33 9960.67 3824.13 9972.4 3822.67 9978.67C3820.8 9986 3818.13 9993.07 3814.53 9998.93C3807.87 10009.9 3806.13 10015.3 3803.33 10035.1C3800.93 10051.9 3801.47 10058.5 3806.8 10080C3808.13 10085.5 3809.87 10096.8 3810.53 10104.9C3811.33 10114.1 3812.93 10122.1 3814.4 10125.6C3815.87 10128.8 3817.33 10136.1 3817.87 10142C3819.07 10156 3820.53 10161.1 3825.33 10168.1C3827.47 10171.3 3830.53 10177.6 3832 10182C3835.33 10192 3838.53 10214.5 3837.87 10223.3C3837.6 10226.9 3837.07 10251.3 3836.67 10277.3C3836.13 10324.4 3835.47 10331.6 3830 10363.2C3828.8 10369.9 3826.4 10376.5 3823.47 10382C3820.93 10386.7 3817.33 10395.7 3815.33 10402.3C3812.53 10411.6 3810.13 10416.4 3804 10424.7C3796.8 10434.4 3794.53 10439.3 3790.67 10454C3789.07 10460.1 3787.73 10462.5 3770.93 10487.6C3759.2 10505.1 3757.87 10506.5 3744.93 10516.1C3717.47 10536.7 3714.53 10538.1 3696 10540.8C3689.07 10541.9 3680 10543.6 3676 10544.7C3671.2 10545.9 3664.13 10546.4 3655.33 10546.1C3640 10545.6 3605.07 10541.1 3593.73 10538.1C3589.47 10537.1 3580.27 10535.7 3573.33 10535.3C3566.4 10534.8 3557.07 10533.5 3552.67 10532.4C3548.4 10531.3 3539.2 10529.6 3532.4 10528.5C3519.47 10526.7 3511.87 10523.6 3507.47 10518.8C3503.2 10514.1 3497.47 10511.2 3484.53 10506.9C3477.87 10504.8 3468.4 10500.5 3463.47 10497.6C3458.4 10494.5 3451.33 10491.1 3447.47 10489.9C3437.73 10486.7 3435.33 10484.9 3423.2 10472.7C3414 10463.3 3410.53 10460.8 3398.53 10454.9C3387.07 10449.3 3383.07 10446.5 3375.47 10438.8C3370.53 10433.7 3362.13 10426.9 3357.07 10423.9C3352 10420.8 3344 10414.8 3339.33 10410.5C3334.67 10406.4 3326 10400.4 3320.13 10397.3C3313.07 10393.7 3305.33 10388 3298.13 10381.3C3284.93 10369.1 3284.8 10368.9 3272.13 10366.1C3259.73 10363.3 3256.27 10361.5 3246.8 10352.8C3242.53 10348.9 3234.67 10342.7 3229.2 10338.9C3218.13 10331.5 3215.07 10328.4 3206.4 10316C3202.93 10311.2 3195.33 10302.5 3189.33 10296.7C3183.2 10290.7 3174.93 10280.7 3170.53 10274C3164.93 10265.3 3159.6 10259.3 3151.73 10252.5C3144.53 10246.4 3137.33 10238.7 3131.2 10229.9C3125.2 10221.6 3118.67 10214.4 3113.87 10210.7C3109.47 10207.2 3101.73 10198.8 3096.27 10191.7C3090.93 10184.7 3081.6 10174.3 3075.33 10168.7C3064.53 10158.8 3064 10158 3059.2 10145.6C3056.53 10138.5 3052.8 10130.8 3051.07 10128.7C3049.33 10126.4 3044.53 10119.6 3040.4 10113.5C3036.4 10107.3 3030.27 10098.5 3026.8 10094.1C3015.07 10078.9 3014.27 10076.3 3012.4 10046.7C3010.93 10020.7 3011.2 10006.1 3013.6 9986C3016.4 9963.73 3016.53 9963.47 3025.6 9944C3035.73 9922.4 3036.67 9920.8 3043.33 9913.33C3050.4 9905.47 3053.87 9898.8 3056.13 9889.87C3058.53 9880.13 3060.8 9876.13 3069.87 9866.67C3074.53 9861.87 3080.8 9853.47 3084.13 9848C3087.47 9842.27 3095.47 9832.27 3102.67 9824.67C3109.73 9817.33 3118.13 9807.73 3121.33 9803.33C3124.53 9798.93 3131.73 9790.53 3137.47 9784.67C3143.07 9778.8 3152.67 9767.33 3158.67 9759.33C3164.8 9751.2 3171.6 9742.27 3174 9739.33C3176.4 9736.4 3179.73 9731.33 3181.47 9728C3186.93 9717.73 3191.73 9712.27 3203.2 9704.13C3217.07 9694.13 3222.67 9687.87 3228.53 9676.13C3231.73 9670 3236.13 9664.13 3242 9658.53C3246.93 9653.87 3254.27 9645.2 3258.27 9639.33C3268.53 9624.67 3270.13 9622.8 3281.07 9613.47C3286.67 9608.67 3293.6 9600.93 3297.6 9594.93C3301.33 9589.33 3310 9578.93 3316.67 9572C3324.27 9564.13 3330.8 9555.87 3334 9550C3336.8 9544.8 3341.6 9536.67 3344.67 9531.73C3347.73 9526.8 3351.47 9518.4 3353.2 9512.4C3357.47 9497.07 3360.67 9491.6 3369.07 9484.93C3376.8 9478.93 3377.73 9477.6 3385.87 9459.6C3388.8 9452.93 3393.2 9446.27 3397.6 9441.47C3401.47 9437.33 3409.2 9427.87 3414.67 9420.53C3420.13 9413.33 3430.93 9401.07 3438.67 9393.33C3462.13 9370.13 3476.4 9353.07 3483.47 9339.73C3487.87 9331.33 3491.73 9326.27 3495.87 9322.8C3512.8 9309.07 3516 9304.67 3520.53 9289.2C3521.73 9285.07 3524.8 9278.67 3527.33 9275.2C3529.87 9271.6 3534.13 9264.8 3536.93 9260C3544.67 9246.4 3551.2 9237.07 3557.33 9231.33C3563.73 9225.33 3567.2 9218.4 3568.53 9208.67C3570 9198.8 3572.67 9193.6 3579.87 9186C3584 9181.6 3589.2 9173.6 3593.87 9164.27C3597.87 9156.27 3602.93 9146.8 3605.2 9143.47C3607.33 9140 3610.8 9132.27 3612.8 9126.27C3616.4 9116 3617.47 9114.53 3628.8 9103.33C3640.8 9091.33 3640.8 9091.33 3645.07 9078C3647.47 9070.67 3650.8 9062.53 3652.53 9059.87C3654.4 9057.2 3657.73 9049.47 3660.13 9042.67C3663.87 9031.87 3665.6 9028.93 3672.67 9021.47C3684 9009.2 3685.87 9006.27 3690.13 8992.8C3692.13 8986.27 3695.2 8978.8 3696.93 8976.27C3698.67 8973.73 3703.33 8965.33 3707.33 8957.47C3712 8948 3717.07 8940.27 3722.4 8934.4C3732.53 8923.33 3732.93 8922.27 3736.8 8907.2C3738.67 8899.33 3741.33 8892.53 3743.87 8888.93C3746.13 8885.6 3750.8 8876.8 3754.4 8869.2C3758.8 8859.73 3763.2 8852.67 3768.27 8846.93C3774.53 8840 3776.13 8837.2 3778 8829.6C3779.2 8824.67 3780.8 8818.4 3781.47 8815.73C3782.13 8813.07 3785.33 8807.33 3788.53 8803.07C3791.73 8798.8 3797.2 8789.87 3800.67 8783.33C3804.27 8776.67 3810.27 8767.6 3814.13 8762.93C3821.47 8754.27 3823.2 8750.13 3824.67 8737.33C3825.73 8729.2 3828.93 8722 3833.33 8718C3838.13 8713.73 3843.47 8705.2 3847.2 8696C3849.2 8691.2 3853.07 8683.47 3856 8678.67C3859.2 8673.33 3862.53 8664.8 3864.8 8656.67C3868.4 8643.47 3868.53 8643.33 3878.13 8634C3888.27 8624.13 3890 8621.6 3895.2 8607.6C3896.93 8602.93 3900.53 8595.73 3903.2 8591.87C3905.73 8587.87 3909.87 8579.2 3912.13 8572.67C3916.67 8560 3921.07 8552.53 3928 8546C3934.13 8540.27 3938.8 8532.93 3944.53 8520C3947.2 8513.73 3951.47 8505.6 3953.87 8502C3956.27 8498.27 3961.47 8489.2 3965.2 8481.73C3969.07 8474.27 3974 8465.87 3976.27 8463.07C3984 8453.33 3985.87 8448.13 3985.47 8436.93C3985.33 8431.2 3980.4 8425.07 3976.4 8425.73C3972.4 8426.4 3966.27 8430.27 3959.33 8436.53C3952.8 8442.53 3938.13 8453.47 3918.67 8467.07C3911.33 8472.13 3905.73 8477.73 3897.33 8488.4C3890 8497.6 3882.8 8505.07 3876.67 8509.6C3866.93 8516.93 3856.8 8526.67 3848.53 8536.67C3845.87 8540.13 3838.13 8546.93 3831.47 8552C3824.8 8556.93 3814 8566.53 3807.47 8573.33C3800.93 8580 3791.33 8588.4 3786.13 8591.73C3780.93 8595.2 3771.87 8602.8 3766 8608.67C3754.27 8620.53 3748.4 8625.2 3736.93 8632C3732.67 8634.53 3725.33 8640.67 3720.67 8645.6C3714.13 8652.27 3708.93 8656.13 3699.73 8660.93C3690.13 8665.87 3684.8 8669.73 3676 8678.4C3667.73 8686.67 3662 8690.93 3654.4 8694.8C3648.13 8698 3640.53 8703.33 3635.07 8708.4C3630 8713.07 3622.4 8719.2 3618 8722C3607.73 8728.53 3599.47 8734.8 3592 8741.87C3588.67 8744.93 3579.87 8750.67 3572.27 8754.67C3561.73 8760.13 3556.8 8763.73 3550.93 8770.13C3542.8 8778.8 3536.53 8782.67 3526.67 8785.33C3518.8 8787.33 3511.07 8792 3505.33 8798C3502.8 8800.67 3494.8 8806.53 3487.6 8811.07C3480.4 8815.47 3470.4 8822.8 3465.6 8827.07C3460.67 8831.33 3450.8 8838.13 3443.6 8842.27C3434.67 8847.2 3428 8852.13 3422.53 8857.87C3418.13 8862.53 3413.2 8866.93 3411.6 8867.73C3410 8868.53 3404.67 8871.07 3399.73 8873.33C3392.8 8876.53 3387.87 8880.4 3377.73 8890.4C3369.33 8898.8 3360.67 8905.87 3353.33 8910.27C3347.07 8914 3339.33 8919.87 3336.13 8923.33C3332.8 8926.67 3326 8932.27 3320.8 8935.73C3315.6 8939.2 3305.33 8947.73 3298 8954.8C3290.67 8961.87 3279.6 8970.93 3273.33 8974.93C3267.07 8979.07 3257.87 8986.67 3252.67 8992C3247.07 8997.87 3237.33 9005.73 3228.4 9011.6C3220.27 9017.07 3212.67 9022.8 3211.6 9024.4C3207.2 9031.07 3200 9037.2 3190.27 9042.67C3178.4 9049.47 3172.13 9055.2 3161.07 9069.73C3154.8 9077.87 3150.4 9081.87 3140.4 9088.53C3123.6 9099.87 3091.2 9129.6 3078 9146.13C3072.13 9153.33 3060.13 9166.53 3051.2 9175.33C3038.67 9187.73 3033.87 9193.73 3029.33 9201.87C3021.87 9215.47 3017.87 9219.87 3007.2 9226.67C2999.47 9231.6 2967.07 9261.2 2959.07 9270.8C2957.47 9272.67 2953.6 9279.07 2950.53 9284.8C2943.2 9298.93 2940.27 9301.73 2925.33 9308.93C2913.73 9314.67 2911.2 9316.67 2895.2 9332.67C2872.13 9355.73 2858.4 9367.73 2845.07 9376.53C2838.93 9380.4 2831.33 9386.53 2828 9390C2824.67 9393.47 2816 9400.27 2808.67 9404.93C2801.47 9409.73 2790.4 9418.53 2784 9424.53C2777.6 9430.8 2767.87 9438.27 2761.47 9442.13C2754 9446.53 2747.87 9451.47 2742.53 9457.47C2736.4 9464.4 2732.13 9467.6 2722.4 9472.8C2712.67 9478 2707.73 9481.73 2698.67 9490.93C2690.27 9499.6 2684.4 9504.13 2676 9508.67C2669.73 9512.13 2661.33 9518.13 2657.33 9522C2653.33 9525.87 2643.07 9534.13 2634.67 9540.27C2626.27 9546.53 2616.67 9554.53 2613.33 9558C2610 9561.47 2601.6 9568.13 2594.67 9572.67C2587.73 9577.2 2578 9585.2 2573.2 9590.27C2568.27 9595.47 2558.4 9603.47 2551.2 9608.27C2538.53 9616.67 2534.4 9620.27 2525.6 9630.67C2523.33 9633.33 2517.47 9637.73 2512.53 9640.67C2499.6 9648.27 2491.47 9654.93 2486.53 9662.27C2479.47 9672.8 2473.2 9678.53 2462.53 9684.27C2456.93 9687.2 2447.07 9694.13 2440.53 9699.73C2434 9705.2 2425.33 9712.13 2421.33 9715.07C2417.33 9718.13 2409.47 9724.8 2404 9730C2398.4 9735.07 2388 9743.6 2380.67 9748.93C2373.33 9754.27 2363.6 9762.67 2359.07 9767.73C2354.53 9772.93 2346.13 9780.27 2340.4 9784.27C2334.67 9788.27 2324.4 9797.6 2317.6 9805.07C2309.33 9814 2301.73 9820.67 2294.67 9825.2C2288.4 9829.33 2281.33 9835.33 2277.07 9840.27C2266.93 9852.13 2260.67 9857.87 2249.33 9866C2243.73 9869.87 2235.6 9877.2 2231.07 9882.4C2225.07 9889.07 2220.27 9892.93 2213.2 9896.67C2202.4 9902.4 2191.87 9912.27 2182.8 9925.07C2178.27 9931.47 2174.13 9935.2 2165.47 9940.93C2151.47 9950 2148.53 9952.67 2138.27 9965.33C2128.53 9977.47 2126.67 9979.33 2117.33 9985.87C2106.4 9993.6 2079.73 10016.3 2065.33 10030C2058.27 10036.5 2046.53 10046.4 2039.2 10051.7C2031.87 10057.1 2022.67 10064.9 2018.93 10069.2C2015.2 10073.5 2007.2 10080.4 2001.07 10084.4C1987.73 10093.3 1984.13 10096.7 1974.27 10108.8C1970.13 10114 1963.2 10121.1 1958.67 10124.7C1950.13 10131.5 1943.87 10139.1 1934.4 10154C1931.07 10159.1 1926.27 10165.9 1923.6 10169.1C1920.93 10172.1 1917.6 10178.1 1916 10182.4C1914.53 10186.5 1912.4 10192.4 1911.33 10195.5C1910 10198.9 1906 10204 1900.13 10209.6C1891.07 10218.3 1886.27 10226.1 1880.67 10241.7C1879.47 10245.3 1876.4 10250.8 1873.87 10254C1871.47 10257.3 1867.47 10263.7 1865.2 10268.3C1859.73 10279.2 1851.07 10291.2 1843.33 10298.7C1837.33 10304.4 1832 10312.7 1832 10316.3C1832 10321.2 1824.4 10333.5 1816.93 10340.8C1811.33 10346.3 1806.53 10352.8 1802.13 10361.2C1798.4 10368 1792.27 10376.8 1788.27 10381.1C1784.4 10385.2 1776.53 10395.6 1771.07 10404C1765.47 10412.4 1757.6 10422.9 1753.33 10427.3C1749.2 10431.7 1743.87 10438.9 1741.33 10443.3C1738.67 10448 1731.07 10457.1 1723.2 10465.2C1715.6 10472.8 1707.87 10481.3 1706 10484.1C1704.13 10487.1 1701.07 10491.9 1699.07 10494.9C1696.93 10497.9 1691.87 10503.5 1687.6 10507.2C1682.67 10511.5 1676.4 10519.5 1670.4 10528.7C1664.53 10537.7 1656.8 10547.3 1650.13 10554C1642.8 10561.3 1637.6 10567.9 1634 10574.5C1630.67 10580.9 1624.53 10588.9 1617.2 10596.5C1610.93 10603.2 1601.47 10614.4 1596.4 10621.3C1591.2 10628.3 1584.4 10636.3 1581.47 10639.2C1578.4 10642 1573.07 10649.2 1569.73 10655.2C1565.6 10662.4 1559.87 10669.6 1552.53 10676.9C1539.47 10689.7 1538 10692 1535.2 10701.5C1532 10712.1 1528.8 10717.6 1521.33 10725.3C1517.07 10729.7 1512.27 10736.9 1508.4 10744.5C1505.07 10751.2 1500 10760.5 1497.2 10765.3C1494.53 10770.1 1490.67 10779.3 1488.8 10785.9C1485.2 10798.4 1484.8 10799.1 1473.2 10810.5C1466.67 10817.2 1465.47 10819.2 1462.8 10828.7C1461.2 10834.5 1458.13 10843.5 1456 10848.7C1453.87 10853.7 1450.8 10863.3 1449.33 10869.7C1446.4 10882.8 1444.13 10888 1438.53 10894.4C1433.47 10900.1 1430.4 10906.5 1426.93 10918.1C1425.33 10923.2 1422.53 10929.6 1420.8 10932.1C1413.07 10942.7 1410.8 10947.7 1408.8 10958.7C1407.6 10964.9 1405.2 10972.7 1403.33 10976C1401.6 10979.3 1396.67 10988.9 1392.4 10997.3C1384.27 11013.6 1381.73 11016.7 1358.27 11037.7C1348.8 11046.4 1345.87 11049.9 1341.73 11058.4C1337.2 11067.5 1336.67 11069.5 1336.93 11078C1337.07 11083.1 1338 11090.8 1339.2 11094.9C1340.27 11099.2 1341.6 11106.9 1342 11112.3C1343.47 11129.3 1342.27 11128 1356.4 11128H1368.8L1370.67 11123.3C1373.07 11117.2 1375.87 11116.5 1386.4 11119.9C1391.33 11121.3 1397.87 11123.2 1400.93 11124C1404 11124.8 1406.93 11126 1407.33 11126.7C1407.87 11127.6 2173.6 11128 3578.8 11128H5749.33L5754.27 11122.5C5760.93 11115.2 5764.4 11113.6 5778.8 11111.9C5785.73 11111.1 5795.87 11108.9 5801.47 11107.2C5806.93 11105.5 5816.27 11103.5 5822.13 11102.7C5827.87 11101.9 5838.67 11099.5 5846 11097.5C5853.33 11095.3 5866.8 11092.5 5876 11091.2C5891.47 11089.1 5899.6 11088.4 5940 11086.1C5948.4 11085.7 5963.73 11084.7 5974 11084C5984.27 11083.2 5996.53 11082.4 6001.33 11082.1C6017.73 11081.2 6040.67 11078.5 6056 11075.9C6073.47 11072.9 6101.2 11070.7 6120.13 11070.7C6127.2 11070.7 6136.27 11070 6140.13 11069.3C6144.13 11068.5 6150.4 11067.6 6154 11067.2C6171.47 11065.5 6179.33 11063.7 6187.73 11059.5C6192.67 11056.9 6204.53 11052.4 6214 11049.3C6230.4 11044.1 6232.53 11043.7 6254.67 11042.7C6267.47 11042 6284 11040.8 6291.33 11040.1C6298.67 11039.3 6311.87 11038.4 6320.67 11038C6345.47 11036.9 6350.93 11036.3 6357.33 11034C6360.67 11032.8 6370.27 11030.4 6378.67 11028.7C6387.07 11026.8 6396.93 11024.5 6400.53 11023.3C6404.53 11022.1 6412.13 11021.3 6420 11021.3C6427.33 11021.3 6435.73 11020.5 6439.47 11019.3C6443.07 11018.3 6451.2 11016.8 6457.47 11016C6471.33 11014.4 6475.87 11012.9 6484.93 11007.2C6492.13 11002.5 6505.73 10998.1 6518.4 10996.4C6526 10995.3 6531.6 10995.3 6556 10996C6567.6 10996.4 6569.73 10996 6582 10991.7C6589.33 10989.1 6600.53 10984.4 6606.93 10981.3C6617.47 10976.4 6620 10975.7 6632.93 10974.7C6640.8 10974.1 6650 10972.5 6653.33 10971.3C6656.67 10970 6664.8 10968.5 6671.6 10968C6682.13 10967.1 6685.6 10966.1 6697.07 10960.8C6716.13 10951.9 6735.87 10948.1 6758.8 10948.9L6775.6 10949.6L6785.47 10944.9C6790.93 10942.4 6799.6 10938.9 6804.67 10937.3C6809.87 10935.7 6817.6 10932.1 6821.87 10929.6C6829.07 10925.3 6831.07 10924.8 6843.6 10923.9C6856.67 10922.9 6858.13 10922.5 6866.4 10917.6C6881.87 10908.3 6904.67 10902.7 6928.4 10902.1C6942.13 10901.9 6944 10901.6 6952 10897.7C6956.8 10895.3 6964.93 10892.4 6970 10891.2C6979.33 10888.9 6990.8 10884 6994.67 10880.5C6998 10877.6 7007.07 10874.9 7018.67 10873.3C7024.53 10872.5 7031.87 10870.9 7034.8 10870C7037.87 10868.9 7046.4 10867.1 7053.87 10865.9C7064.53 10864.3 7069.33 10862.7 7076.93 10858.5C7083.87 10854.8 7089.2 10852.9 7096.27 10852C7110.53 10850 7115.07 10848.4 7120.8 10843.9C7128.8 10837.5 7134 10835.3 7153.33 10830.3C7164.93 10827.3 7176 10825.3 7184.27 10824.9C7196 10824.1 7198.27 10823.6 7207.6 10818.8C7213.33 10816 7221.33 10812.9 7225.33 10812C7234.67 10809.9 7244.27 10805.2 7249.73 10800C7255.6 10794.3 7262.4 10791.1 7272.93 10788.5C7278 10787.5 7285.6 10785.5 7290 10784C7294.4 10782.7 7304.27 10780.9 7311.73 10780.1C7324.4 10778.9 7326.4 10778.4 7334.4 10773.5C7339.33 10770.5 7348.13 10766.8 7354 10765.3C7365.6 10762.1 7367.87 10760.9 7378.13 10752.5C7384.13 10747.7 7386.93 10746.5 7398.27 10744C7405.47 10742.4 7413.87 10740 7416.93 10738.7C7420 10737.3 7428.53 10735.2 7436 10733.9C7450 10731.5 7450.4 10731.2 7467.6 10719.1C7471.87 10716.1 7480.67 10711.7 7486.93 10709.5C7493.33 10707.3 7500.93 10704.3 7504 10702.7C7507.47 10700.9 7513.87 10699.5 7522.4 10698.7C7537.6 10697.2 7539.47 10696.7 7549.07 10690.3C7553.07 10687.7 7561.33 10684 7567.73 10682C7577.47 10678.9 7580.13 10677.5 7586.67 10671.3C7593.87 10664.3 7603.47 10658.8 7608.4 10658.7C7609.6 10658.7 7617.73 10656.3 7626.4 10653.5C7634.93 10650.5 7646.27 10647.2 7651.33 10646C7661.73 10643.6 7666.67 10640.8 7677.2 10630.8C7683.47 10624.9 7686.13 10623.5 7697.47 10620C7704.53 10617.7 7713.6 10614.5 7717.6 10612.8C7721.47 10611.1 7729.47 10608.7 7735.2 10607.6C7746 10605.3 7752 10602.3 7761.07 10594.1C7766.4 10589.3 7776.13 10584 7784.67 10581.3C7787.6 10580.4 7794.13 10577.6 7799.33 10575.1C7804.53 10572.4 7812.93 10569.6 7818.67 10568.7C7831.87 10566.3 7834.4 10565.2 7841.87 10558.8C7851.07 10550.9 7857.87 10546.5 7872 10539.6C7878.93 10536.1 7886.53 10532.1 7888.67 10530.8C7890.93 10529.3 7897.73 10527.2 7904 10525.9C7917.87 10523.2 7919.73 10522.3 7930.67 10512.7C7936.27 10507.6 7944.53 10502.5 7954 10497.9C7962.13 10493.9 7971.33 10489.1 7974.67 10487.3C7978 10485.5 7984.53 10483.3 7989.33 10482.5C7999.73 10480.7 8005.73 10477.9 8012 10471.7C8020.27 10463.6 8027.07 10459.2 8041.33 10452.1C8049.07 10448.4 8057.2 10444.1 8059.33 10442.8C8061.6 10441.3 8068 10438.9 8073.73 10437.3C8086.27 10434 8088.53 10432.7 8101.07 10421.1C8109.07 10413.7 8112.67 10411.5 8122.27 10407.9C8128.53 10405.5 8137.07 10401.3 8141.2 10398.7C8145.47 10395.9 8152.4 10392.4 8156.8 10390.8C8170.13 10385.7 8176.8 10381.3 8184.67 10372.5C8193.33 10362.8 8196.13 10360.9 8208.53 10357.9C8214.8 10356.3 8220.93 10353.3 8228.4 10348.4C8234.4 10344.4 8242.13 10339.6 8245.6 10337.9C8249.07 10336.1 8256.67 10330.8 8262.4 10326.1C8274.93 10315.9 8278.53 10314 8288.27 10312.1C8298.8 10310.3 8302.13 10308.3 8314 10296.8C8321.6 10289.3 8327.33 10285.2 8336 10280.8C8342.4 10277.6 8350.67 10272.8 8354.4 10270.3C8358 10267.9 8365.73 10263.9 8371.6 10261.5C8384.27 10256.4 8390.27 10251.6 8397.33 10241.3C8403.47 10232.4 8407.47 10229.5 8422 10224.4C8435.07 10219.7 8465.6 10200 8480.67 10186.7C8483.6 10184.1 8492.67 10178.5 8500.8 10174.3C8511.87 10168.5 8517.33 10164.7 8523.47 10158.4C8531.47 10150.3 8536.53 10147.3 8548.67 10144C8554.13 10142.4 8557.33 10140.1 8567.6 10129.9C8575.47 10122 8584 10115.1 8591.33 10110.7C8597.47 10106.9 8605.73 10101.1 8609.6 10097.9C8613.47 10094.5 8621.73 10088.7 8627.87 10084.9C8634 10081.2 8643.47 10073.7 8648.8 10068.5C8656.93 10060.7 8660.4 10058.3 8668.27 10055.2C8682 10050.1 8688.27 10045.1 8698 10031.9C8706 10020.8 8706.93 10020 8718.8 10014C8725.73 10010.7 8733.2 10006.4 8735.33 10004.7C8737.6 10003.1 8746.67 9996.8 8755.6 9990.8C8766 9983.87 8774.27 9977.07 8778.8 9972C8782.53 9967.6 8791.07 9960.4 8797.6 9955.87C8804.27 9951.33 8813.87 9943.2 8819.2 9937.6C8825.07 9931.47 8834.27 9924 8843.33 9918C8852.53 9911.87 8860.53 9905.47 8864.4 9900.8C8869.6 9894.8 8873.2 9892.27 8883.07 9887.47C8896.67 9881.07 8900.67 9877.47 8912.13 9862.53C8917.2 9855.87 8922.53 9850.67 8927.6 9847.33C8931.87 9844.53 8937.2 9841.07 8939.47 9839.47C8943.2 9836.93 8964.4 9818.13 8987.87 9796.53C8992.67 9792.13 9003.2 9783.47 9011.2 9777.33C9019.07 9771.07 9029.07 9762.27 9033.2 9757.47C9037.33 9752.8 9045.07 9745.6 9050.4 9741.73C9060.67 9734 9073.2 9722.27 9078.67 9714.93C9080.53 9712.53 9086.53 9707.2 9092 9703.07C9104.67 9693.6 9113.33 9685.47 9120.93 9675.6C9124.27 9671.33 9132.67 9663.6 9139.73 9658.27C9148.4 9651.73 9155.6 9644.93 9161.33 9637.6C9171.47 9625.07 9171.87 9624.67 9186 9613.6C9191.87 9609.07 9198.8 9602.53 9201.33 9599.07C9209.07 9588.67 9219.73 9577.87 9229.47 9570.53C9235.2 9566.13 9241.6 9559.47 9246.8 9552.4C9251.33 9546.13 9258.4 9538.4 9262.4 9534.93C9277.73 9521.87 9284.53 9515.07 9291.73 9505.6C9295.73 9500.27 9303.33 9492.4 9308.53 9488.27C9320.13 9479.07 9323.73 9475.33 9332.67 9463.2C9336.53 9458 9342.93 9451.07 9346.67 9447.87C9361.6 9435.33 9364.4 9432.53 9373.33 9420.67C9378.8 9413.2 9386.53 9404.93 9392.53 9400.13C9398.67 9395.07 9406.13 9387.07 9412.13 9378.93C9417.47 9371.87 9426.4 9361.2 9431.87 9355.33C9437.47 9349.47 9446.27 9339.6 9451.33 9333.33C9456.53 9327.2 9462.67 9320 9465.2 9317.47C9471.33 9311.2 9496.53 9282.8 9503.73 9274.13C9506.8 9270.4 9511.47 9263.2 9514.13 9258C9520.13 9246.4 9523.6 9242.53 9535.33 9234.93C9549.2 9225.87 9554.93 9219.2 9560 9206.53C9563.73 9197.33 9565.73 9194.4 9573.6 9186.8C9579.2 9181.47 9585.33 9173.73 9589.07 9167.47C9593.47 9160.13 9599.33 9152.93 9608.4 9144.13C9615.6 9137.07 9624.27 9127.2 9627.6 9122.13C9631.07 9117.07 9637.2 9109.07 9641.47 9104.13C9645.73 9099.33 9651.47 9091.07 9654.27 9086C9657.73 9079.47 9663.2 9072.8 9672.27 9063.87C9684.93 9051.33 9687.6 9047.47 9693.33 9034.13C9695.2 9029.73 9699.47 9024.27 9705.73 9018.13C9713.2 9010.8 9716.93 9005.73 9721.87 8996.13C9726.27 8987.6 9731.33 8980.4 9737.73 8973.47C9742.93 8967.87 9750.93 8957.47 9755.47 8950.4C9760.13 8943.33 9765.87 8935.2 9768.53 8932.4C9771.07 8929.6 9775.87 8921.47 9779.2 8914.4C9784.27 8903.87 9786.93 8900.27 9794.4 8893.2C9806.53 8881.73 9809.87 8877.2 9814.13 8865.47C9816.93 8857.73 9819.73 8853.33 9826.93 8845.47C9831.87 8840 9837.87 8831.73 9840.13 8827.33C9845.2 8817.73 9850.13 8810.53 9856.53 8803.33C9859.07 8800.4 9863.47 8792.67 9866.13 8786.27C9870.27 8776.27 9872.67 8772.67 9882 8762.67C9891.47 8752.53 9893.6 8749.33 9897.2 8740C9899.47 8734 9901.33 8728.67 9901.33 8728.13C9901.33 8727.6 9904.67 8723.33 9908.67 8718.67C9912.67 8713.87 9918.53 8705.33 9921.6 8699.6C9924.8 8693.87 9930 8685.47 9933.33 8681.07C9942.93 8668.4 9943.87 8666.67 9947.47 8654.8C9950.67 8644.67 9951.73 8642.8 9960.13 8634.27C9967.6 8626.53 9970.8 8621.87 9976.53 8610C9980.4 8602 9985.47 8593.2 9987.6 8590.53C9989.73 8587.87 9992.53 8583.07 9993.87 8579.87C10001.1 8563.07 10004.5 8557.2 10012.4 8548.13C10019.5 8540.4 10021.7 8536.67 10024 8529.47C10025.5 8524.67 10027.5 8518.67 10028.3 8516.13C10029.1 8513.6 10032 8508.13 10034.9 8504.13C10037.9 8500 10043.5 8490.93 10047.6 8484C10051.7 8477.07 10058.1 8468 10062 8464C10069.2 8456.4 10071.2 8452 10072.7 8440.67C10074 8429.87 10076 8425.07 10082.4 8417.33C10085.7 8413.33 10090 8406.4 10092 8402C10102.7 8378.93 10107.7 8366.67 10109.3 8360.67C10112.3 8349.6 10115.9 8343.73 10126 8334C10135.2 8325.07 10135.9 8324.13 10139.2 8313.07C10141.7 8304.8 10144.5 8299.07 10148.8 8293.47C10153.2 8287.47 10155.2 8283.33 10156.8 8276.4C10157.9 8271.47 10159.3 8264.67 10160.1 8261.33C10160.8 8258 10163.9 8251.87 10166.8 8247.6C10169.7 8243.47 10174.9 8234.27 10178.1 8227.2C10181.5 8220.27 10186.5 8211.87 10189.3 8208.8C10196 8201.6 10198 8196.67 10199.9 8183.33C10200.9 8176.53 10202.9 8169.47 10205.9 8163.33C10208.3 8158.27 10211.9 8149.47 10213.9 8144C10215.9 8138.4 10219.7 8131.07 10222.7 8127.33C10231.9 8115.6 10235.1 8109.2 10237.6 8097.47C10239.1 8091.33 10241.9 8082.27 10243.9 8077.47C10246 8072.67 10248.4 8065.33 10249.3 8061.33C10251.5 8051.87 10254.7 8046 10261.3 8038.93C10268.5 8031.33 10271.3 8025.33 10273.9 8012.67C10275.1 8006.8 10276.9 7999.6 10278 7996.67C10279.1 7993.73 10281.5 7984.8 10283.3 7976.8C10287.2 7960.27 10287.6 7959.6 10295.9 7948.67C10300.5 7942.67 10302.9 7937.6 10305.7 7928.4C10308.3 7919.73 10310.9 7914.27 10314.5 7909.73C10321.6 7900.67 10322.4 7899.07 10324.5 7886.53C10325.6 7880.4 10328 7870.67 10329.9 7865.07C10331.7 7859.47 10333.9 7851.33 10334.5 7846.93C10336.1 7836.93 10338.5 7831.33 10344.4 7823.6C10347.1 7820.13 10350.3 7813.87 10351.5 7809.6C10356.8 7791.33 10358.9 7785.6 10361.7 7781.33C10366.3 7774.4 10367.7 7769.87 10369.2 7757.2C10369.9 7750.93 10371.7 7742.8 10373.1 7739.2C10374.5 7735.6 10377.1 7726.93 10378.8 7720C10381.2 7710.4 10383.3 7705.33 10387.5 7699.2C10395.2 7687.87 10396.8 7684.4 10400.1 7672.4C10401.7 7666.67 10404.4 7659.33 10406 7656C10410.3 7647.73 10410.7 7646.27 10411.3 7630.67C10412.4 7608.67 10422.9 7572.67 10429.3 7568.67C10432.3 7566.8 10435.9 7557.2 10437.9 7546.4C10439.1 7538.93 10441.5 7531.6 10444.7 7525.33C10448.5 7517.6 10449.7 7513.33 10450.8 7503.6C10451.5 7496.8 10452.7 7488.67 10453.5 7485.33C10454.3 7482.13 10456 7473.07 10457.3 7465.33C10459.3 7454.4 10461.2 7448.8 10465.9 7440C10470 7431.87 10472.4 7425.2 10474 7416.67C10475.2 7410.13 10477.6 7401.47 10479.3 7397.47C10482.8 7388.93 10483.6 7385.87 10485.3 7372C10486 7366.4 10488.1 7358.53 10490.1 7354.27C10492.3 7349.47 10494.8 7339.47 10496.7 7328.67C10498.4 7318.8 10500 7310.27 10500.4 7309.73C10500.8 7309.2 10501.7 7301.73 10502.5 7293.33C10503.9 7279.87 10504.7 7276.67 10509.2 7267.33C10512.1 7261.47 10516.4 7250.67 10518.8 7243.33C10521.1 7236 10524.3 7227.6 10525.7 7224.67C10527.6 7220.8 10528.7 7215.07 10529.5 7204C10530 7195.6 10531.5 7186 10532.7 7182.67C10533.9 7179.33 10535.5 7169.73 10536.1 7161.33C10536.8 7152.93 10538 7143.87 10538.7 7141.33C10539.3 7138.8 10541.1 7129.73 10542.5 7121.33C10544 7112.8 10546.3 7103.2 10547.3 7100C10548.8 7096 10549.6 7088.53 10549.9 7078C10550.1 7065.07 10550.7 7060.67 10553.1 7055.33C10554.7 7051.6 10558 7041.73 10560.5 7033.2C10563.2 7024.67 10566.4 7015.6 10567.9 7013.2C10574.3 7001.87 10577.9 6978.8 10578.1 6947.33C10578.3 6919.87 10580.4 6907.73 10588.5 6886.8C10592.4 6877.07 10593.7 6871.47 10594.7 6860.13C10595.5 6852.4 10596.7 6843.87 10597.5 6841.33C10598.1 6838.8 10599.3 6828.53 10600 6818.67C10602.3 6783.33 10604.1 6767.2 10606.7 6759.33C10608.1 6754.93 10610.8 6745.07 10612.5 6737.33C10614.4 6729.6 10617.3 6719.07 10619.2 6713.87C10624.3 6699.6 10626 6676.93 10626 6624.67C10626.1 6573.47 10627.2 6564.93 10636.7 6544C10640.1 6536.13 10641.7 6530.4 10642.7 6521.73C10643.5 6515.33 10644.9 6504.93 10646 6498.67C10647.1 6492.4 10648.5 6470.27 10649.3 6449.33C10650.9 6405.47 10652.5 6382.4 10654.7 6374.8C10655.5 6371.73 10656.7 6362.53 10657.5 6354.4C10658.1 6346.13 10659.3 6337.07 10660.1 6334.13C10664.1 6319.07 10668 6246.4 10665.3 6235.33C10664.7 6232.4 10663.6 6224 10663.2 6216.67C10661.7 6193.47 10666.9 6172.67 10677.2 6161.07C10685.2 6152 10686.7 6147.6 10686.7 6134C10686.7 6127.2 10687.5 6117.73 10688.5 6113.07C10690.1 6106.27 10690.5 6086.67 10690.7 6006C10690.8 5951.73 10691.1 5903.73 10691.2 5899.33C10691.5 5894.93 10692.1 5858.27 10692.5 5818C10693.1 5777.6 10693.7 5737.2 10694 5728C10697.3 5628.67 10697.5 5493.07 10694.1 5461.33C10692.5 5446.27 10692.1 5441.47 10691.1 5418C10690 5393.87 10689.9 5368.53 10690.5 5334C10690.9 5318 10690.7 5314.27 10688.3 5308C10686.8 5304 10685.2 5296.13 10684.7 5290.8C10683.9 5281.07 10680.9 5273.47 10675.7 5266.8C10665.9 5254 10661.5 5226.13 10664.9 5198C10666.8 5182.67 10666.3 5133.47 10664 5108.67C10663.3 5102 10662.3 5089.47 10661.3 5080.67C10660.5 5071.87 10658.8 5059.6 10657.3 5053.33C10656 5047.07 10654.1 5035.73 10653.3 5028.27C10652.7 5020.67 10651.6 5013.73 10651.1 5013.07C10650.7 5012.27 10649.5 4992.67 10648.4 4969.47C10645.6 4903.33 10644.8 4892.8 10640.9 4881.33C10639.2 4875.87 10637.3 4867.07 10636.8 4862C10636.1 4855.07 10634.4 4849.47 10630 4840C10621.7 4822.27 10619.6 4812.93 10619.5 4794.67C10619.5 4783.33 10620.1 4776.93 10622 4770C10626 4755.87 10625.7 4725.33 10621.6 4707.33C10619.9 4700 10617.6 4689.73 10616.4 4684.67C10615.2 4679.47 10613.2 4672.67 10611.7 4669.47C10610.3 4666.27 10608.3 4658.4 10607.2 4652.13C10606.1 4645.87 10604.1 4634.93 10602.7 4628C10601.2 4621.07 10600 4610.8 10600 4605.2C10600 4599.6 10599.3 4591.73 10598.7 4587.87C10597.9 4583.87 10596.7 4573.2 10596 4564C10595.3 4554.8 10593.9 4544.67 10592.7 4541.33C10590.1 4534 10584.1 4501.2 10582.4 4484.67C10581.7 4478 10580.4 4466.93 10579.2 4460C10578.1 4453.07 10577.3 4441.47 10577.3 4434.4C10577.3 4424.4 10576.7 4419.87 10574.7 4414.53C10573.1 4410.67 10570.1 4400.93 10567.9 4392.8C10565.6 4384.67 10561.9 4373.73 10559.3 4368.67C10556.3 4362.4 10554 4355.07 10552.7 4346.67C10551.5 4339.73 10549.6 4331.2 10548.5 4327.87C10547.5 4324.53 10546.1 4312.93 10545.5 4302.27C10544.8 4291.6 10544 4282.4 10543.6 4281.73C10543.3 4281.2 10542.5 4275.87 10542.1 4270C10540.9 4256.27 10540.3 4252 10537.3 4241.07C10536 4236.13 10534.1 4227.47 10533.3 4221.87C10532.5 4216.27 10530.3 4206.93 10528.5 4200.93C10526.8 4195.07 10525.3 4187.07 10525.3 4183.33C10525.3 4173.2 10523.2 4163.87 10518.9 4154.4C10516.8 4149.73 10513.5 4140.67 10511.5 4134.13C10509.5 4127.6 10506.4 4119.07 10504.5 4115.2C10502.3 4110.13 10500.8 4103.2 10499.3 4089.87C10498.1 4079.87 10496.9 4071.07 10496.5 4070.4C10496.1 4069.73 10494.3 4062 10492.5 4053.2C10490.5 4043.2 10487.7 4034 10485.2 4029.07C10481.7 4022.27 10480.9 4018.67 10480 4006.8C10479.2 3996.8 10478 3990.67 10475.9 3986C10474.3 3982.27 10471.7 3973.87 10470.4 3967.33C10468.9 3960 10465.9 3951.2 10462.7 3944.67C10459.7 3938.8 10456.7 3930.4 10456 3926C10455.2 3921.6 10453.5 3912.27 10452 3905.33C10450.7 3898.4 10449.2 3887.6 10448.7 3881.47C10447.7 3870 10445.3 3861.87 10441.1 3856C10439.7 3854.13 10437.5 3847.2 10436 3840.4C10432.8 3825.6 10431.5 3822 10427.1 3816.13C10423.3 3811.2 10419.2 3801.33 10418 3794.4C10417.6 3792 10415.7 3784 10414 3776.67C10412.3 3769.33 10410.7 3759.07 10410.5 3754C10410.3 3743.47 10407.9 3733.47 10404.7 3728.53C10403.6 3726.8 10401.2 3719.73 10399.3 3712.93C10395.2 3697.2 10394.1 3694.4 10389.3 3687.2C10384.5 3680.27 10382 3673.47 10379.2 3660.4C10378.1 3655.2 10376 3648 10374.5 3644.67C10372.9 3641.2 10370.9 3632.93 10369.9 3626.13C10368.4 3617.47 10366.4 3610.93 10362.7 3603.33C10359.6 3597.07 10356.5 3588 10355.3 3581.33C10352.8 3568.8 10351.2 3565.2 10344.8 3556.8C10342.4 3553.73 10339.6 3547.87 10338.4 3543.87C10337.2 3539.87 10334.1 3529.6 10331.5 3520.8C10328.8 3512.13 10326.7 3503.07 10326.7 3500.53C10326.7 3491.87 10323.6 3481.87 10318.5 3473.73C10315.5 3468.8 10312.4 3461.6 10311.2 3456.4C10308.5 3444.53 10306.1 3439.33 10300.8 3432.8C10294.4 3424.93 10292.4 3420.27 10289.3 3407.2C10287.9 3400.8 10285.5 3392.93 10284 3389.6C10282.5 3386.4 10280.5 3378.8 10279.5 3372.67C10277.3 3360.67 10274.4 3353.87 10267.3 3344.53C10264.5 3340.93 10261.2 3333.6 10258.7 3325.6C10256.4 3318.53 10252.7 3309.47 10250.4 3305.47C10247.6 3300.4 10245.6 3294 10244 3284.53C10241.5 3270.13 10240.8 3268.27 10233.7 3258.27C10231.3 3254.67 10228.1 3248 10226.8 3243.33C10223.5 3232.53 10220 3225.87 10214.7 3220.13C10208 3212.93 10207.1 3210.8 10202.8 3194.4C10200.7 3185.87 10198 3177.2 10196.8 3175.07C10195.7 3172.93 10193.6 3166.27 10192.1 3160.27C10188.8 3146.93 10185.7 3140.67 10178 3132C10171.1 3124.13 10169.3 3121.2 10165.3 3108.67C10163.6 3103.47 10160.7 3096 10158.7 3092C10156.7 3088 10154 3080.4 10152.7 3075.33C10149.7 3062.93 10146.7 3056.53 10140.8 3049.47C10134 3041.33 10129.9 3033.87 10126.1 3023.2C10124.4 3018.13 10121.2 3010.4 10118.9 3006C10116.7 3001.6 10113.5 2993.33 10112 2987.47C10108.7 2975.07 10106.7 2970.8 10100.8 2964.27C10094.3 2956.93 10089.7 2949.07 10085.3 2937.73C10083.2 2932.13 10080 2925.47 10078.3 2922.8C10074.4 2916.93 10072.9 2912.93 10069.3 2899.47C10066.4 2888.4 10064.9 2885.6 10055.1 2874.4C10050.4 2868.8 10037.3 2844.93 10037.3 2841.73C10037.3 2841.33 10035.5 2838.53 10033.3 2835.47C10030.9 2832.13 10027.9 2824.93 10026.1 2818.4C10022.1 2804 10021.3 2802.67 10011.5 2791.73C10002.7 2782 10000.7 2778.8 9995.2 2764.67C9993.2 2759.47 9990 2752.93 9988 2750C9986 2747.07 9982.4 2739.2 9980.13 2732.67C9975.47 2719.47 9972.4 2714.8 9961.33 2704C9954.53 2697.47 9953.33 2695.33 9949.6 2684C9947.2 2677.07 9943.47 2668.67 9941.33 2665.33C9939.07 2662 9933.6 2652.4 9929.33 2643.87C9923.6 2632.93 9919.6 2626.8 9915.33 2622.93C9908.4 2616.67 9906.4 2612.53 9903.2 2598.53C9901.2 2589.47 9900.27 2588 9892.67 2580C9885.73 2572.8 9872 2552.67 9872 2549.87C9872 2549.47 9868.93 2544.8 9865.2 2539.6C9858.4 2530.4 9856.13 2525.87 9851.33 2512.8C9849.6 2507.87 9846 2503.2 9837.33 2494.53C9828.67 2486 9825.07 2481.2 9823.33 2476.4C9818.8 2463.87 9814.67 2455.87 9810.13 2450.27C9807.73 2447.2 9802.53 2439.33 9798.67 2432.8C9794.8 2426.27 9788.13 2417.07 9783.87 2412.53C9775.6 2403.6 9773.07 2399.47 9769.2 2388.53C9766.27 2379.6 9760.53 2371.2 9752.93 2364.53C9745.2 2357.47 9741.07 2351.73 9736.67 2341.07C9734.67 2336.13 9730 2328.67 9726.4 2324.4C9722.8 2320.13 9716.67 2311.2 9712.67 2304.53C9708.8 2298 9701.6 2288.4 9696.8 2283.33C9690.8 2277.07 9685.87 2269.87 9681.07 2260.8C9675.47 2250.27 9671.87 2245.33 9663.2 2236.8C9654 2227.6 9651.87 2224.53 9648.53 2216.13C9645.6 2208.67 9642.67 2204 9635.6 2196.13C9625.33 2184.8 9616.8 2174 9612 2166C9610.13 2163.07 9605.07 2156.67 9600.67 2151.87C9596.27 2147.07 9590.93 2139.87 9588.8 2135.87C9583.2 2125.6 9577.2 2118 9567.87 2109.6C9563.47 2105.6 9556.13 2096.8 9551.73 2090.13C9547.33 2083.47 9539.07 2073.47 9533.47 2068C9525.87 2060.4 9522 2055.33 9518.13 2047.33C9513.87 2038.67 9510.4 2034.27 9500 2024C9490.67 2014.8 9485.6 2008.53 9481.47 2000.93C9478.27 1995.2 9471.73 1986.13 9466.93 1980.8C9462 1975.47 9454.13 1966.53 9449.47 1960.8C9444.8 1955.07 9436.53 1946.53 9431.07 1941.6C9425.6 1936.67 9419.2 1929.6 9416.67 1926C9410.8 1917.2 9398.53 1903.33 9388.93 1894.53C9384.67 1890.67 9378.67 1883.33 9375.6 1878.27C9370.53 1869.6 9366.53 1865.2 9349.07 1848.67C9345.2 1844.93 9338.53 1836.67 9334.13 1830.27C9329.2 1822.8 9323.6 1816.53 9318.8 1812.8C9309.07 1805.2 9302 1797.73 9292.8 1785.07C9288.67 1779.33 9281.2 1771.33 9276.13 1767.33C9266.53 1759.6 9255.87 1748 9248 1736.93C9245.6 1733.47 9240.13 1728.13 9236.13 1725.07C9226.53 1717.87 9213.87 1705.07 9206.93 1695.73C9204 1691.73 9198.93 1686.4 9195.73 1683.87C9181.6 1672.8 9172.13 1663.47 9163.73 1652.4C9160.8 1648.67 9153.2 1641.33 9146.67 1636.13C9135.07 1626.8 9125.73 1617.33 9118.93 1608C9117.07 1605.33 9110.4 1599.2 9104.13 1594.53C9090.93 1584.53 9081.73 1575.73 9076.13 1567.47C9073.87 1564.13 9067.47 1558.4 9061.47 1554.13C9047.2 1544.13 9042.27 1539.73 9033.87 1529.07C9028.67 1522.67 9022.67 1517.47 9012.93 1510.8C9004.13 1504.8 8995.87 1497.73 8989.47 1490.67C8984 1484.53 8975.33 1476.93 8969.47 1473.07C8963.87 1469.33 8953.07 1459.87 8945.33 1452C8937.6 1444.27 8926.53 1434.13 8920.67 1429.73C8914.8 1425.2 8907.87 1418.8 8905.33 1415.6C8902.8 1412.27 8893.87 1403.87 8885.47 1397.07C8877.07 1390.27 8867.2 1382.13 8863.47 1378.93C8859.73 1375.73 8851.33 1370.4 8844.93 1367.07C8836.4 1362.67 8831.87 1359.33 8828.27 1354.8C8818.13 1342.13 8809.73 1335.07 8797.87 1328.8C8788.27 1323.87 8784.27 1320.8 8777.47 1313.2C8772.27 1307.47 8764.67 1300.93 8757.87 1296.67C8751.73 1292.67 8742.4 1285.2 8737.07 1280C8731.73 1274.67 8721.07 1266.27 8713.33 1261.07C8705.6 1255.87 8696.93 1249.2 8693.87 1246.13C8688.8 1240.8 8677.2 1232 8675.33 1232C8673.47 1232 8664.13 1224.27 8653.2 1213.73C8642.13 1203.07 8637.33 1200.13 8624 1196C8619.73 1194.67 8615.2 1191.33 8608.13 1184.4C8602.8 1179.2 8593.73 1172.13 8588.13 1168.93C8582.53 1165.73 8573.33 1158.8 8567.6 1153.47C8561.87 1148.27 8551.2 1140.4 8543.87 1136C8536.53 1131.6 8527.07 1125.07 8522.8 1121.47C8518.13 1117.6 8510.93 1113.47 8505.2 1111.2C8495.6 1107.47 8487.47 1101.07 8480.53 1091.87C8476.4 1086.4 8467.47 1080.67 8456.13 1076C8448.13 1072.8 8442.93 1069.47 8435.07 1062.67C8429.47 1057.6 8420 1050.67 8414 1047.07C8408.13 1043.6 8400.27 1038.27 8396.67 1035.33C8392.93 1032.27 8386 1028.53 8381.33 1026.8C8366.67 1021.73 8361.73 1018.67 8356 1011.33C8348.67 1001.87 8340.93 996.8 8324.13 990.533C8321.6 989.6 8315.87 986.4 8311.47 983.333C8306.93 980.267 8298.27 975.2 8292.13 972C8284.8 968.133 8277.2 962.667 8269.73 955.867C8261.6 948.267 8257.07 945.067 8252.93 944C8234.93 939.333 8233.33 938.533 8224.4 930.533C8218.8 925.467 8210.53 920 8202.67 916.133C8195.73 912.667 8187.07 907.733 8183.47 905.333C8180 902.933 8172.67 899.6 8167.33 898C8154.13 893.867 8148.4 890.4 8142 882.533C8136 875.2 8127.73 869.867 8114.13 864.8C8109.2 862.933 8102.27 859.2 8098.8 856.667C8095.33 854.133 8088 850.533 8082.53 848.533C8070.93 844.267 8066.27 841.333 8056.93 832.4C8048.8 824.533 8042.93 821.333 8029.6 817.467C8024.27 815.867 8016.27 812.267 8012 809.467C8007.73 806.667 8000.67 802.933 7996.4 801.333C7986.27 797.2 7980.8 793.733 7971.2 785.333C7961.47 776.8 7958.67 775.333 7946.93 772.667C7941.33 771.333 7934 768.4 7928.67 765.2C7923.87 762.267 7915.6 758 7910.4 755.733C7898.67 750.8 7891.87 746.533 7883.73 739.333C7877.6 733.867 7873.2 732 7856.67 728.133C7853.07 727.2 7847.33 724.8 7844 722.667C7840.67 720.533 7831.73 715.867 7824 712.133C7816.27 708.533 7806.8 702.667 7802.8 699.333C7793.33 691.2 7789.73 689.467 7777.6 687.333C7765.73 685.2 7763.73 684.533 7757.33 680.667C7754.8 679.067 7749.2 676.4 7744.93 674.933C7732.4 670.267 7725.2 666 7716.67 658.667C7707.6 650.667 7704.27 648.933 7690.53 645.867C7685.07 644.667 7677.33 642 7673.33 639.867C7669.33 637.733 7660.8 634.267 7654.27 632.133C7645.33 629.2 7640.67 626.667 7633.6 620.933C7623.33 612.533 7619.33 610.667 7604.67 607.333C7598.8 606.133 7591.87 603.867 7589.2 602.533C7586.53 601.2 7578.8 598.533 7572 596.667C7556.53 592.4 7555.73 591.867 7546.53 583.333C7541.6 578.8 7535.73 575.2 7529.87 572.8C7524.8 570.667 7514.67 566.133 7507.33 562.533C7495.73 556.933 7492.27 556 7480.8 554.667C7470 553.6 7466.27 552.533 7459.47 548.8C7455.07 546.267 7448 543.2 7444 542C7434.13 538.8 7422.93 533.067 7418 528.667C7412.53 523.733 7404.8 520.4 7393.2 518C7387.73 516.8 7378.8 514.133 7373.33 512C7367.87 509.867 7359.07 506.933 7353.73 505.333C7347.73 503.6 7342.13 500.933 7338.4 498C7330.4 491.467 7320.93 487.067 7309.6 484.8C7304.4 483.6 7296 480.667 7290.93 478C7284.13 474.533 7279.2 473.067 7270 471.867C7261.2 470.8 7254.93 469.067 7246.67 465.333C7240.4 462.533 7232.93 459.467 7230 458.667C7222.67 456.267 7212.27 451.067 7206.67 446.667C7199.07 440.8 7194 438.8 7183.07 437.2C7177.33 436.4 7169.2 434.667 7164.93 433.2C7160.53 431.733 7151.6 429.467 7144.93 428C7129.87 424.933 7128.93 424.667 7120.53 419.2C7116.93 416.667 7110 413.867 7105.2 412.667C7088.4 408.667 7085.87 407.733 7077.07 402.133C7070.53 397.867 7065.33 395.867 7057.07 394.133C7050.93 392.8 7040.27 390 7033.33 388C7026.4 385.867 7016.53 383.2 7011.33 382.133C7006 380.8 6998.53 377.733 6993.33 374.8C6986.27 370.4 6982.67 369.2 6973.33 368C6964.53 366.933 6959.33 365.2 6950 360.667C6942 356.667 6934.27 354 6926.67 352.533C6920.4 351.467 6911.2 349.333 6906 348C6900.93 346.667 6892.8 345.067 6888 344.667C6878.13 343.6 6868.8 340.8 6864 337.333C6862.13 336 6854.27 332.8 6846.67 330.133C6838.93 327.467 6829.33 323.2 6825.33 320.8C6813.87 313.867 6812.93 313.467 6800.13 311.333C6793.47 310.133 6784.67 307.733 6780.67 306C6775.47 303.6 6769.07 302.267 6758.93 301.333C6751.07 300.667 6742.53 299.467 6740 298.667C6737.47 297.867 6728.53 296.4 6720.4 295.333C6705.6 293.467 6701.47 292 6692 285.867C6689.47 284.133 6682 281.333 6675.33 279.333C6668.8 277.467 6659.2 273.867 6654.27 271.2C6646 266.933 6643.73 266.4 6629.6 265.467C6610.53 264.133 6580.8 257.333 6570.67 252.133C6562.67 248 6551.33 245.333 6541.47 245.333C6537.2 245.333 6532.4 243.867 6525.87 240.8C6520.67 238.267 6511.07 234.8 6504.53 233.2C6498 231.733 6489.73 228.933 6486 227.067C6476.8 222.4 6472.93 221.333 6461.33 220.533C6455.87 220.133 6447.73 218.933 6443.2 218C6438.8 216.933 6428.67 215.733 6420.53 215.333C6412.53 214.933 6402 213.333 6397.2 212C6392.4 210.533 6384 208.533 6378.67 207.333C6373.33 206.267 6364.13 202.933 6358.13 200C6348.93 195.6 6345.2 194.533 6333.6 193.467C6322.53 192.267 6318 191.067 6310 187.333C6304.53 184.8 6291.87 180.533 6281.73 177.867C6264.67 173.467 6262.27 173.067 6249.33 173.733C6237.07 174.267 6213.47 172.533 6198.67 169.867C6196.13 169.467 6189.2 167.067 6183.2 164.667C6177.2 162.267 6167.6 159.333 6161.87 158C6156 156.667 6148.4 154.4 6144.67 152.933C6140 151.067 6133.07 150 6121.33 149.2C6112 148.667 6102 147.2 6098.67 146C6095.47 144.933 6087.47 143.067 6080.93 142C6074.53 140.933 6064.67 138.533 6059.07 136.667C6048.8 133.067 6029.73 130.4 5996.67 127.867C5987.2 127.2 5976 125.6 5972 124.533C5968 123.333 5959.07 121.6 5952.13 120.533C5944.8 119.333 5935.87 116.933 5930.67 114.667C5925.73 112.533 5917.2 110 5911.87 109.2C5906.4 108.4 5896 106.267 5888.67 104.667C5881.33 102.933 5870.27 101.2 5864 100.667C5857.73 100.133 5847.6 98.9335 5841.47 97.8668C5835.33 96.8001 5827.2 96.0001 5823.47 96.0001C5819.73 96.0001 5811.6 95.2001 5805.33 94.1335C5799.07 93.0668 5788 91.8668 5780.67 91.4668C5765.47 90.5335 5730.13 84.9335 5720.53 81.8668C5716.93 80.8001 5705.07 79.2001 5694 78.5335C5646.13 75.7335 5636.4 74.8001 5630.93 72.8001C5627.87 71.6001 5619.47 69.4668 5612.27 67.8668C5605.2 66.2668 5595.47 63.6001 5590.8 61.8668C5586.13 60.1335 5575.07 57.7335 5566.13 56.5335C5557.2 55.4668 5547.87 54.0001 5545.33 53.3335C5542.8 52.5335 5534.93 52.0001 5528 52.0001C5521.07 52.0001 5508.4 51.3335 5500 50.6668C5491.6 50.0001 5467.33 48.8001 5446 48.0001C5424.8 47.2001 5400.4 45.7335 5392 44.6668C5383.6 43.6001 5370.67 42.0001 5363.33 41.3335C5356 40.5335 5344.93 39.3335 5338.67 38.5335C5306.27 34.2668 5280.4 32.2668 5228.67 29.6001C5217.6 28.9335 5208 28.1335 5207.33 27.7335C5206.53 27.3335 5198.8 26.1335 5190 25.3335C5181.2 24.4001 5172.27 22.9335 5170 22.1335C5163.47 19.3335 5152 9.46681 5149.73 4.53348L5147.47 0.000142449H2573.73H0V5549.33Z" fill="white"/>
<path d="M6811.47 4144.53C6804.27 4147.2 6800.13 4150.53 6795.47 4157.07C6792.13 4161.87 6791.47 4164.4 6790 4178.27C6788.8 4190.13 6787.6 4195.6 6785.07 4200.67C6782.13 4206.27 6780.67 4210.93 6779.2 4218C6777.6 4226.53 6774.13 4236.93 6771.6 4240.93C6767.47 4247.47 6765.87 4252.53 6763.33 4267.73C6762.13 4274.67 6760.13 4283.07 6758.67 4286.53C6757.33 4290 6755.87 4295.73 6755.33 4299.47C6753.73 4311.07 6750.8 4318.93 6745.47 4325.87C6738.67 4334.93 6737.07 4338.4 6733.33 4352.67C6731.73 4359.2 6729.2 4366.93 6727.73 4369.73C6726.4 4372.53 6723.73 4380.53 6721.87 4387.73C6718.4 4401.07 6714.4 4409.33 6709.33 4414C6705.07 4417.87 6702 4424.4 6698.67 4437.2C6696.67 4444.67 6694.13 4450.27 6690.93 4454.4C6684.8 4462.4 6682.8 4467.47 6680.53 4481.07C6679.33 4487.33 6677.07 4495.2 6675.33 4498.53C6673.6 4502 6671.2 4508.4 6669.87 4512.67C6666.27 4525.47 6663.33 4531.2 6656.8 4538.53C6648.93 4547.33 6646.27 4552.93 6643.33 4566C6642.13 4571.87 6639.6 4580 6638 4584C6636.27 4588 6634.13 4595.2 6633.2 4600C6630.67 4613.07 6628.67 4616.93 6619.33 4625.87C6605.6 4639.2 6602.67 4648 6602.67 4676.53C6602.67 4696.8 6604.27 4707.33 6608.67 4716C6614.27 4726.93 6621.2 4730.67 6636.53 4730.67C6642.13 4730.67 6649.2 4731.6 6652.4 4732.67C6655.47 4733.73 6664.27 4735.47 6671.87 4736.67C6685.2 4738.67 6689.07 4740 6701.33 4747.07C6704.67 4748.93 6711.87 4751.47 6717.33 4752.8C6728.27 4755.2 6732.4 4756.93 6740.27 4762.67C6745.33 4766.4 6748.4 4767.2 6768.53 4770.53C6773.6 4771.47 6779.87 4773.2 6782.53 4774.53C6785.2 4775.87 6791.6 4778.27 6796.67 4779.87C6807.33 4783.33 6814.53 4787.2 6822.67 4794C6834 4803.47 6841.47 4806 6868.67 4810C6888.27 4812.93 6895.33 4811.47 6911.6 4800.67C6938.27 4783.2 6958.53 4772.27 6968.4 4769.87C6981.33 4766.8 6984.4 4765.07 6996 4754.4C7003.6 4747.47 7009.33 4743.6 7019.87 4738.53C7027.47 4734.93 7035.33 4730.8 7037.2 4729.33C7039.2 4728 7046 4725.33 7052.4 4723.47C7066.67 4719.33 7070.4 4717.2 7080.67 4706.67C7089.6 4697.47 7092.53 4695.73 7105.73 4691.2C7110.8 4689.47 7118 4686 7121.87 4683.6C7125.6 4681.2 7133.47 4677.2 7139.33 4674.67C7151.6 4669.47 7159.73 4664.13 7163.87 4658.53C7168 4653.07 7173.47 4650.67 7186.93 4648.67C7196 4647.33 7200.27 4645.87 7204.27 4643.07C7214.93 4635.73 7220 4626 7220 4612.8C7220 4596 7211.47 4582.13 7192.93 4568.93C7188.4 4565.6 7179.6 4557.47 7173.47 4550.67C7167.33 4544 7157.73 4535.2 7152 4531.33C7139.47 4522.53 7135.73 4518.8 7129.6 4509.33C7122.67 4498.4 7097.87 4467.33 7087.73 4456.67C7082.8 4451.6 7074.8 4441.6 7069.87 4434.67C7064.93 4427.73 7058 4418.67 7054.53 4414.53C7050.53 4409.87 7046.53 4403.07 7043.87 4396.53C7038 4381.87 7034.53 4377.07 7024.93 4369.87C7015.33 4362.67 7012.4 4358.67 7008.13 4347.6C7004 4336.27 7002.53 4333.87 6990 4316.4C6974.67 4295.07 6933.07 4249.6 6919.87 4239.73C6917.2 4237.73 6911.47 4231.47 6907.2 4225.73C6899.87 4216 6896.4 4212.27 6878.13 4194.93C6874.13 4190.93 6867.87 4182.93 6864.4 4176.93C6849.2 4151.07 6828.4 4138.27 6811.47 4144.53Z" fill="white"/>
</svg>
